solid MYSOLID created by IVCON, original data in bone_1_19.iv
  facet normal -0.024733 -0.842768 0.537708
    outer loop
      vertex 1.529090 24.906099 -2.055500
      vertex -1.340440 25.384600 -1.437520
      vertex -1.927250 23.665400 -4.159070
    endloop
  endfacet
  facet normal 0.318473 -0.830923 0.456225
    outer loop
      vertex -4.016170 23.255400 -3.447610
      vertex -1.927250 23.665400 -4.159070
      vertex -1.340440 25.384600 -1.437520
    endloop
  endfacet
  facet normal 0.343288 -0.835839 0.428400
    outer loop
      vertex -4.016170 23.255400 -3.447610
      vertex -1.340440 25.384600 -1.437520
      vertex -4.561380 24.258801 -1.053010
    endloop
  endfacet
  facet normal 0.340141 -0.932995 0.117579
    outer loop
      vertex -2.162990 25.318001 0.413553
      vertex -4.561380 24.258801 -1.053010
      vertex -1.340440 25.384600 -1.437520
    endloop
  endfacet
  facet normal 0.100941 -0.591576 0.799905
    outer loop
      vertex -1.745370 20.211201 -6.736600
      vertex 0.584351 22.520300 -5.322880
      vertex -1.927250 23.665400 -4.159070
    endloop
  endfacet
  facet normal 0.286535 -0.563237 0.775024
    outer loop
      vertex -5.241630 20.591400 -5.167690
      vertex -1.745370 20.211201 -6.736600
      vertex -1.927250 23.665400 -4.159070
    endloop
  endfacet
  facet normal 0.359504 -0.617241 0.699836
    outer loop
      vertex -1.927250 23.665400 -4.159070
      vertex -4.016170 23.255400 -3.447610
      vertex -5.241630 20.591400 -5.167690
    endloop
  endfacet
  facet normal 0.580890 -0.612998 0.535538
    outer loop
      vertex -5.241630 20.591400 -5.167690
      vertex -4.016170 23.255400 -3.447610
      vertex -6.510130 22.522301 -1.581580
    endloop
  endfacet
  facet normal -0.123657 -0.784049 0.608257
    outer loop
      vertex 0.584351 22.520300 -5.322880
      vertex 2.887730 23.628599 -3.426000
      vertex 1.529090 24.906099 -2.055500
    endloop
  endfacet
  facet normal -0.082262 -0.793400 0.603116
    outer loop
      vertex 1.529090 24.906099 -2.055500
      vertex -1.927250 23.665400 -4.159070
      vertex 0.584351 22.520300 -5.322880
    endloop
  endfacet
  facet normal 0.534130 -0.729476 0.427282
    outer loop
      vertex -6.510130 22.522301 -1.581580
      vertex -4.016170 23.255400 -3.447610
      vertex -4.561380 24.258801 -1.053010
    endloop
  endfacet
  facet normal -0.120426 -0.973468 0.194569
    outer loop
      vertex -1.340440 25.384600 -1.437520
      vertex 1.529090 24.906099 -2.055500
      vertex 0.450460 25.467800 0.087205
    endloop
  endfacet
  facet normal 0.647105 -0.756062 0.098106
    outer loop
      vertex -6.510130 22.522301 -1.581580
      vertex -4.561380 24.258801 -1.053010
      vertex -4.783700 24.282000 0.592199
    endloop
  endfacet
  facet normal 0.055839 -0.998378 -0.011108
    outer loop
      vertex -2.162990 25.318001 0.413553
      vertex -1.340440 25.384600 -1.437520
      vertex 0.450460 25.467800 0.087205
    endloop
  endfacet
  facet normal 0.370616 -0.926637 0.063149
    outer loop
      vertex -4.561380 24.258801 -1.053010
      vertex -2.162990 25.318001 0.413553
      vertex -4.783700 24.282000 0.592199
    endloop
  endfacet
  facet normal 0.691421 -0.505099 0.516539
    outer loop
      vertex -5.241630 20.591400 -5.167690
      vertex -6.510130 22.522301 -1.581580
      vertex -7.572780 19.591499 -3.025050
    endloop
  endfacet
  facet normal -0.362310 -0.833288 0.417568
    outer loop
      vertex 4.357860 23.674900 -2.058020
      vertex 1.529090 24.906099 -2.055500
      vertex 2.887730 23.628599 -3.426000
    endloop
  endfacet
  facet normal -0.389243 -0.894761 0.218844
    outer loop
      vertex 1.529090 24.906099 -2.055500
      vertex 4.357860 23.674900 -2.058020
      vertex 3.762470 24.400700 -0.149512
    endloop
  endfacet
  facet normal 0.784073 -0.618667 0.049795
    outer loop
      vertex -6.094480 23.245100 0.853873
      vertex -7.549310 21.330799 -0.022166
      vertex -6.510130 22.522301 -1.581580
    endloop
  endfacet
  facet normal -0.298798 -0.949227 0.098422
    outer loop
      vertex 3.762470 24.400700 -0.149512
      vertex 0.450460 25.467800 0.087205
      vertex 1.529090 24.906099 -2.055500
    endloop
  endfacet
  facet normal 0.630548 -0.766823 0.119966
    outer loop
      vertex -6.510130 22.522301 -1.581580
      vertex -4.783700 24.282000 0.592199
      vertex -6.094480 23.245100 0.853873
    endloop
  endfacet
  facet normal -0.310536 -0.947820 -0.072148
    outer loop
      vertex 0.450460 25.467800 0.087205
      vertex 3.762470 24.400700 -0.149512
      vertex 2.428170 24.737700 1.166290
    endloop
  endfacet
  facet normal 0.513521 -0.752995 -0.411455
    outer loop
      vertex -6.094480 23.245100 0.853873
      vertex -4.783700 24.282000 0.592199
      vertex -3.538940 24.273199 2.161840
    endloop
  endfacet
  facet normal -0.161164 -0.928990 -0.333172
    outer loop
      vertex 2.428170 24.737700 1.166290
      vertex -0.548007 24.925100 2.083410
      vertex 0.450460 25.467800 0.087205
    endloop
  endfacet
  facet normal 0.024121 -0.967683 -0.251015
    outer loop
      vertex 0.450460 25.467800 0.087205
      vertex -0.548007 24.925100 2.083410
      vertex -2.162990 25.318001 0.413553
    endloop
  endfacet
  facet normal 0.186094 -0.900961 -0.391966
    outer loop
      vertex -0.548007 24.925100 2.083410
      vertex -3.538940 24.273199 2.161840
      vertex -2.162990 25.318001 0.413553
    endloop
  endfacet
  facet normal 0.337556 -0.900926 -0.272741
    outer loop
      vertex -2.162990 25.318001 0.413553
      vertex -3.538940 24.273199 2.161840
      vertex -4.783700 24.282000 0.592199
    endloop
  endfacet
  facet normal 0.331431 -0.426019 0.841820
    outer loop
      vertex -3.045810 16.274500 -8.216850
      vertex -1.745370 20.211201 -6.736600
      vertex -5.241630 20.591400 -5.167690
    endloop
  endfacet
  facet normal 0.442455 -0.356249 0.822995
    outer loop
      vertex -3.045810 16.274500 -8.216850
      vertex -5.241630 20.591400 -5.167690
      vertex -5.726040 16.878000 -6.514680
    endloop
  endfacet
  facet normal -0.053522 -0.481570 0.874772
    outer loop
      vertex 0.584351 22.520300 -5.322880
      vertex -1.745370 20.211201 -6.736600
      vertex 2.151030 19.621099 -6.823060
    endloop
  endfacet
  facet normal -0.317408 -0.565438 0.761270
    outer loop
      vertex 2.151030 19.621099 -6.823060
      vertex 4.514720 21.444401 -4.483260
      vertex 0.584351 22.520300 -5.322880
    endloop
  endfacet
  facet normal -0.320372 -0.595318 0.736857
    outer loop
      vertex 2.887730 23.628599 -3.426000
      vertex 0.584351 22.520300 -5.322880
      vertex 4.514720 21.444401 -4.483260
    endloop
  endfacet
  facet normal -0.506073 -0.650889 0.565892
    outer loop
      vertex 4.514720 21.444401 -4.483260
      vertex 4.357860 23.674900 -2.058020
      vertex 2.887730 23.628599 -3.426000
    endloop
  endfacet
  facet normal 0.519947 -0.731714 -0.440738
    outer loop
      vertex -6.094480 23.245100 0.853873
      vertex -3.538940 24.273199 2.161840
      vertex -5.802470 22.768400 1.989780
    endloop
  endfacet
  facet normal 0.142836 -0.735073 -0.662772
    outer loop
      vertex -3.538940 24.273199 2.161840
      vertex -0.548007 24.925100 2.083410
      vertex -1.452790 23.644100 3.309160
    endloop
  endfacet
  facet normal -0.040784 -0.403240 0.914185
    outer loop
      vertex -1.745370 20.211201 -6.736600
      vertex -1.054320 16.431400 -8.373010
      vertex 2.151030 19.621099 -6.823060
    endloop
  endfacet
  facet normal 0.711879 -0.319691 0.625321
    outer loop
      vertex -5.726040 16.878000 -6.514680
      vertex -5.241630 20.591400 -5.167690
      vertex -7.572780 19.591499 -3.025050
    endloop
  endfacet
  facet normal 0.866477 -0.434894 0.245123
    outer loop
      vertex -7.572780 19.591499 -3.025050
      vertex -6.510130 22.522301 -1.581580
      vertex -7.549310 21.330799 -0.022166
    endloop
  endfacet
  facet normal 0.916119 -0.349980 0.195552
    outer loop
      vertex -7.549310 21.330799 -0.022166
      vertex -8.917840 17.400900 -0.644261
      vertex -7.572780 19.591499 -3.025050
    endloop
  endfacet
  facet normal 0.810082 -0.436513 -0.391438
    outer loop
      vertex -5.802470 22.768400 1.989780
      vertex -7.549310 21.330799 -0.022166
      vertex -6.094480 23.245100 0.853873
    endloop
  endfacet
  facet normal -0.224615 -0.792528 -0.566963
    outer loop
      vertex 1.906030 23.707300 2.813490
      vertex -0.548007 24.925100 2.083410
      vertex 2.428170 24.737700 1.166290
    endloop
  endfacet
  facet normal 0.404682 -0.522951 -0.750170
    outer loop
      vertex -5.802470 22.768400 1.989780
      vertex -3.538940 24.273199 2.161840
      vertex -3.863540 21.836500 3.685380
    endloop
  endfacet
  facet normal 0.277156 -0.535655 -0.797658
    outer loop
      vertex -3.863540 21.836500 3.685380
      vertex -3.538940 24.273199 2.161840
      vertex -1.452790 23.644100 3.309160
    endloop
  endfacet
  facet normal 0.102003 -0.379464 0.919566
    outer loop
      vertex -3.045810 16.274500 -8.216850
      vertex -1.054320 16.431400 -8.373010
      vertex -1.745370 20.211201 -6.736600
    endloop
  endfacet
  facet normal 0.778455 -0.224196 0.586297
    outer loop
      vertex -5.726040 16.878000 -6.514680
      vertex -7.572780 19.591499 -3.025050
      vertex -8.533300 15.629200 -3.264880
    endloop
  endfacet
  facet normal -0.655541 -0.576478 0.487789
    outer loop
      vertex 4.514720 21.444401 -4.483260
      vertex 7.470330 19.747499 -2.516640
      vertex 4.357860 23.674900 -2.058020
    endloop
  endfacet
  facet normal 0.945517 -0.318826 -0.065931
    outer loop
      vertex -8.917840 17.400900 -0.644261
      vertex -7.549310 21.330799 -0.022166
      vertex -8.045040 19.561100 1.426390
    endloop
  endfacet
  facet normal -0.630210 -0.770419 0.096383
    outer loop
      vertex 4.357860 23.674900 -2.058020
      vertex 5.926820 22.600201 -0.389619
      vertex 3.762470 24.400700 -0.149512
    endloop
  endfacet
  facet normal -0.641857 -0.750714 -0.156357
    outer loop
      vertex 3.762470 24.400700 -0.149512
      vertex 5.926820 22.600201 -0.389619
      vertex 5.469250 22.732700 0.852569
    endloop
  endfacet
  facet normal 0.798464 -0.499169 -0.336581
    outer loop
      vertex -8.045040 19.561100 1.426390
      vertex -7.549310 21.330799 -0.022166
      vertex -5.802470 22.768400 1.989780
    endloop
  endfacet
  facet normal -0.540239 -0.764318 -0.352079
    outer loop
      vertex 3.762470 24.400700 -0.149512
      vertex 5.469250 22.732700 0.852569
      vertex 2.428170 24.737700 1.166290
    endloop
  endfacet
  facet normal -0.492959 -0.658765 -0.568349
    outer loop
      vertex 5.469250 22.732700 0.852569
      vertex 1.906030 23.707300 2.813490
      vertex 2.428170 24.737700 1.166290
    endloop
  endfacet
  facet normal 0.563636 -0.256153 -0.785303
    outer loop
      vertex -8.045040 19.561100 1.426390
      vertex -5.802470 22.768400 1.989780
      vertex -3.863540 21.836500 3.685380
    endloop
  endfacet
  facet normal -0.098870 -0.650627 -0.752934
    outer loop
      vertex -1.452790 23.644100 3.309160
      vertex -0.548007 24.925100 2.083410
      vertex 1.906030 23.707300 2.813490
    endloop
  endfacet
  facet normal -0.466280 -0.404880 0.786546
    outer loop
      vertex 2.151030 19.621099 -6.823060
      vertex 5.764340 18.202000 -5.411510
      vertex 4.514720 21.444401 -4.483260
    endloop
  endfacet
  facet normal -0.732427 -0.614647 0.292848
    outer loop
      vertex 7.470330 19.747499 -2.516640
      vertex 5.926820 22.600201 -0.389619
      vertex 4.357860 23.674900 -2.058020
    endloop
  endfacet
  facet normal 0.596159 -0.410616 -0.689920
    outer loop
      vertex -8.045040 19.561100 1.426390
      vertex -3.863540 21.836500 3.685380
      vertex -6.886300 19.068001 2.721130
    endloop
  endfacet
  facet normal 0.499340 -0.175434 0.848459
    outer loop
      vertex -5.726040 16.878000 -6.514680
      vertex -5.734150 13.116900 -7.287580
      vertex -3.045810 16.274500 -8.216850
    endloop
  endfacet
  facet normal 0.923101 -0.241870 0.298971
    outer loop
      vertex -8.533300 15.629200 -3.264880
      vertex -7.572780 19.591499 -3.025050
      vertex -8.917840 17.400900 -0.644261
    endloop
  endfacet
  facet normal -0.658147 -0.430482 0.617680
    outer loop
      vertex 5.764340 18.202000 -5.411510
      vertex 7.470330 19.747499 -2.516640
      vertex 4.514720 21.444401 -4.483260
    endloop
  endfacet
  facet normal -0.802085 -0.569067 0.181170
    outer loop
      vertex 7.308990 20.604700 -0.538408
      vertex 5.926820 22.600201 -0.389619
      vertex 7.470330 19.747499 -2.516640
    endloop
  endfacet
  facet normal -0.514512 -0.538555 -0.667260
    outer loop
      vertex 5.469250 22.732700 0.852569
      vertex 4.447060 21.103500 2.955710
      vertex 1.906030 23.707300 2.813490
    endloop
  endfacet
  facet normal -0.119438 -0.477856 -0.870281
    outer loop
      vertex -1.452790 23.644100 3.309160
      vertex 1.906030 23.707300 2.813490
      vertex 1.910330 21.294399 4.137780
    endloop
  endfacet
  facet normal 0.145869 -0.384279 -0.911621
    outer loop
      vertex -3.863540 21.836500 3.685380
      vertex -1.452790 23.644100 3.309160
      vertex -1.016320 19.819401 4.991240
    endloop
  endfacet
  facet normal -0.267934 -0.189740 0.944569
    outer loop
      vertex -1.054320 16.431400 -8.373010
      vertex 3.794080 13.901600 -7.505900
      vertex 2.151030 19.621099 -6.823060
    endloop
  endfacet
  facet normal 0.679908 -0.149013 0.717997
    outer loop
      vertex -5.726040 16.878000 -6.514680
      vertex -7.821150 12.563100 -5.426230
      vertex -5.734150 13.116900 -7.287580
    endloop
  endfacet
  facet normal -0.430670 -0.227974 0.873242
    outer loop
      vertex 2.151030 19.621099 -6.823060
      vertex 3.794080 13.901600 -7.505900
      vertex 5.764340 18.202000 -5.411510
    endloop
  endfacet
  facet normal 0.778441 -0.230713 0.583781
    outer loop
      vertex -7.821150 12.563100 -5.426230
      vertex -5.726040 16.878000 -6.514680
      vertex -8.533300 15.629200 -3.264880
    endloop
  endfacet
  facet normal 0.948846 -0.304957 -0.081803
    outer loop
      vertex -8.917840 17.400900 -0.644261
      vertex -8.045040 19.561100 1.426390
      vertex -8.945590 16.850500 1.085730
    endloop
  endfacet
  facet normal -0.806426 -0.540717 -0.239377
    outer loop
      vertex 5.926820 22.600201 -0.389619
      vertex 7.308990 20.604700 -0.538408
      vertex 5.469250 22.732700 0.852569
    endloop
  endfacet
  facet normal 0.708121 -0.148506 -0.690298
    outer loop
      vertex -8.045040 19.561100 1.426390
      vertex -6.886300 19.068001 2.721130
      vertex -8.945590 16.850500 1.085730
    endloop
  endfacet
  facet normal -0.406256 -0.440199 -0.800738
    outer loop
      vertex 1.906030 23.707300 2.813490
      vertex 4.447060 21.103500 2.955710
      vertex 1.910330 21.294399 4.137780
    endloop
  endfacet
  facet normal -0.060283 -0.407605 -0.911166
    outer loop
      vertex -1.452790 23.644100 3.309160
      vertex 1.910330 21.294399 4.137780
      vertex -1.016320 19.819401 4.991240
    endloop
  endfacet
  facet normal 0.448527 -0.121269 0.885504
    outer loop
      vertex -3.831660 10.501500 -8.609410
      vertex -3.045810 16.274500 -8.216850
      vertex -5.734150 13.116900 -7.287580
    endloop
  endfacet
  facet normal -0.718613 -0.335472 -0.609141
    outer loop
      vertex 5.469250 22.732700 0.852569
      vertex 7.425120 18.213200 1.034220
      vertex 4.447060 21.103500 2.955710
    endloop
  endfacet
  facet normal 0.950508 -0.174221 0.257258
    outer loop
      vertex -8.533300 15.629200 -3.264880
      vertex -8.917840 17.400900 -0.644261
      vertex -9.530140 10.876200 -2.800630
    endloop
  endfacet
  facet normal -0.791359 -0.362264 -0.492458
    outer loop
      vertex 7.425120 18.213200 1.034220
      vertex 5.469250 22.732700 0.852569
      vertex 7.308990 20.604700 -0.538408
    endloop
  endfacet
  facet normal 0.770105 -0.299950 -0.562999
    outer loop
      vertex -8.121730 15.087300 3.152040
      vertex -8.945590 16.850500 1.085730
      vertex -6.886300 19.068001 2.721130
    endloop
  endfacet
  facet normal -0.755095 -0.278350 0.593593
    outer loop
      vertex 8.440960 14.994200 -3.510860
      vertex 7.470330 19.747499 -2.516640
      vertex 5.764340 18.202000 -5.411510
    endloop
  endfacet
  facet normal 0.992912 -0.116935 -0.021276
    outer loop
      vertex -8.917840 17.400900 -0.644261
      vertex -8.945590 16.850500 1.085730
      vertex -9.679890 10.638300 0.960175
    endloop
  endfacet
  facet normal -0.933656 -0.350111 0.075562
    outer loop
      vertex 7.470330 19.747499 -2.516640
      vertex 9.252860 15.370600 -0.771475
      vertex 7.308990 20.604700 -0.538408
    endloop
  endfacet
  facet normal -0.422682 -0.280483 -0.861782
    outer loop
      vertex 1.789840 18.510099 5.103080
      vertex 1.910330 21.294399 4.137780
      vertex 4.447060 21.103500 2.955710
    endloop
  endfacet
  facet normal -0.112364 -0.321147 -0.940340
    outer loop
      vertex -1.016320 19.819401 4.991240
      vertex 1.910330 21.294399 4.137780
      vertex 1.789840 18.510099 5.103080
    endloop
  endfacet
  facet normal 0.677951 -0.114048 0.726206
    outer loop
      vertex -5.734150 13.116900 -7.287580
      vertex -7.821150 12.563100 -5.426230
      vertex -8.538450 6.301510 -5.739950
    endloop
  endfacet
  facet normal 0.867895 -0.135338 0.477956
    outer loop
      vertex -8.533300 15.629200 -3.264880
      vertex -9.530140 10.876200 -2.800630
      vertex -7.821150 12.563100 -5.426230
    endloop
  endfacet
  facet normal -0.917974 -0.251589 0.306639
    outer loop
      vertex 7.470330 19.747499 -2.516640
      vertex 8.440960 14.994200 -3.510860
      vertex 9.252860 15.370600 -0.771475
    endloop
  endfacet
  facet normal 0.893389 -0.096734 -0.438747
    outer loop
      vertex -9.679890 10.638300 0.960175
      vertex -8.945590 16.850500 1.085730
      vertex -8.121730 15.087300 3.152040
    endloop
  endfacet
  facet normal 0.513054 -0.248177 -0.821696
    outer loop
      vertex -8.121730 15.087300 3.152040
      vertex -6.886300 19.068001 2.721130
      vertex -6.440460 11.732100 5.215170
    endloop
  endfacet
  facet normal 0.540666 -0.031573 0.840644
    outer loop
      vertex -8.538450 6.301510 -5.739950
      vertex -3.831660 10.501500 -8.609410
      vertex -5.734150 13.116900 -7.287580
    endloop
  endfacet
  facet normal -0.554757 -0.144854 0.819306
    outer loop
      vertex 5.764340 18.202000 -5.411510
      vertex 3.794080 13.901600 -7.505900
      vertex 6.710090 10.994900 -6.045360
    endloop
  endfacet
  facet normal -0.687248 -0.152645 0.710203
    outer loop
      vertex 8.440960 14.994200 -3.510860
      vertex 5.764340 18.202000 -5.411510
      vertex 6.710090 10.994900 -6.045360
    endloop
  endfacet
  facet normal 0.994011 -0.104184 0.032990
    outer loop
      vertex -9.530140 10.876200 -2.800630
      vertex -8.917840 17.400900 -0.644261
      vertex -9.679890 10.638300 0.960175
    endloop
  endfacet
  facet normal -0.920437 -0.332700 -0.205198
    outer loop
      vertex 7.308990 20.604700 -0.538408
      vertex 9.252860 15.370600 -0.771475
      vertex 9.023830 15.054900 0.767722
    endloop
  endfacet
  facet normal -0.793883 -0.360541 -0.489653
    outer loop
      vertex 7.308990 20.604700 -0.538408
      vertex 9.023830 15.054900 0.767722
      vertex 7.425120 18.213200 1.034220
    endloop
  endfacet
  facet normal -0.667317 -0.213162 -0.713617
    outer loop
      vertex 7.425120 18.213200 1.034220
      vertex 4.726590 15.052300 4.501850
      vertex 4.447060 21.103500 2.955710
    endloop
  endfacet
  facet normal 0.439358 -0.172667 -0.881562
    outer loop
      vertex -3.863540 21.836500 3.685380
      vertex -2.572480 15.173000 5.633970
      vertex -6.886300 19.068001 2.721130
    endloop
  endfacet
  facet normal 0.272924 -0.220927 -0.936324
    outer loop
      vertex -1.016320 19.819401 4.991240
      vertex -2.572480 15.173000 5.633970
      vertex -3.863540 21.836500 3.685380
    endloop
  endfacet
  facet normal 0.866090 -0.123485 0.484397
    outer loop
      vertex -7.821150 12.563100 -5.426230
      vertex -9.530140 10.876200 -2.800630
      vertex -8.538450 6.301510 -5.739950
    endloop
  endfacet
  facet normal 0.348250 -0.282693 -0.893760
    outer loop
      vertex -6.886300 19.068001 2.721130
      vertex -2.572480 15.173000 5.633970
      vertex -6.440460 11.732100 5.215170
    endloop
  endfacet
  facet normal -0.457724 -0.239891 -0.856120
    outer loop
      vertex 4.447060 21.103500 2.955710
      vertex 4.726590 15.052300 4.501850
      vertex 1.789840 18.510099 5.103080
    endloop
  endfacet
  facet normal -0.052602 -0.196374 -0.979117
    outer loop
      vertex 1.233590 13.416900 6.154470
      vertex -1.016320 19.819401 4.991240
      vertex 1.789840 18.510099 5.103080
    endloop
  endfacet
  facet normal 0.897649 -0.083452 0.432738
    outer loop
      vertex -9.530140 10.876200 -2.800630
      vertex -9.631330 3.679730 -3.978540
      vertex -8.538450 6.301510 -5.739950
    endloop
  endfacet
  facet normal 0.995766 -0.085307 0.034254
    outer loop
      vertex -9.938370 7.489500 0.632355
      vertex -9.530140 10.876200 -2.800630
      vertex -9.679890 10.638300 0.960175
    endloop
  endfacet
  facet normal 0.062260 -0.157189 -0.985604
    outer loop
      vertex -2.572480 15.173000 5.633970
      vertex -1.016320 19.819401 4.991240
      vertex 1.233590 13.416900 6.154470
    endloop
  endfacet
  facet normal -0.731911 -0.109455 0.672552
    outer loop
      vertex 8.047920 6.639290 -5.298310
      vertex 8.440960 14.994200 -3.510860
      vertex 6.710090 10.994900 -6.045360
    endloop
  endfacet
  facet normal -0.451864 -0.111004 0.885154
    outer loop
      vertex 1.778150 10.575300 -8.615700
      vertex 3.517680 5.424530 -8.373620
      vertex 6.710090 10.994900 -6.045360
    endloop
  endfacet
  facet normal -0.824459 -0.081040 0.560089
    outer loop
      vertex 8.440960 14.994200 -3.510860
      vertex 8.047920 6.639290 -5.298310
      vertex 9.898730 6.941930 -2.530100
    endloop
  endfacet
  facet normal -0.944845 -0.134691 0.298541
    outer loop
      vertex 9.252860 15.370600 -0.771475
      vertex 8.440960 14.994200 -3.510860
      vertex 9.898730 6.941930 -2.530100
    endloop
  endfacet
  facet normal 0.674372 -0.110961 -0.730007
    outer loop
      vertex -6.440460 11.732100 5.215170
      vertex -8.489490 7.399340 3.980880
      vertex -8.121730 15.087300 3.152040
    endloop
  endfacet
  facet normal -0.557513 -0.349913 -0.752821
    outer loop
      vertex 7.425120 18.213200 1.034220
      vertex 6.704540 12.510600 4.218440
      vertex 4.726590 15.052300 4.501850
    endloop
  endfacet
  facet normal 0.382298 -0.324441 -0.865209
    outer loop
      vertex -6.440460 11.732100 5.215170
      vertex -2.572480 15.173000 5.633970
      vertex -3.720470 10.817700 6.759900
    endloop
  endfacet
  facet normal -0.364628 -0.149889 -0.919010
    outer loop
      vertex 1.789840 18.510099 5.103080
      vertex 4.726590 15.052300 4.501850
      vertex 1.233590 13.416900 6.154470
    endloop
  endfacet
  facet normal 0.995524 -0.028735 0.090034
    outer loop
      vertex -9.530140 10.876200 -2.800630
      vertex -9.938370 7.489500 0.632355
      vertex -9.631330 3.679730 -3.978540
    endloop
  endfacet
  facet normal 0.889450 -0.090837 -0.447915
    outer loop
      vertex -8.489490 7.399340 3.980880
      vertex -9.679890 10.638300 0.960175
      vertex -8.121730 15.087300 3.152040
    endloop
  endfacet
  facet normal -0.682383 -0.288753 -0.671547
    outer loop
      vertex 6.704540 12.510600 4.218440
      vertex 7.425120 18.213200 1.034220
      vertex 9.023830 15.054900 0.767722
    endloop
  endfacet
  facet normal -0.018992 -0.321741 -0.946637
    outer loop
      vertex -2.572480 15.173000 5.633970
      vertex 1.233590 13.416900 6.154470
      vertex 0.382745 10.001200 7.332460
    endloop
  endfacet
  facet normal 0.080333 -0.269277 -0.959706
    outer loop
      vertex -3.720470 10.817700 6.759900
      vertex -2.572480 15.173000 5.633970
      vertex 0.382745 10.001200 7.332460
    endloop
  endfacet
  facet normal -0.556206 -0.028386 0.830560
    outer loop
      vertex 8.047920 6.639290 -5.298310
      vertex 6.710090 10.994900 -6.045360
      vertex 3.517680 5.424530 -8.373620
    endloop
  endfacet
  facet normal -0.353911 -0.172924 -0.919154
    outer loop
      vertex 1.233590 13.416900 6.154470
      vertex 4.726590 15.052300 4.501850
      vertex 6.704540 12.510600 4.218440
    endloop
  endfacet
  facet normal 0.996891 -0.013590 0.077612
    outer loop
      vertex -9.631330 3.679730 -3.978540
      vertex -9.938370 7.489500 0.632355
      vertex -9.945070 0.262897 -0.546985
    endloop
  endfacet
  facet normal -0.979424 -0.111048 -0.168513
    outer loop
      vertex 9.023830 15.054900 0.767722
      vertex 9.252860 15.370600 -0.771475
      vertex 9.915020 5.930790 1.600640
    endloop
  endfacet
  facet normal 0.916911 -0.033868 -0.397652
    outer loop
      vertex -9.679890 10.638300 0.960175
      vertex -8.489490 7.399340 3.980880
      vertex -9.938370 7.489500 0.632355
    endloop
  endfacet
  facet normal 0.898127 0.267811 0.348777
    outer loop
      vertex -9.631330 3.679730 -3.978540
      vertex -9.945070 0.262897 -0.546985
      vertex -9.087050 0.784941 -3.157310
    endloop
  endfacet
  facet normal 0.917454 -0.017631 -0.397450
    outer loop
      vertex -9.938370 7.489500 0.632355
      vertex -8.489490 7.399340 3.980880
      vertex -8.858050 2.083020 3.365950
    endloop
  endfacet
  facet normal -0.363651 -0.358831 -0.859650
    outer loop
      vertex 3.418310 10.353100 6.509160
      vertex 1.233590 13.416900 6.154470
      vertex 6.704540 12.510600 4.218440
    endloop
  endfacet
  facet normal -0.223186 -0.267659 -0.937308
    outer loop
      vertex 0.382745 10.001200 7.332460
      vertex 1.233590 13.416900 6.154470
      vertex 3.418310 10.353100 6.509160
    endloop
  endfacet
  facet normal -0.559116 -0.013533 0.828979
    outer loop
      vertex 8.047920 6.639290 -5.298310
      vertex 3.517680 5.424530 -8.373620
      vertex 6.939960 1.946300 -6.122200
    endloop
  endfacet
  facet normal 0.669838 -0.107484 -0.734687
    outer loop
      vertex -6.440460 11.732100 5.215170
      vertex -5.776730 1.449240 7.324680
      vertex -8.489490 7.399340 3.980880
    endloop
  endfacet
  facet normal 0.328729 -0.544228 0.771850
    outer loop
      vertex -6.330770 -2.882850 -7.631050
      vertex -6.074360 0.164320 -5.591710
      vertex -8.169710 -1.430890 -5.824080
    endloop
  endfacet
  facet normal 0.381832 -0.603511 0.699985
    outer loop
      vertex -8.169710 -1.430890 -5.824080
      vertex -6.074360 0.164320 -5.591710
      vertex -8.290590 0.339419 -4.231820
    endloop
  endfacet
  facet normal -0.831643 0.007000 0.555267
    outer loop
      vertex 8.675910 1.759540 -4.296230
      vertex 9.898730 6.941930 -2.530100
      vertex 8.047920 6.639290 -5.298310
    endloop
  endfacet
  facet normal -0.992543 -0.092596 0.079269
    outer loop
      vertex 9.898730 6.941930 -2.530100
      vertex 10.219300 4.663120 -1.178100
      vertex 9.252860 15.370600 -0.771475
    endloop
  endfacet
  facet normal 0.830173 0.006928 -0.557462
    outer loop
      vertex -8.489490 7.399340 3.980880
      vertex -7.612680 2.666550 5.227810
      vertex -8.858050 2.083020 3.365950
    endloop
  endfacet
  facet normal -0.843153 -0.129981 -0.521727
    outer loop
      vertex 9.915020 5.930790 1.600640
      vertex 8.523850 5.828450 3.874380
      vertex 9.023830 15.054900 0.767722
    endloop
  endfacet
  facet normal -0.753863 -0.172608 -0.633953
    outer loop
      vertex 9.023830 15.054900 0.767722
      vertex 8.523850 5.828450 3.874380
      vertex 6.704540 12.510600 4.218440
    endloop
  endfacet
  facet normal 0.496033 -0.356880 0.791573
    outer loop
      vertex -6.330770 -2.882850 -7.631050
      vertex -8.169710 -1.430890 -5.824080
      vertex -9.331440 -3.648150 -6.095740
    endloop
  endfacet
  facet normal 0.056473 -0.558580 0.827526
    outer loop
      vertex -6.330770 -2.882850 -7.631050
      vertex -2.214550 -1.208310 -6.781640
      vertex -6.074360 0.164320 -5.591710
    endloop
  endfacet
  facet normal 0.714901 -0.441048 0.542579
    outer loop
      vertex -10.037200 -1.242730 -3.210530
      vertex -9.331440 -3.648150 -6.095740
      vertex -8.169710 -1.430890 -5.824080
    endloop
  endfacet
  facet normal 0.715581 -0.439484 0.542953
    outer loop
      vertex -8.169710 -1.430890 -5.824080
      vertex -8.290590 0.339419 -4.231820
      vertex -10.037200 -1.242730 -3.210530
    endloop
  endfacet
  facet normal 0.683901 -0.337448 0.646844
    outer loop
      vertex -8.290590 0.339419 -4.231820
      vertex -9.087050 0.784941 -3.157310
      vertex -10.037200 -1.242730 -3.210530
    endloop
  endfacet
  facet normal 0.956772 0.045979 -0.287180
    outer loop
      vertex -9.938370 7.489500 0.632355
      vertex -8.858050 2.083020 3.365950
      vertex -9.945070 0.262897 -0.546985
    endloop
  endfacet
  facet normal -0.993802 -0.087075 -0.069100
    outer loop
      vertex 9.252860 15.370600 -0.771475
      vertex 10.219300 4.663120 -1.178100
      vertex 9.915020 5.930790 1.600640
    endloop
  endfacet
  facet normal -0.685473 -0.149944 -0.712491
    outer loop
      vertex 6.480040 3.507460 6.329140
      vertex 6.704540 12.510600 4.218440
      vertex 8.523850 5.828450 3.874380
    endloop
  endfacet
  facet normal 0.540074 -0.135542 -0.830631
    outer loop
      vertex -6.440460 11.732100 5.215170
      vertex -4.667330 3.457390 7.718320
      vertex -5.776730 1.449240 7.324680
    endloop
  endfacet
  facet normal 0.442285 -0.171528 -0.880319
    outer loop
      vertex -6.440460 11.732100 5.215170
      vertex -3.720470 10.817700 6.759900
      vertex -4.667330 3.457390 7.718320
    endloop
  endfacet
  facet normal 0.093057 -0.444247 0.891058
    outer loop
      vertex -4.379300 -5.500900 -9.140110
      vertex -1.614010 -4.080090 -8.720540
      vertex -6.330770 -2.882850 -7.631050
    endloop
  endfacet
  facet normal 0.495957 -0.353033 0.793344
    outer loop
      vertex -8.122840 -5.721160 -7.773770
      vertex -6.330770 -2.882850 -7.631050
      vertex -9.331440 -3.648150 -6.095740
    endloop
  endfacet
  facet normal 0.052420 -0.551240 0.832699
    outer loop
      vertex -6.330770 -2.882850 -7.631050
      vertex -1.614010 -4.080090 -8.720540
      vertex -2.214550 -1.208310 -6.781640
    endloop
  endfacet
  facet normal 0.883880 -0.419602 0.206616
    outer loop
      vertex -10.037200 -1.242730 -3.210530
      vertex -9.087050 0.784941 -3.157310
      vertex -9.945070 0.262897 -0.546985
    endloop
  endfacet
  facet normal -0.721366 0.049028 0.690817
    outer loop
      vertex 8.047920 6.639290 -5.298310
      vertex 6.939960 1.946300 -6.122200
      vertex 8.675910 1.759540 -4.296230
    endloop
  endfacet
  facet normal 0.344419 -0.262781 0.901289
    outer loop
      vertex -4.379300 -5.500900 -9.140110
      vertex -6.330770 -2.882850 -7.631050
      vertex -8.122840 -5.721160 -7.773770
    endloop
  endfacet
  facet normal -0.045492 -0.565499 0.823493
    outer loop
      vertex -1.614010 -4.080090 -8.720540
      vertex 0.962559 -1.127840 -6.550870
      vertex -2.214550 -1.208310 -6.781640
    endloop
  endfacet
  facet normal 0.888670 -0.221107 0.401718
    outer loop
      vertex -9.331440 -3.648150 -6.095740
      vertex -10.037200 -1.242730 -3.210530
      vertex -10.866300 -7.137640 -4.620990
    endloop
  endfacet
  facet normal -0.460870 -0.212796 -0.861578
    outer loop
      vertex 4.590810 2.886560 7.726090
      vertex 3.418310 10.353100 6.509160
      vertex 6.704540 12.510600 4.218440
    endloop
  endfacet
  facet normal 0.975337 -0.170667 0.139964
    outer loop
      vertex -10.037200 -1.242730 -3.210530
      vertex -11.270000 -7.803640 -2.619900
      vertex -10.866300 -7.137640 -4.620990
    endloop
  endfacet
  facet normal 0.740239 -0.039692 -0.671171
    outer loop
      vertex -8.489490 7.399340 3.980880
      vertex -5.776730 1.449240 7.324680
      vertex -7.612680 2.666550 5.227810
    endloop
  endfacet
  facet normal -0.546492 -0.178212 -0.818283
    outer loop
      vertex 4.590810 2.886560 7.726090
      vertex 6.704540 12.510600 4.218440
      vertex 6.480040 3.507460 6.329140
    endloop
  endfacet
  facet normal 0.097648 -0.193808 -0.976168
    outer loop
      vertex 0.382745 10.001200 7.332460
      vertex -2.732800 2.444610 8.521090
      vertex -3.720470 10.817700 6.759900
    endloop
  endfacet
  facet normal -0.184398 -0.410426 0.893055
    outer loop
      vertex 3.683580 -1.811250 -6.583990
      vertex -1.614010 -4.080090 -8.720540
      vertex 3.321740 -5.222500 -8.226430
    endloop
  endfacet
  facet normal 0.981674 -0.178434 0.066909
    outer loop
      vertex -10.037200 -1.242730 -3.210530
      vertex -9.945070 0.262897 -0.546985
      vertex -11.270000 -7.803640 -2.619900
    endloop
  endfacet
  facet normal -0.923598 0.091017 0.372402
    outer loop
      vertex 9.898730 6.941930 -2.530100
      vertex 8.675910 1.759540 -4.296230
      vertex 10.219300 4.663120 -1.178100
    endloop
  endfacet
  facet normal 0.969614 -0.090214 -0.227397
    outer loop
      vertex -9.945070 0.262897 -0.546985
      vertex -8.858050 2.083020 3.365950
      vertex -9.375570 -3.164370 3.241020
    endloop
  endfacet
  facet normal 0.304959 -0.161448 -0.938581
    outer loop
      vertex -3.720470 10.817700 6.759900
      vertex -2.732800 2.444610 8.521090
      vertex -4.667330 3.457390 7.718320
    endloop
  endfacet
  facet normal -0.435343 -0.388283 0.812227
    outer loop
      vertex 6.051510 -2.229180 -5.514600
      vertex 3.683580 -1.811250 -6.583990
      vertex 5.493620 -5.322630 -7.292440
    endloop
  endfacet
  facet normal -0.381623 -0.367807 0.847987
    outer loop
      vertex 3.683580 -1.811250 -6.583990
      vertex 3.321740 -5.222500 -8.226430
      vertex 5.493620 -5.322630 -7.292440
    endloop
  endfacet
  facet normal -0.812980 0.201030 0.546489
    outer loop
      vertex 8.675910 1.759540 -4.296230
      vertex 7.859560 -2.604010 -3.905500
      vertex 9.185450 -2.564160 -1.947710
    endloop
  endfacet
  facet normal -0.990420 0.046936 -0.129866
    outer loop
      vertex 10.219300 4.663120 -1.178100
      vertex 9.749290 -1.970280 0.008955
      vertex 9.915020 5.930790 1.600640
    endloop
  endfacet
  facet normal 0.931897 -0.083504 -0.352981
    outer loop
      vertex -8.858050 2.083020 3.365950
      vertex -8.735850 -5.550450 5.494400
      vertex -9.375570 -3.164370 3.241020
    endloop
  endfacet
  facet normal 0.842550 -0.132108 -0.522165
    outer loop
      vertex -8.858050 2.083020 3.365950
      vertex -7.612680 2.666550 5.227810
      vertex -8.735850 -5.550450 5.494400
    endloop
  endfacet
  facet normal -0.236047 -0.192314 -0.952522
    outer loop
      vertex 0.382745 10.001200 7.332460
      vertex 3.418310 10.353100 6.509160
      vertex 4.590810 2.886560 7.726090
    endloop
  endfacet
  facet normal -0.670353 -0.275161 0.689139
    outer loop
      vertex 7.859560 -2.604010 -3.905500
      vertex 6.051510 -2.229180 -5.514600
      vertex 5.493620 -5.322630 -7.292440
    endloop
  endfacet
  facet normal -0.852720 -0.011408 -0.522243
    outer loop
      vertex 8.523850 5.828450 3.874380
      vertex 9.915020 5.930790 1.600640
      vertex 9.117320 -1.521560 3.065910
    endloop
  endfacet
  facet normal -0.200642 -0.172032 -0.964442
    outer loop
      vertex 1.735860 1.916530 8.493060
      vertex 0.382745 10.001200 7.332460
      vertex 4.590810 2.886560 7.726090
    endloop
  endfacet
  facet normal -0.023446 -0.145904 -0.989021
    outer loop
      vertex -2.732800 2.444610 8.521090
      vertex 0.382745 10.001200 7.332460
      vertex 1.735860 1.916530 8.493060
    endloop
  endfacet
  facet normal -0.678353 -0.263915 0.685701
    outer loop
      vertex 5.493620 -5.322630 -7.292440
      vertex 7.283780 -6.454390 -5.957060
      vertex 7.859560 -2.604010 -3.905500
    endloop
  endfacet
  facet normal -0.923975 0.092660 0.371058
    outer loop
      vertex 8.675910 1.759540 -4.296230
      vertex 9.185450 -2.564160 -1.947710
      vertex 10.219300 4.663120 -1.178100
    endloop
  endfacet
  facet normal 0.711473 -0.119716 -0.692441
    outer loop
      vertex -8.735850 -5.550450 5.494400
      vertex -7.612680 2.666550 5.227810
      vertex -5.776730 1.449240 7.324680
    endloop
  endfacet
  facet normal 0.372464 -0.023911 -0.927738
    outer loop
      vertex -4.667330 3.457390 7.718320
      vertex -2.732800 2.444610 8.521090
      vertex -5.776730 1.449240 7.324680
    endloop
  endfacet
  facet normal -0.802592 -0.182572 0.567903
    outer loop
      vertex 7.283780 -6.454390 -5.957060
      vertex 8.991480 -5.581060 -3.262880
      vertex 7.859560 -2.604010 -3.905500
    endloop
  endfacet
  facet normal -0.811270 -0.189029 0.553271
    outer loop
      vertex 7.859560 -2.604010 -3.905500
      vertex 8.991480 -5.581060 -3.262880
      vertex 9.185450 -2.564160 -1.947710
    endloop
  endfacet
  facet normal -0.963388 0.111864 0.243661
    outer loop
      vertex 10.219300 4.663120 -1.178100
      vertex 9.185450 -2.564160 -1.947710
      vertex 9.749290 -1.970280 0.008955
    endloop
  endfacet
  facet normal -0.828321 -0.005259 -0.560229
    outer loop
      vertex 8.523850 5.828450 3.874380
      vertex 9.117320 -1.521560 3.065910
      vertex 7.292240 -0.247210 5.752400
    endloop
  endfacet
  facet normal -0.740017 -0.057138 -0.670156
    outer loop
      vertex 8.523850 5.828450 3.874380
      vertex 7.292240 -0.247210 5.752400
      vertex 6.480040 3.507460 6.329140
    endloop
  endfacet
  facet normal -0.975478 0.062948 -0.210902
    outer loop
      vertex 9.117320 -1.521560 3.065910
      vertex 9.915020 5.930790 1.600640
      vertex 9.749290 -1.970280 0.008955
    endloop
  endfacet
  facet normal 0.381429 -0.057493 -0.922608
    outer loop
      vertex -5.776730 1.449240 7.324680
      vertex -2.732800 2.444610 8.521090
      vertex -4.385700 -3.537390 8.210510
    endloop
  endfacet
  facet normal -0.244378 -0.046567 -0.968561
    outer loop
      vertex 1.735860 1.916530 8.493060
      vertex 4.590810 2.886560 7.726090
      vertex 3.687220 0.071242 8.089430
    endloop
  endfacet
  facet normal -0.953091 -0.067362 0.295092
    outer loop
      vertex 8.991480 -5.581060 -3.262880
      vertex 9.749290 -1.970280 0.008955
      vertex 9.185450 -2.564160 -1.947710
    endloop
  endfacet
  facet normal -0.654160 -0.025391 -0.755929
    outer loop
      vertex 7.292240 -0.247210 5.752400
      vertex 5.514900 -0.820887 7.309730
      vertex 6.480040 3.507460 6.329140
    endloop
  endfacet
  facet normal -0.582146 -0.053991 -0.811290
    outer loop
      vertex 6.480040 3.507460 6.329140
      vertex 5.514900 -0.820887 7.309730
      vertex 4.590810 2.886560 7.726090
    endloop
  endfacet
  facet normal -0.389797 0.006260 -0.920879
    outer loop
      vertex 5.514900 -0.820887 7.309730
      vertex 3.687220 0.071242 8.089430
      vertex 4.590810 2.886560 7.726090
    endloop
  endfacet
  facet normal 0.386869 -0.055593 -0.920457
    outer loop
      vertex -7.296500 -6.474970 7.164520
      vertex -5.776730 1.449240 7.324680
      vertex -4.385700 -3.537390 8.210510
    endloop
  endfacet
  facet normal -0.013989 -0.065418 -0.997760
    outer loop
      vertex 1.735860 1.916530 8.493060
      vertex -1.824050 -7.422310 9.155270
      vertex -2.732800 2.444610 8.521090
    endloop
  endfacet
  facet normal 0.300612 -0.033576 -0.953155
    outer loop
      vertex -4.385700 -3.537390 8.210510
      vertex -2.732800 2.444610 8.521090
      vertex -1.824050 -7.422310 9.155270
    endloop
  endfacet
  facet normal -0.197364 0.005721 -0.980314
    outer loop
      vertex 1.735860 1.916530 8.493060
      vertex 3.687220 0.071242 8.089430
      vertex -1.824050 -7.422310 9.155270
    endloop
  endfacet
  facet normal -0.372269 0.047442 -0.926912
    outer loop
      vertex 5.514900 -0.820887 7.309730
      vertex 5.670950 -5.346950 7.015400
      vertex 3.687220 0.071242 8.089430
    endloop
  endfacet
  facet normal -0.415946 0.179102 -0.891578
    outer loop
      vertex -1.824050 -7.422310 9.155270
      vertex 3.687220 0.071242 8.089430
      vertex 1.659170 -4.005340 8.216660
    endloop
  endfacet
  facet normal -0.255550 0.097112 -0.961906
    outer loop
      vertex 5.670950 -5.346950 7.015400
      vertex 1.659170 -4.005340 8.216660
      vertex 3.687220 0.071242 8.089430
    endloop
  endfacet
  facet normal -0.663492 0.025750 -0.747740
    outer loop
      vertex 5.514900 -0.820887 7.309730
      vertex 7.292240 -0.247210 5.752400
      vertex 5.670950 -5.346950 7.015400
    endloop
  endfacet
  facet normal 0.502944 -0.187328 0.843775
    outer loop
      vertex -8.290590 0.339419 -4.231820
      vertex -6.074360 0.164320 -5.591710
      vertex -5.270820 1.921040 -5.680660
    endloop
  endfacet
  facet normal -0.460986 -0.016642 0.887251
    outer loop
      vertex 6.710090 10.994900 -6.045360
      vertex 3.794080 13.901600 -7.505900
      vertex 1.778150 10.575300 -8.615700
    endloop
  endfacet
  facet normal 0.135102 -0.011630 0.990763
    outer loop
      vertex -6.074360 0.164320 -5.591710
      vertex -1.971680 0.530297 -6.146860
      vertex -5.270820 1.921040 -5.680660
    endloop
  endfacet
  facet normal 0.156492 -0.357955 0.920532
    outer loop
      vertex -1.971680 0.530297 -6.146860
      vertex -6.074360 0.164320 -5.591710
      vertex -2.214550 -1.208310 -6.781640
    endloop
  endfacet
  facet normal -0.460993 0.115909 0.879802
    outer loop
      vertex 3.517680 5.424530 -8.373620
      vertex 3.989930 2.575650 -7.750850
      vertex 6.939960 1.946300 -6.122200
    endloop
  endfacet
  facet normal 0.086116 -0.107229 0.990498
    outer loop
      vertex -1.054320 16.431400 -8.373010
      vertex -3.045810 16.274500 -8.216850
      vertex -1.860330 9.175290 -9.088460
    endloop
  endfacet
  facet normal 0.537691 -0.026825 0.842715
    outer loop
      vertex -8.538450 6.301510 -5.739950
      vertex -7.506930 4.432220 -6.457610
      vertex -3.831660 10.501500 -8.609410
    endloop
  endfacet
  facet normal 0.729004 0.145489 0.668869
    outer loop
      vertex -7.506930 4.432220 -6.457610
      vertex -8.538450 6.301510 -5.739950
      vertex -9.631330 3.679730 -3.978540
    endloop
  endfacet
  facet normal 0.336243 0.200873 0.920104
    outer loop
      vertex -8.514840 1.711790 -4.449480
      vertex -8.290590 0.339419 -4.231820
      vertex -5.270820 1.921040 -5.680660
    endloop
  endfacet
  facet normal 0.825115 0.217523 0.521410
    outer loop
      vertex -8.514840 1.711790 -4.449480
      vertex -9.087050 0.784941 -3.157310
      vertex -8.290590 0.339419 -4.231820
    endloop
  endfacet
  facet normal -0.701254 0.192655 0.686387
    outer loop
      vertex 8.675910 1.759540 -4.296230
      vertex 6.939960 1.946300 -6.122200
      vertex 7.859560 -2.604010 -3.905500
    endloop
  endfacet
  facet normal -0.119775 -0.517938 0.846991
    outer loop
      vertex -1.614010 -4.080090 -8.720540
      vertex 3.683580 -1.811250 -6.583990
      vertex 0.962559 -1.127840 -6.550870
    endloop
  endfacet
  facet normal -0.059817 -0.334966 0.940329
    outer loop
      vertex -2.214550 -1.208310 -6.781640
      vertex 0.962559 -1.127840 -6.550870
      vertex -1.971680 0.530297 -6.146860
    endloop
  endfacet
  facet normal -0.482829 0.302728 0.821725
    outer loop
      vertex 7.859560 -2.604010 -3.905500
      vertex 6.939960 1.946300 -6.122200
      vertex 5.867810 -0.217300 -5.955090
    endloop
  endfacet
  facet normal 0.701067 0.236776 0.672638
    outer loop
      vertex -7.506930 4.432220 -6.457610
      vertex -9.631330 3.679730 -3.978540
      vertex -8.514840 1.711790 -4.449480
    endloop
  endfacet
  facet normal -0.255524 -0.163084 0.952949
    outer loop
      vertex 3.794080 13.901600 -7.505900
      vertex -1.054320 16.431400 -8.373010
      vertex 1.778150 10.575300 -8.615700
    endloop
  endfacet
  facet normal -0.381767 0.164281 0.909542
    outer loop
      vertex 3.683580 -1.811250 -6.583990
      vertex 6.051510 -2.229180 -5.514600
      vertex 5.867810 -0.217300 -5.955090
    endloop
  endfacet
  facet normal -0.057703 0.204064 0.977255
    outer loop
      vertex 3.517680 5.424530 -8.373620
      vertex 1.000770 4.596700 -8.349370
      vertex 3.989930 2.575650 -7.750850
    endloop
  endfacet
  facet normal 0.057465 0.360677 0.930919
    outer loop
      vertex 2.822890 0.209801 -6.762180
      vertex 3.989930 2.575650 -7.750850
      vertex 1.000770 4.596700 -8.349370
    endloop
  endfacet
  facet normal -0.035684 0.137488 0.989860
    outer loop
      vertex -1.860330 9.175290 -9.088460
      vertex 1.000770 4.596700 -8.349370
      vertex 3.517680 5.424530 -8.373620
    endloop
  endfacet
  facet normal -0.419188 0.274564 0.865388
    outer loop
      vertex 6.939960 1.946300 -6.122200
      vertex 3.989930 2.575650 -7.750850
      vertex 5.867810 -0.217300 -5.955090
    endloop
  endfacet
  facet normal 0.320617 0.138085 0.937090
    outer loop
      vertex -1.860330 9.175290 -9.088460
      vertex -3.831660 10.501500 -8.609410
      vertex -7.506930 4.432220 -6.457610
    endloop
  endfacet
  facet normal 0.203330 0.278577 0.938644
    outer loop
      vertex -7.506930 4.432220 -6.457610
      vertex 1.000770 4.596700 -8.349370
      vertex -1.860330 9.175290 -9.088460
    endloop
  endfacet
  facet normal -0.095297 -0.087188 0.991623
    outer loop
      vertex -1.860330 9.175290 -9.088460
      vertex 1.778150 10.575300 -8.615700
      vertex -1.054320 16.431400 -8.373010
    endloop
  endfacet
  facet normal 0.038190 0.103889 0.993855
    outer loop
      vertex 2.822890 0.209801 -6.762180
      vertex 0.962559 -1.127840 -6.550870
      vertex 3.683580 -1.811250 -6.583990
    endloop
  endfacet
  facet normal 0.771267 0.303707 0.559382
    outer loop
      vertex -8.514840 1.711790 -4.449480
      vertex -9.631330 3.679730 -3.978540
      vertex -9.087050 0.784941 -3.157310
    endloop
  endfacet
  facet normal 0.278531 0.501455 0.819124
    outer loop
      vertex -8.514840 1.711790 -4.449480
      vertex -5.270820 1.921040 -5.680660
      vertex -7.506930 4.432220 -6.457610
    endloop
  endfacet
  facet normal 0.186991 0.438489 0.879069
    outer loop
      vertex -7.506930 4.432220 -6.457610
      vertex -5.270820 1.921040 -5.680660
      vertex 1.000770 4.596700 -8.349370
    endloop
  endfacet
  facet normal 0.126046 -0.018615 0.991850
    outer loop
      vertex 2.822890 0.209801 -6.762180
      vertex -1.971680 0.530297 -6.146860
      vertex 0.962559 -1.127840 -6.550870
    endloop
  endfacet
  facet normal -0.259455 -0.025374 0.965422
    outer loop
      vertex 2.822890 0.209801 -6.762180
      vertex 3.683580 -1.811250 -6.583990
      vertex 5.867810 -0.217300 -5.955090
    endloop
  endfacet
  facet normal -0.169308 0.449950 0.876858
    outer loop
      vertex 2.822890 0.209801 -6.762180
      vertex 5.867810 -0.217300 -5.955090
      vertex 3.989930 2.575650 -7.750850
    endloop
  endfacet
  facet normal -0.129885 0.002735 0.991525
    outer loop
      vertex -1.860330 9.175290 -9.088460
      vertex 3.517680 5.424530 -8.373620
      vertex 1.778150 10.575300 -8.615700
    endloop
  endfacet
  facet normal 0.205020 0.407175 0.890042
    outer loop
      vertex 1.000770 4.596700 -8.349370
      vertex -5.270820 1.921040 -5.680660
      vertex 2.822890 0.209801 -6.762180
    endloop
  endfacet
  facet normal 0.124824 -0.036264 0.991516
    outer loop
      vertex -1.971680 0.530297 -6.146860
      vertex 2.822890 0.209801 -6.762180
      vertex -5.270820 1.921040 -5.680660
    endloop
  endfacet
  facet normal 0.177098 -0.090747 0.980001
    outer loop
      vertex -1.860330 9.175290 -9.088460
      vertex -3.045810 16.274500 -8.216850
      vertex -3.831660 10.501500 -8.609410
    endloop
  endfacet
  facet normal -0.648759 0.105762 0.753609
    outer loop
      vertex 7.859560 -2.604010 -3.905500
      vertex 5.867810 -0.217300 -5.955090
      vertex 6.051510 -2.229180 -5.514600
    endloop
  endfacet
  facet normal 0.716828 -0.123610 -0.686206
    outer loop
      vertex -5.776730 1.449240 7.324680
      vertex -7.296500 -6.474970 7.164520
      vertex -8.735850 -5.550450 5.494400
    endloop
  endfacet
endsolid MYSOLID
