solid MYSOLID created by IVCON, original data in bone_1_11.iv
  facet normal 0.548826 -0.690376 0.471350
    outer loop
      vertex 3.939080 35.967602 -22.501801
      vertex 1.309500 32.203701 -24.952900
      vertex 5.674020 35.597698 -25.063700
    endloop
  endfacet
  facet normal 0.284539 -0.654778 0.700217
    outer loop
      vertex 1.309500 32.203701 -24.952900
      vertex 3.939080 35.967602 -22.501801
      vertex 0.847676 33.177101 -23.855000
    endloop
  endfacet
  facet normal 0.542809 -0.697201 0.468261
    outer loop
      vertex 5.674020 35.597698 -25.063700
      vertex 8.536470 39.508099 -22.559601
      vertex 3.939080 35.967602 -22.501801
    endloop
  endfacet
  facet normal 0.235244 -0.463073 0.854531
    outer loop
      vertex -6.845370 29.786800 -24.394400
      vertex -1.628870 38.537899 -21.088200
      vertex -5.815220 36.112999 -21.249800
    endloop
  endfacet
  facet normal 0.153965 -0.563992 0.811300
    outer loop
      vertex 0.847676 33.177101 -23.855000
      vertex 3.939080 35.967602 -22.501801
      vertex 2.834700 37.403099 -21.294300
    endloop
  endfacet
  facet normal -0.587525 0.127729 0.799062
    outer loop
      vertex -13.201600 46.913898 -23.027700
      vertex -15.747700 41.299400 -24.002300
      vertex -12.591800 44.183601 -22.142900
    endloop
  endfacet
  facet normal -0.083756 -0.487305 0.869206
    outer loop
      vertex 0.847676 33.177101 -23.855000
      vertex 2.834700 37.403099 -21.294300
      vertex -1.628870 38.537899 -21.088200
    endloop
  endfacet
  facet normal 0.136697 -0.298933 0.944432
    outer loop
      vertex -5.815220 36.112999 -21.249800
      vertex -1.628870 38.537899 -21.088200
      vertex -5.521910 40.497700 -19.904400
    endloop
  endfacet
  facet normal 0.421629 -0.535546 0.731723
    outer loop
      vertex 5.324630 39.939301 -20.393299
      vertex 3.939080 35.967602 -22.501801
      vertex 8.536470 39.508099 -22.559601
    endloop
  endfacet
  facet normal 0.228795 -0.517532 0.824508
    outer loop
      vertex 3.939080 35.967602 -22.501801
      vertex 5.324630 39.939301 -20.393299
      vertex 2.834700 37.403099 -21.294300
    endloop
  endfacet
  facet normal -0.580601 -0.207892 0.787200
    outer loop
      vertex -6.718070 36.919701 -20.998199
      vertex -7.088240 41.189899 -20.143499
      vertex -9.195520 37.529900 -22.664301
    endloop
  endfacet
  facet normal -0.627255 -0.163327 0.761496
    outer loop
      vertex -7.088240 41.189899 -20.143499
      vertex -7.680380 44.806301 -19.855600
      vertex -9.195520 37.529900 -22.664301
    endloop
  endfacet
  facet normal 0.097777 -0.360008 0.927812
    outer loop
      vertex 8.536470 39.508099 -22.559601
      vertex 16.538601 40.991798 -22.827200
      vertex 14.628200 48.046299 -19.888599
    endloop
  endfacet
  facet normal 0.066020 -0.368402 0.927319
    outer loop
      vertex 14.628200 48.046299 -19.888599
      vertex 16.538601 40.991798 -22.827200
      vertex 20.066000 43.550800 -22.061701
    endloop
  endfacet
  facet normal -0.347761 -0.063941 0.935400
    outer loop
      vertex -13.201600 46.913898 -23.027700
      vertex -11.785300 51.042999 -22.218901
      vertex -14.643100 48.056702 -23.485500
    endloop
  endfacet
  facet normal 0.120434 -0.338781 0.933125
    outer loop
      vertex -14.539800 51.044998 -22.413900
      vertex -16.023701 52.503101 -21.693001
      vertex -14.643100 48.056702 -23.485500
    endloop
  endfacet
  facet normal 0.004068 -0.293587 0.955924
    outer loop
      vertex -6.718070 36.919701 -20.998199
      vertex -5.815220 36.112999 -21.249800
      vertex -5.521910 40.497700 -19.904400
    endloop
  endfacet
  facet normal -0.237737 -0.210409 0.948267
    outer loop
      vertex -7.088240 41.189899 -20.143499
      vertex -6.718070 36.919701 -20.998199
      vertex -5.521910 40.497700 -19.904400
    endloop
  endfacet
  facet normal -0.664673 0.091834 0.741469
    outer loop
      vertex -12.591800 44.183601 -22.142900
      vertex -10.033800 46.814602 -20.175699
      vertex -13.201600 46.913898 -23.027700
    endloop
  endfacet
  facet normal -0.182875 -0.319420 0.929800
    outer loop
      vertex 19.163300 51.203400 -19.610300
      vertex 20.066000 43.550800 -22.061701
      vertex 21.352800 48.060398 -20.259399
    endloop
  endfacet
  facet normal 0.141524 -0.286816 0.947474
    outer loop
      vertex 14.628200 48.046299 -19.888599
      vertex 20.066000 43.550800 -22.061701
      vertex 19.163300 51.203400 -19.610300
    endloop
  endfacet
  facet normal -0.066784 -0.334752 0.939937
    outer loop
      vertex -14.539800 51.044998 -22.413900
      vertex -14.643100 48.056702 -23.485500
      vertex -11.785300 51.042999 -22.218901
    endloop
  endfacet
  facet normal 0.069408 -0.393765 0.916587
    outer loop
      vertex 2.834700 37.403099 -21.294300
      vertex 5.324630 39.939301 -20.393299
      vertex 4.680980 42.111000 -19.411600
    endloop
  endfacet
  facet normal -0.047119 -0.354914 0.933711
    outer loop
      vertex -1.628870 38.537899 -21.088200
      vertex 2.834700 37.403099 -21.294300
      vertex 4.680980 42.111000 -19.411600
    endloop
  endfacet
  facet normal 0.186247 -0.209813 0.959839
    outer loop
      vertex -5.521910 40.497700 -19.904400
      vertex -1.628870 38.537899 -21.088200
      vertex -2.624100 43.502800 -19.809799
    endloop
  endfacet
  facet normal 0.439085 -0.495295 0.749592
    outer loop
      vertex 7.532620 43.817699 -19.124001
      vertex 5.324630 39.939301 -20.393299
      vertex 8.536470 39.508099 -22.559601
    endloop
  endfacet
  facet normal -0.016265 -0.287933 0.957512
    outer loop
      vertex 8.536470 39.508099 -22.559601
      vertex 14.628200 48.046299 -19.888599
      vertex 14.188400 50.018200 -19.303101
    endloop
  endfacet
  facet normal 0.468443 -0.481442 0.740793
    outer loop
      vertex 14.188400 50.018200 -19.303101
      vertex 7.532620 43.817699 -19.124001
      vertex 8.536470 39.508099 -22.559601
    endloop
  endfacet
  facet normal -0.614696 0.371685 0.695701
    outer loop
      vertex -10.033800 46.814602 -20.175699
      vertex -8.541500 48.149799 -19.570499
      vertex -13.201600 46.913898 -23.027700
    endloop
  endfacet
  facet normal -0.618232 0.306551 0.723751
    outer loop
      vertex -8.541500 48.149799 -19.570499
      vertex -9.044640 50.716900 -21.087601
      vertex -13.201600 46.913898 -23.027700
    endloop
  endfacet
  facet normal -0.385994 -0.048055 0.921249
    outer loop
      vertex -11.785300 51.042999 -22.218901
      vertex -13.201600 46.913898 -23.027700
      vertex -9.044640 50.716900 -21.087601
    endloop
  endfacet
  facet normal -0.417425 0.312682 0.853221
    outer loop
      vertex -16.023701 52.503101 -21.693001
      vertex -14.272000 54.173599 -21.448200
      vertex -15.949100 56.448002 -23.102200
    endloop
  endfacet
  facet normal 0.132214 -0.375493 0.917346
    outer loop
      vertex 5.324630 39.939301 -20.393299
      vertex 7.532620 43.817699 -19.124001
      vertex 4.680980 42.111000 -19.411600
    endloop
  endfacet
  facet normal -0.103164 -0.267367 0.958056
    outer loop
      vertex -1.628870 38.537899 -21.088200
      vertex 4.680980 42.111000 -19.411600
      vertex -2.624100 43.502800 -19.809799
    endloop
  endfacet
  facet normal -0.197254 -0.109851 0.974178
    outer loop
      vertex -7.088240 41.189899 -20.143499
      vertex -5.521910 40.497700 -19.904400
      vertex -7.680380 44.806301 -19.855600
    endloop
  endfacet
  facet normal -0.354084 0.196301 0.914380
    outer loop
      vertex -9.044640 50.716900 -21.087601
      vertex -7.733920 53.589802 -21.196800
      vertex -11.785300 51.042999 -22.218901
    endloop
  endfacet
  facet normal -0.069809 -0.161191 0.984451
    outer loop
      vertex -14.539800 51.044998 -22.413900
      vertex -11.785300 51.042999 -22.218901
      vertex -10.007000 53.871300 -21.629700
    endloop
  endfacet
  facet normal 0.019625 -0.296414 0.954858
    outer loop
      vertex -14.272000 54.173599 -21.448200
      vertex -14.539800 51.044998 -22.413900
      vertex -10.007000 53.871300 -21.629700
    endloop
  endfacet
  facet normal 0.158182 -0.303562 0.939590
    outer loop
      vertex -16.023701 52.503101 -21.693001
      vertex -14.539800 51.044998 -22.413900
      vertex -14.272000 54.173599 -21.448200
    endloop
  endfacet
  facet normal -0.379213 0.344815 0.858662
    outer loop
      vertex -15.949100 56.448002 -23.102200
      vertex -14.272000 54.173599 -21.448200
      vertex -12.358700 56.231701 -21.429701
    endloop
  endfacet
  facet normal -0.358408 0.435556 0.825733
    outer loop
      vertex -13.121900 58.014400 -22.701300
      vertex -15.949100 56.448002 -23.102200
      vertex -12.358700 56.231701 -21.429701
    endloop
  endfacet
  facet normal -0.266216 0.241674 0.933125
    outer loop
      vertex -11.389200 61.425800 -23.090500
      vertex -15.949100 56.448002 -23.102200
      vertex -13.121900 58.014400 -22.701300
    endloop
  endfacet
  facet normal 0.490034 -0.505503 0.710164
    outer loop
      vertex 7.532620 43.817699 -19.124001
      vertex 14.188400 50.018200 -19.303101
      vertex 9.876290 46.945499 -18.514799
    endloop
  endfacet
  facet normal -0.255676 -0.147323 0.955471
    outer loop
      vertex -8.541500 48.149799 -19.570499
      vertex -10.033800 46.814602 -20.175699
      vertex -7.680380 44.806301 -19.855600
    endloop
  endfacet
  facet normal -0.196068 -0.080315 0.977296
    outer loop
      vertex -11.785300 51.042999 -22.218901
      vertex -7.733920 53.589802 -21.196800
      vertex -10.007000 53.871300 -21.629700
    endloop
  endfacet
  facet normal 0.034699 -0.178892 0.983257
    outer loop
      vertex 19.163300 51.203400 -19.610300
      vertex 21.352800 48.060398 -20.259399
      vertex 23.040501 51.272800 -19.734501
    endloop
  endfacet
  facet normal 0.028737 -0.184406 0.982430
    outer loop
      vertex -12.068100 55.209099 -21.318300
      vertex -14.272000 54.173599 -21.448200
      vertex -10.007000 53.871300 -21.629700
    endloop
  endfacet
  facet normal -0.096383 0.080685 0.992069
    outer loop
      vertex -14.272000 54.173599 -21.448200
      vertex -12.068100 55.209099 -21.318300
      vertex -12.358700 56.231701 -21.429701
    endloop
  endfacet
  facet normal -0.077585 -0.124196 0.989220
    outer loop
      vertex -2.624100 43.502800 -19.809799
      vertex 4.680980 42.111000 -19.411600
      vertex 1.344910 47.158001 -19.039600
    endloop
  endfacet
  facet normal 0.004254 -0.070710 0.997488
    outer loop
      vertex 4.680980 42.111000 -19.411600
      vertex 5.088390 48.793900 -18.939600
      vertex 1.344910 47.158001 -19.039600
    endloop
  endfacet
  facet normal 0.066139 -0.095046 0.993273
    outer loop
      vertex -5.521910 40.497700 -19.904400
      vertex -2.624100 43.502800 -19.809799
      vertex -6.633310 49.076401 -19.009501
    endloop
  endfacet
  facet normal -0.240763 -0.131506 0.961634
    outer loop
      vertex -7.680380 44.806301 -19.855600
      vertex -5.521910 40.497700 -19.904400
      vertex -6.633310 49.076401 -19.009501
    endloop
  endfacet
  facet normal -0.114776 -0.083942 0.989838
    outer loop
      vertex -3.079620 47.868401 -19.492399
      vertex -2.624100 43.502800 -19.809799
      vertex 1.344910 47.158001 -19.039600
    endloop
  endfacet
  facet normal 0.114295 -0.060170 0.991623
    outer loop
      vertex -2.624100 43.502800 -19.809799
      vertex -3.079620 47.868401 -19.492399
      vertex -6.633310 49.076401 -19.009501
    endloop
  endfacet
  facet normal -0.216953 -0.138276 0.966339
    outer loop
      vertex -8.541500 48.149799 -19.570499
      vertex -7.680380 44.806301 -19.855600
      vertex -6.633310 49.076401 -19.009501
    endloop
  endfacet
  facet normal -0.565138 0.334830 0.753995
    outer loop
      vertex -8.541500 48.149799 -19.570499
      vertex -6.160520 51.269100 -19.171101
      vertex -9.044640 50.716900 -21.087601
    endloop
  endfacet
  facet normal 0.035415 -0.244249 0.969066
    outer loop
      vertex 23.040501 51.272800 -19.734501
      vertex 20.712099 53.697399 -19.038300
      vertex 19.163300 51.203400 -19.610300
    endloop
  endfacet
  facet normal -0.341481 0.005347 0.939873
    outer loop
      vertex -10.404600 57.651199 -20.727800
      vertex -12.358700 56.231701 -21.429701
      vertex -12.068100 55.209099 -21.318300
    endloop
  endfacet
  facet normal 0.010131 -0.266974 0.963650
    outer loop
      vertex 23.040501 51.272800 -19.734501
      vertex 24.856400 52.730301 -19.349800
      vertex 20.712099 53.697399 -19.038300
    endloop
  endfacet
  facet normal -0.182321 0.128684 0.974782
    outer loop
      vertex -12.536100 66.623497 -23.944799
      vertex -8.831740 71.949898 -23.955099
      vertex -10.823800 73.099098 -24.479401
    endloop
  endfacet
  facet normal 0.041821 -0.233576 0.971439
    outer loop
      vertex 4.680980 42.111000 -19.411600
      vertex 7.532620 43.817699 -19.124001
      vertex 7.487170 46.261700 -18.534401
    endloop
  endfacet
  facet normal -0.222654 -0.055171 0.973335
    outer loop
      vertex 5.088390 48.793900 -18.939600
      vertex 4.680980 42.111000 -19.411600
      vertex 7.487170 46.261700 -18.534401
    endloop
  endfacet
  facet normal -0.557644 0.412474 0.720346
    outer loop
      vertex -5.253880 54.486599 -20.311600
      vertex -9.044640 50.716900 -21.087601
      vertex -6.160520 51.269100 -19.171101
    endloop
  endfacet
  facet normal 0.125426 -0.256580 0.958350
    outer loop
      vertex 14.628200 48.046299 -19.888599
      vertex 17.077101 52.108601 -19.121500
      vertex 14.188400 50.018200 -19.303101
    endloop
  endfacet
  facet normal -0.396267 0.214722 0.892674
    outer loop
      vertex -7.733920 53.589802 -21.196800
      vertex -9.044640 50.716900 -21.087601
      vertex -5.253880 54.486599 -20.311600
    endloop
  endfacet
  facet normal 0.116053 -0.251411 0.960898
    outer loop
      vertex 17.077101 52.108601 -19.121500
      vertex 14.628200 48.046299 -19.888599
      vertex 19.163300 51.203400 -19.610300
    endloop
  endfacet
  facet normal -0.008723 -0.232948 0.972450
    outer loop
      vertex -10.007000 53.871300 -21.629700
      vertex -5.449550 58.425800 -20.497801
      vertex -10.404600 57.651199 -20.727800
    endloop
  endfacet
  facet normal -0.003953 -0.232480 0.972593
    outer loop
      vertex -12.068100 55.209099 -21.318300
      vertex -10.007000 53.871300 -21.629700
      vertex -10.404600 57.651199 -20.727800
    endloop
  endfacet
  facet normal -0.524175 0.334289 0.783256
    outer loop
      vertex -13.121900 58.014400 -22.701300
      vertex -12.358700 56.231701 -21.429701
      vertex -10.404600 57.651199 -20.727800
    endloop
  endfacet
  facet normal -0.518677 0.352318 0.779003
    outer loop
      vertex -13.121900 58.014400 -22.701300
      vertex -10.404600 57.651199 -20.727800
      vertex -11.389200 61.425800 -23.090500
    endloop
  endfacet
  facet normal -0.289916 0.092593 0.952562
    outer loop
      vertex -11.389200 61.425800 -23.090500
      vertex -8.357950 68.134102 -22.820000
      vertex -12.536100 66.623497 -23.944799
    endloop
  endfacet
  facet normal -0.206797 0.086167 0.974582
    outer loop
      vertex -8.831740 71.949898 -23.955099
      vertex -8.207710 75.944901 -24.175900
      vertex -10.823800 73.099098 -24.479401
    endloop
  endfacet
  facet normal 0.058746 -0.233078 0.970682
    outer loop
      vertex 7.532620 43.817699 -19.124001
      vertex 9.876290 46.945499 -18.514799
      vertex 7.487170 46.261700 -18.534401
    endloop
  endfacet
  facet normal -0.133352 -0.213718 0.967751
    outer loop
      vertex -3.079620 47.868401 -19.492399
      vertex 1.344910 47.158001 -19.039600
      vertex -4.295830 51.445599 -18.870001
    endloop
  endfacet
  facet normal 0.085564 -0.142480 0.986092
    outer loop
      vertex -6.633310 49.076401 -19.009501
      vertex -3.079620 47.868401 -19.492399
      vertex -4.295830 51.445599 -18.870001
    endloop
  endfacet
  facet normal -0.342133 0.142224 0.928826
    outer loop
      vertex -6.160520 51.269100 -19.171101
      vertex -8.541500 48.149799 -19.570499
      vertex -6.633310 49.076401 -19.009501
    endloop
  endfacet
  facet normal -0.344752 0.027227 0.938299
    outer loop
      vertex -7.733920 53.589802 -21.196800
      vertex -5.253880 54.486599 -20.311600
      vertex -5.449550 58.425800 -20.497801
    endloop
  endfacet
  facet normal -0.192880 -0.050528 0.979921
    outer loop
      vertex -10.007000 53.871300 -21.629700
      vertex -7.733920 53.589802 -21.196800
      vertex -5.449550 58.425800 -20.497801
    endloop
  endfacet
  facet normal -0.429901 0.395811 0.811491
    outer loop
      vertex -7.125400 60.974800 -20.611700
      vertex -11.389200 61.425800 -23.090500
      vertex -10.404600 57.651199 -20.727800
    endloop
  endfacet
  facet normal -0.330001 0.231276 0.915210
    outer loop
      vertex -12.536100 66.623497 -23.944799
      vertex -8.357950 68.134102 -22.820000
      vertex -8.831740 71.949898 -23.955099
    endloop
  endfacet
  facet normal -0.168471 0.108530 0.979713
    outer loop
      vertex -4.295830 51.445599 -18.870001
      vertex -6.160520 51.269100 -19.171101
      vertex -6.633310 49.076401 -19.009501
    endloop
  endfacet
  facet normal -0.182229 0.373724 0.909463
    outer loop
      vertex -6.160520 51.269100 -19.171101
      vertex -4.295830 51.445599 -18.870001
      vertex -5.253880 54.486599 -20.311600
    endloop
  endfacet
  facet normal 0.101306 -0.281742 0.954127
    outer loop
      vertex 19.163300 51.203400 -19.610300
      vertex 20.712099 53.697399 -19.038300
      vertex 17.077101 52.108601 -19.121500
    endloop
  endfacet
  facet normal -0.027430 -0.119229 0.992488
    outer loop
      vertex -10.404600 57.651199 -20.727800
      vertex -5.449550 58.425800 -20.497801
      vertex -7.062410 59.850700 -20.371201
    endloop
  endfacet
  facet normal -0.227875 0.191482 0.954677
    outer loop
      vertex -7.062410 59.850700 -20.371201
      vertex -7.125400 60.974800 -20.611700
      vertex -10.404600 57.651199 -20.727800
    endloop
  endfacet
  facet normal -0.180594 0.041980 0.982661
    outer loop
      vertex -8.357950 68.134102 -22.820000
      vertex -11.389200 61.425800 -23.090500
      vertex -5.734980 65.572197 -22.228500
    endloop
  endfacet
  facet normal -0.507292 0.187243 0.841186
    outer loop
      vertex -8.831740 71.949898 -23.955099
      vertex -8.357950 68.134102 -22.820000
      vertex -4.409210 74.994400 -21.965700
    endloop
  endfacet
  facet normal 0.022961 -0.113262 0.993300
    outer loop
      vertex 1.344910 47.158001 -19.039600
      vertex 5.088390 48.793900 -18.939600
      vertex 2.405510 52.984901 -18.399700
    endloop
  endfacet
  facet normal -0.090988 -0.158592 0.983143
    outer loop
      vertex -4.295830 51.445599 -18.870001
      vertex 1.344910 47.158001 -19.039600
      vertex 0.186006 52.780998 -18.239799
    endloop
  endfacet
  facet normal 0.408344 -0.357584 0.839874
    outer loop
      vertex 9.876290 46.945499 -18.514799
      vertex 14.188400 50.018200 -19.303101
      vertex 14.309000 53.311699 -17.959499
    endloop
  endfacet
  facet normal -0.238981 0.353450 0.904412
    outer loop
      vertex -5.253880 54.486599 -20.311600
      vertex -4.295830 51.445599 -18.870001
      vertex -2.234400 52.458401 -18.721100
    endloop
  endfacet
  facet normal -0.195358 0.408392 0.891656
    outer loop
      vertex -2.234400 52.458401 -18.721100
      vertex -2.090390 55.517799 -20.090799
      vertex -5.253880 54.486599 -20.311600
    endloop
  endfacet
  facet normal -0.096171 0.082640 0.991928
    outer loop
      vertex -1.550770 59.899101 -20.403500
      vertex -5.253880 54.486599 -20.311600
      vertex -2.090390 55.517799 -20.090799
    endloop
  endfacet
  facet normal -0.041198 0.045134 0.998131
    outer loop
      vertex -5.253880 54.486599 -20.311600
      vertex -1.550770 59.899101 -20.403500
      vertex -5.449550 58.425800 -20.497801
    endloop
  endfacet
  facet normal -0.425000 0.411988 0.806003
    outer loop
      vertex -7.125400 60.974800 -20.611700
      vertex -5.734980 65.572197 -22.228500
      vertex -11.389200 61.425800 -23.090500
    endloop
  endfacet
  facet normal -0.250762 -0.033367 0.967473
    outer loop
      vertex -5.007350 71.438004 -21.837601
      vertex -8.357950 68.134102 -22.820000
      vertex -5.734980 65.572197 -22.228500
    endloop
  endfacet
  facet normal -0.364982 0.094746 0.926181
    outer loop
      vertex -8.357950 68.134102 -22.820000
      vertex -5.007350 71.438004 -21.837601
      vertex -4.409210 74.994400 -21.965700
    endloop
  endfacet
  facet normal -0.476058 0.122492 0.870842
    outer loop
      vertex -4.409210 74.994400 -21.965700
      vertex -8.207710 75.944901 -24.175900
      vertex -8.831740 71.949898 -23.955099
    endloop
  endfacet
  facet normal 0.032788 -0.142914 0.989192
    outer loop
      vertex 7.487170 46.261700 -18.534401
      vertex 9.876290 46.945499 -18.514799
      vertex 9.831030 49.716202 -18.113001
    endloop
  endfacet
  facet normal 0.070852 -0.142021 0.987325
    outer loop
      vertex 9.876290 46.945499 -18.514799
      vertex 11.920000 50.274502 -18.182600
      vertex 9.831030 49.716202 -18.113001
    endloop
  endfacet
  facet normal -0.170902 -0.004234 0.985279
    outer loop
      vertex 7.487170 46.261700 -18.534401
      vertex 9.831030 49.716202 -18.113001
      vertex 5.088390 48.793900 -18.939600
    endloop
  endfacet
  facet normal 0.148081 -0.187802 0.970980
    outer loop
      vertex 11.920000 50.274502 -18.182600
      vertex 9.876290 46.945499 -18.514799
      vertex 14.309000 53.311699 -17.959499
    endloop
  endfacet
  facet normal 0.082601 -0.123632 0.988884
    outer loop
      vertex 0.186006 52.780998 -18.239799
      vertex 1.344910 47.158001 -19.039600
      vertex 2.405510 52.984901 -18.399700
    endloop
  endfacet
  facet normal -0.225916 0.324800 0.918405
    outer loop
      vertex -4.295830 51.445599 -18.870001
      vertex 0.186006 52.780998 -18.239799
      vertex -2.234400 52.458401 -18.721100
    endloop
  endfacet
  facet normal 0.215153 -0.375630 0.901450
    outer loop
      vertex 14.188400 50.018200 -19.303101
      vertex 17.077101 52.108601 -19.121500
      vertex 14.309000 53.311699 -17.959499
    endloop
  endfacet
  facet normal -0.230015 0.406662 0.884149
    outer loop
      vertex -2.234400 52.458401 -18.721100
      vertex 0.186006 52.780998 -18.239799
      vertex -2.090390 55.517799 -20.090799
    endloop
  endfacet
  facet normal -0.308331 0.343511 0.887092
    outer loop
      vertex -2.090390 55.517799 -20.090799
      vertex 0.186006 52.780998 -18.239799
      vertex 1.866700 57.802700 -19.600201
    endloop
  endfacet
  facet normal 0.001876 -0.086393 0.996259
    outer loop
      vertex -7.062410 59.850700 -20.371201
      vertex -5.449550 58.425800 -20.497801
      vertex -4.970490 62.433102 -20.151199
    endloop
  endfacet
  facet normal -0.449474 0.414265 0.791428
    outer loop
      vertex -4.970490 62.433102 -20.151199
      vertex -5.734980 65.572197 -22.228500
      vertex -7.125400 60.974800 -20.611700
    endloop
  endfacet
  facet normal 0.051456 -0.169266 0.984226
    outer loop
      vertex 19.008400 55.898998 -18.570601
      vertex 17.077101 52.108601 -19.121500
      vertex 20.712099 53.697399 -19.038300
    endloop
  endfacet
  facet normal -0.174358 0.091449 0.980427
    outer loop
      vertex -1.550770 59.899101 -20.403500
      vertex -2.090390 55.517799 -20.090799
      vertex 1.866700 57.802700 -19.600201
    endloop
  endfacet
  facet normal 0.008865 -0.087219 0.996150
    outer loop
      vertex -4.970490 62.433102 -20.151199
      vertex -5.449550 58.425800 -20.497801
      vertex -1.550770 59.899101 -20.403500
    endloop
  endfacet
  facet normal -0.321077 0.180898 0.929616
    outer loop
      vertex -7.125400 60.974800 -20.611700
      vertex -7.062410 59.850700 -20.371201
      vertex -4.970490 62.433102 -20.151199
    endloop
  endfacet
  facet normal -0.136289 -0.049032 0.989455
    outer loop
      vertex -2.100200 69.925797 -21.512100
      vertex -5.007350 71.438004 -21.837601
      vertex -5.734980 65.572197 -22.228500
    endloop
  endfacet
  facet normal -0.490459 0.061361 0.869302
    outer loop
      vertex -8.207710 75.944901 -24.175900
      vertex -4.409210 74.994400 -21.965700
      vertex -4.381740 77.887299 -22.154400
    endloop
  endfacet
  facet normal 0.099181 -0.251066 0.962875
    outer loop
      vertex 9.831030 49.716202 -18.113001
      vertex 11.920000 50.274502 -18.182600
      vertex 11.790500 52.892601 -17.486601
    endloop
  endfacet
  facet normal 0.217661 -0.240688 0.945882
    outer loop
      vertex 11.920000 50.274502 -18.182600
      vertex 14.309000 53.311699 -17.959499
      vertex 11.790500 52.892601 -17.486601
    endloop
  endfacet
  facet normal -0.151893 -0.100212 0.983304
    outer loop
      vertex 5.088390 48.793900 -18.939600
      vertex 9.831030 49.716202 -18.113001
      vertex 11.790500 52.892601 -17.486601
    endloop
  endfacet
  facet normal 0.052611 -0.094390 0.994144
    outer loop
      vertex 5.088390 48.793900 -18.939600
      vertex 5.773140 55.015701 -18.385099
      vertex 2.405510 52.984901 -18.399700
    endloop
  endfacet
  facet normal 0.084525 -0.147252 0.985481
    outer loop
      vertex 0.186006 52.780998 -18.239799
      vertex 2.405510 52.984901 -18.399700
      vertex 5.773140 55.015701 -18.385099
    endloop
  endfacet
  facet normal -0.090623 0.288547 0.953167
    outer loop
      vertex 1.866700 57.802700 -19.600201
      vertex 0.186006 52.780998 -18.239799
      vertex 5.773140 55.015701 -18.385099
    endloop
  endfacet
  facet normal 0.054839 -0.085433 0.994834
    outer loop
      vertex 20.712099 53.697399 -19.038300
      vertex 24.856400 52.730301 -19.349800
      vertex 21.380301 57.865398 -18.717199
    endloop
  endfacet
  facet normal 0.050690 -0.030983 0.998234
    outer loop
      vertex -1.550770 59.899101 -20.403500
      vertex -2.584460 64.812798 -20.198500
      vertex -4.970490 62.433102 -20.151199
    endloop
  endfacet
  facet normal -0.413321 0.430371 0.802463
    outer loop
      vertex -2.584460 64.812798 -20.198500
      vertex -5.734980 65.572197 -22.228500
      vertex -4.970490 62.433102 -20.151199
    endloop
  endfacet
  facet normal -0.171024 -0.068773 0.982864
    outer loop
      vertex 5.088390 48.793900 -18.939600
      vertex 11.790500 52.892601 -17.486601
      vertex 5.773140 55.015701 -18.385099
    endloop
  endfacet
  facet normal -0.159129 -0.033441 0.986691
    outer loop
      vertex 11.790500 52.892601 -17.486601
      vertex 11.037200 56.025799 -17.501900
      vertex 5.773140 55.015701 -18.385099
    endloop
  endfacet
  facet normal 0.269715 -0.271695 0.923816
    outer loop
      vertex 17.077101 52.108601 -19.121500
      vertex 19.008400 55.898998 -18.570601
      vertex 14.309000 53.311699 -17.959499
    endloop
  endfacet
  facet normal 0.008516 0.409648 0.912204
    outer loop
      vertex 5.773140 55.015701 -18.385099
      vertex 5.939360 59.789398 -20.530399
      vertex 1.866700 57.802700 -19.600201
    endloop
  endfacet
  facet normal 0.142739 -0.098754 0.984821
    outer loop
      vertex 20.712099 53.697399 -19.038300
      vertex 21.380301 57.865398 -18.717199
      vertex 19.008400 55.898998 -18.570601
    endloop
  endfacet
  facet normal 0.210741 0.239941 0.947637
    outer loop
      vertex 5.939360 59.789398 -20.530399
      vertex 5.495140 62.810299 -21.196501
      vertex 1.552800 62.159901 -20.155100
    endloop
  endfacet
  facet normal 0.157127 0.135894 0.978184
    outer loop
      vertex 1.552800 62.159901 -20.155100
      vertex 1.866700 57.802700 -19.600201
      vertex 5.939360 59.789398 -20.530399
    endloop
  endfacet
  facet normal -0.160978 0.113264 0.980437
    outer loop
      vertex 1.866700 57.802700 -19.600201
      vertex 1.552800 62.159901 -20.155100
      vertex -1.550770 59.899101 -20.403500
    endloop
  endfacet
  facet normal -0.042954 -0.050664 0.997792
    outer loop
      vertex -1.550770 59.899101 -20.403500
      vertex 1.552800 62.159901 -20.155100
      vertex -2.584460 64.812798 -20.198500
    endloop
  endfacet
  facet normal -0.477697 0.260776 0.838929
    outer loop
      vertex -2.584460 64.812798 -20.198500
      vertex -2.100200 69.925797 -21.512100
      vertex -5.734980 65.572197 -22.228500
    endloop
  endfacet
  facet normal 0.222983 -0.178666 0.958310
    outer loop
      vertex 19.008400 55.898998 -18.570601
      vertex 15.794100 56.771599 -17.660000
      vertex 14.309000 53.311699 -17.959499
    endloop
  endfacet
  facet normal 0.247819 0.047244 0.967654
    outer loop
      vertex 1.552800 62.159901 -20.155100
      vertex 5.495140 62.810299 -21.196501
      vertex 1.316240 69.080498 -20.432400
    endloop
  endfacet
  facet normal -0.004241 0.009745 0.999943
    outer loop
      vertex 1.552800 62.159901 -20.155100
      vertex -0.203286 67.583298 -20.215401
      vertex -2.584460 64.812798 -20.198500
    endloop
  endfacet
  facet normal -0.120034 -0.017100 0.992622
    outer loop
      vertex -2.100200 69.925797 -21.512100
      vertex 0.912683 75.606499 -21.049900
      vertex -5.007350 71.438004 -21.837601
    endloop
  endfacet
  facet normal -0.176493 0.065060 0.982149
    outer loop
      vertex -5.007350 71.438004 -21.837601
      vertex 0.912683 75.606499 -21.049900
      vertex -4.409210 74.994400 -21.965700
    endloop
  endfacet
  facet normal 0.209526 -0.173238 0.962335
    outer loop
      vertex 11.790500 52.892601 -17.486601
      vertex 14.309000 53.311699 -17.959499
      vertex 15.794100 56.771599 -17.660000
    endloop
  endfacet
  facet normal -0.194043 0.165837 0.966874
    outer loop
      vertex 11.053000 57.750801 -17.794600
      vertex 5.773140 55.015701 -18.385099
      vertex 11.037200 56.025799 -17.501900
    endloop
  endfacet
  facet normal -0.303615 0.399335 0.865072
    outer loop
      vertex 5.939360 59.789398 -20.530399
      vertex 5.773140 55.015701 -18.385099
      vertex 11.053000 57.750801 -17.794600
    endloop
  endfacet
  facet normal 0.187422 -0.153742 0.970173
    outer loop
      vertex 21.380301 57.865398 -18.717199
      vertex 18.807400 59.312099 -17.990900
      vertex 19.008400 55.898998 -18.570601
    endloop
  endfacet
  facet normal -0.220985 0.306377 0.925905
    outer loop
      vertex 5.939360 59.789398 -20.530399
      vertex 11.010200 61.695599 -19.950899
      vertex 11.002600 65.062798 -21.066900
    endloop
  endfacet
  facet normal -0.104507 0.199467 0.974316
    outer loop
      vertex 5.939360 59.789398 -20.530399
      vertex 11.002600 65.062798 -21.066900
      vertex 5.495140 62.810299 -21.196501
    endloop
  endfacet
  facet normal 0.099372 0.043230 0.994111
    outer loop
      vertex 1.316240 69.080498 -20.432400
      vertex -0.203286 67.583298 -20.215401
      vertex 1.552800 62.159901 -20.155100
    endloop
  endfacet
  facet normal 0.239977 0.041745 0.969881
    outer loop
      vertex 5.495140 62.810299 -21.196501
      vertex 6.905400 73.584900 -22.009199
      vertex 1.316240 69.080498 -20.432400
    endloop
  endfacet
  facet normal -0.300581 0.263933 0.916510
    outer loop
      vertex -2.584460 64.812798 -20.198500
      vertex -0.203286 67.583298 -20.215401
      vertex -2.100200 69.925797 -21.512100
    endloop
  endfacet
  facet normal -0.205396 0.341395 0.917203
    outer loop
      vertex -0.203286 67.583298 -20.215401
      vertex 1.316240 69.080498 -20.432400
      vertex -2.100200 69.925797 -21.512100
    endloop
  endfacet
  facet normal 0.031273 0.012399 0.999434
    outer loop
      vertex 11.790500 52.892601 -17.486601
      vertex 15.794100 56.771599 -17.660000
      vertex 11.037200 56.025799 -17.501900
    endloop
  endfacet
  facet normal 0.231693 -0.149614 0.961215
    outer loop
      vertex 19.008400 55.898998 -18.570601
      vertex 18.807400 59.312099 -17.990900
      vertex 15.794100 56.771599 -17.660000
    endloop
  endfacet
  facet normal -0.269493 0.459641 0.846229
    outer loop
      vertex 5.939360 59.789398 -20.530399
      vertex 11.053000 57.750801 -17.794600
      vertex 11.010200 61.695599 -19.950899
    endloop
  endfacet
  facet normal -0.093275 0.171633 0.980735
    outer loop
      vertex 9.390600 70.792297 -22.222900
      vertex 5.495140 62.810299 -21.196501
      vertex 11.002600 65.062798 -21.066900
    endloop
  endfacet
  facet normal 0.147007 0.055250 0.987591
    outer loop
      vertex 5.495140 62.810299 -21.196501
      vertex 9.390600 70.792297 -22.222900
      vertex 6.905400 73.584900 -22.009199
    endloop
  endfacet
  facet normal 0.305782 -0.046529 0.950964
    outer loop
      vertex 6.905400 73.584900 -22.009199
      vertex 3.481470 71.717598 -20.999599
      vertex 1.316240 69.080498 -20.432400
    endloop
  endfacet
  facet normal -0.284097 0.072892 0.956021
    outer loop
      vertex 0.912683 75.606499 -21.049900
      vertex -2.100200 69.925797 -21.512100
      vertex 1.316240 69.080498 -20.432400
    endloop
  endfacet
  facet normal 0.006549 0.167228 0.985897
    outer loop
      vertex 11.053000 57.750801 -17.794600
      vertex 11.037200 56.025799 -17.501900
      vertex 15.794100 56.771599 -17.660000
    endloop
  endfacet
  facet normal -0.085380 0.313281 0.945814
    outer loop
      vertex 14.976100 62.150299 -19.743500
      vertex 11.002600 65.062798 -21.066900
      vertex 11.010200 61.695599 -19.950899
    endloop
  endfacet
  facet normal 0.134488 0.101584 0.985694
    outer loop
      vertex 1.316240 69.080498 -20.432400
      vertex 3.481470 71.717598 -20.999599
      vertex 0.912683 75.606499 -21.049900
    endloop
  endfacet
  facet normal 0.135253 -0.031436 0.990312
    outer loop
      vertex 16.385201 58.713100 -17.679100
      vertex 15.794100 56.771599 -17.660000
      vertex 18.807400 59.312099 -17.990900
    endloop
  endfacet
  facet normal -0.024787 0.017380 0.999542
    outer loop
      vertex 15.794100 56.771599 -17.660000
      vertex 16.385201 58.713100 -17.679100
      vertex 11.053000 57.750801 -17.794600
    endloop
  endfacet
  facet normal -0.055235 0.188374 0.980543
    outer loop
      vertex 15.566200 59.427601 -17.862499
      vertex 11.053000 57.750801 -17.794600
      vertex 16.385201 58.713100 -17.679100
    endloop
  endfacet
  facet normal -0.106337 0.549478 0.828714
    outer loop
      vertex 11.010200 61.695599 -19.950899
      vertex 15.566200 59.427601 -17.862499
      vertex 14.976100 62.150299 -19.743500
    endloop
  endfacet
  facet normal -0.162298 0.471924 0.866572
    outer loop
      vertex 11.053000 57.750801 -17.794600
      vertex 15.566200 59.427601 -17.862499
      vertex 11.010200 61.695599 -19.950899
    endloop
  endfacet
  facet normal -0.196887 0.528035 0.826084
    outer loop
      vertex 17.487801 60.608898 -18.159599
      vertex 14.976100 62.150299 -19.743500
      vertex 15.566200 59.427601 -17.862499
    endloop
  endfacet
  facet normal -0.090348 0.307200 0.947346
    outer loop
      vertex 11.002600 65.062798 -21.066900
      vertex 14.976100 62.150299 -19.743500
      vertex 18.892599 68.492203 -21.426500
    endloop
  endfacet
  facet normal -0.037863 0.189983 0.981057
    outer loop
      vertex 11.002600 65.062798 -21.066900
      vertex 18.892599 68.492203 -21.426500
      vertex 14.696600 70.209000 -21.920900
    endloop
  endfacet
  facet normal -0.035183 0.188134 0.981513
    outer loop
      vertex 9.390600 70.792297 -22.222900
      vertex 11.002600 65.062798 -21.066900
      vertex 14.696600 70.209000 -21.920900
    endloop
  endfacet
  facet normal -0.016673 0.335916 0.941744
    outer loop
      vertex 9.390600 70.792297 -22.222900
      vertex 14.696600 70.209000 -21.920900
      vertex 10.898600 73.134903 -23.031799
    endloop
  endfacet
  facet normal 0.273213 0.152108 0.949851
    outer loop
      vertex 9.390600 70.792297 -22.222900
      vertex 10.898600 73.134903 -23.031799
      vertex 9.023620 79.624397 -23.531700
    endloop
  endfacet
  facet normal 0.253065 0.152095 0.955419
    outer loop
      vertex 9.023620 79.624397 -23.531700
      vertex 6.905400 73.584900 -22.009199
      vertex 9.390600 70.792297 -22.222900
    endloop
  endfacet
  facet normal -0.054746 -0.023250 0.998230
    outer loop
      vertex 3.481470 71.717598 -20.999599
      vertex 4.084850 78.243896 -20.814501
      vertex 0.912683 75.606499 -21.049900
    endloop
  endfacet
  facet normal 0.286796 0.155678 0.945258
    outer loop
      vertex 10.898600 73.134903 -23.031799
      vertex 12.719500 78.720596 -24.504200
      vertex 9.023620 79.624397 -23.531700
    endloop
  endfacet
  facet normal 0.554228 0.015412 0.832222
    outer loop
      vertex 6.186700 79.212898 -21.634800
      vertex 6.905400 73.584900 -22.009199
      vertex 9.023620 79.624397 -23.531700
    endloop
  endfacet
  facet normal 0.075303 0.203614 0.976151
    outer loop
      vertex 17.487801 60.608898 -18.159599
      vertex 16.385201 58.713100 -17.679100
      vertex 18.807400 59.312099 -17.990900
    endloop
  endfacet
  facet normal -0.001810 0.246675 0.969097
    outer loop
      vertex 15.566200 59.427601 -17.862499
      vertex 16.385201 58.713100 -17.679100
      vertex 17.487801 60.608898 -18.159599
    endloop
  endfacet
  facet normal 0.228904 -0.079961 0.970159
    outer loop
      vertex 21.380301 57.865398 -18.717199
      vertex 21.884501 61.264599 -18.556000
      vertex 18.807400 59.312099 -17.990900
    endloop
  endfacet
  facet normal -0.017033 0.266276 0.963746
    outer loop
      vertex 20.366100 66.051102 -20.726000
      vertex 18.892599 68.492203 -21.426500
      vertex 14.976100 62.150299 -19.743500
    endloop
  endfacet
  facet normal -0.068539 0.275128 0.958961
    outer loop
      vertex 12.719500 78.720596 -24.504200
      vertex 10.898600 73.134903 -23.031799
      vertex 14.696600 70.209000 -21.920900
    endloop
  endfacet
  facet normal 0.310163 -0.055593 0.949057
    outer loop
      vertex 3.481470 71.717598 -20.999599
      vertex 6.905400 73.584900 -22.009199
      vertex 4.084850 78.243896 -20.814501
    endloop
  endfacet
  facet normal 0.369379 -0.014642 0.929163
    outer loop
      vertex 6.905400 73.584900 -22.009199
      vertex 6.186700 79.212898 -21.634800
      vertex 4.084850 78.243896 -20.814501
    endloop
  endfacet
  facet normal 0.151171 0.047523 0.987365
    outer loop
      vertex 18.807400 59.312099 -17.990900
      vertex 21.884501 61.264599 -18.556000
      vertex 20.181499 61.695499 -18.316000
    endloop
  endfacet
  facet normal 0.003925 0.132927 0.991118
    outer loop
      vertex 18.807400 59.312099 -17.990900
      vertex 20.181499 61.695499 -18.316000
      vertex 17.487801 60.608898 -18.159599
    endloop
  endfacet
  facet normal -0.175331 0.551987 0.815211
    outer loop
      vertex 14.976100 62.150299 -19.743500
      vertex 17.487801 60.608898 -18.159599
      vertex 20.181499 61.695499 -18.316000
    endloop
  endfacet
  facet normal -0.192459 0.481322 0.855154
    outer loop
      vertex 20.181499 61.695499 -18.316000
      vertex 20.366100 66.051102 -20.726000
      vertex 14.976100 62.150299 -19.743500
    endloop
  endfacet
  facet normal 0.450707 -0.108812 -0.886015
    outer loop
      vertex -16.736401 4.846130 13.680500
      vertex -21.270599 7.380900 11.062700
      vertex -14.445500 10.104300 14.200100
    endloop
  endfacet
  facet normal 0.476288 -0.209972 -0.853851
    outer loop
      vertex -16.698200 14.105800 11.959500
      vertex -14.445500 10.104300 14.200100
      vertex -21.270599 7.380900 11.062700
    endloop
  endfacet
  facet normal 0.408052 -0.047254 -0.911735
    outer loop
      vertex -18.170300 27.215700 10.013500
      vertex -22.187300 40.912899 7.505760
      vertex -17.334600 42.023499 9.620050
    endloop
  endfacet
  facet normal 0.257755 -0.118896 -0.958867
    outer loop
      vertex -10.560800 -9.708110 16.086000
      vertex -14.488200 -4.539660 14.389400
      vertex -7.960660 -6.736670 16.416500
    endloop
  endfacet
  facet normal 0.454802 -0.226277 -0.861367
    outer loop
      vertex -14.445500 10.104300 14.200100
      vertex -16.698200 14.105800 11.959500
      vertex -11.606700 15.310300 14.331400
    endloop
  endfacet
  facet normal 0.205737 -0.024609 -0.978298
    outer loop
      vertex -16.736401 4.846130 13.680500
      vertex -4.568410 -1.834780 16.407499
      vertex -14.488200 -4.539660 14.389400
    endloop
  endfacet
  facet normal 0.200354 -0.083274 -0.976178
    outer loop
      vertex -8.609270 8.310620 15.053000
      vertex -4.059820 2.059520 16.520000
      vertex -16.736401 4.846130 13.680500
    endloop
  endfacet
  facet normal 0.153741 0.030614 -0.987637
    outer loop
      vertex -14.445500 10.104300 14.200100
      vertex -8.609270 8.310620 15.053000
      vertex -16.736401 4.846130 13.680500
    endloop
  endfacet
  facet normal 0.347490 -0.080337 -0.934236
    outer loop
      vertex -15.643200 32.937801 10.461400
      vertex -15.815000 22.253099 11.316300
      vertex -18.170300 27.215700 10.013500
    endloop
  endfacet
  facet normal 0.262415 -0.040427 -0.964108
    outer loop
      vertex -17.334600 42.023499 9.620050
      vertex -15.643200 32.937801 10.461400
      vertex -18.170300 27.215700 10.013500
    endloop
  endfacet
  facet normal 0.392087 0.036708 -0.919196
    outer loop
      vertex -22.187300 40.912899 7.505760
      vertex -20.088900 47.565899 8.666530
      vertex -17.334600 42.023499 9.620050
    endloop
  endfacet
  facet normal 0.511008 -0.011215 -0.859503
    outer loop
      vertex -22.187300 40.912899 7.505760
      vertex -22.122499 53.718601 7.377190
      vertex -20.088900 47.565899 8.666530
    endloop
  endfacet
  facet normal 0.700023 -0.554255 -0.450300
    outer loop
      vertex -10.560800 -9.708110 16.086000
      vertex -8.324150 -8.554580 18.143200
      vertex -9.355020 -9.925380 18.227900
    endloop
  endfacet
  facet normal 0.698145 -0.561502 -0.444195
    outer loop
      vertex -7.960660 -6.736670 16.416500
      vertex -8.324150 -8.554580 18.143200
      vertex -10.560800 -9.708110 16.086000
    endloop
  endfacet
  facet normal 0.240325 -0.168067 -0.956032
    outer loop
      vertex -7.960660 -6.736670 16.416500
      vertex -14.488200 -4.539660 14.389400
      vertex -4.568410 -1.834780 16.407499
    endloop
  endfacet
  facet normal 0.218507 -0.000346 -0.975835
    outer loop
      vertex -4.568410 -1.834780 16.407499
      vertex -16.736401 4.846130 13.680500
      vertex -4.059820 2.059520 16.520000
    endloop
  endfacet
  facet normal 0.452113 -0.198880 -0.869506
    outer loop
      vertex -11.606700 15.310300 14.331400
      vertex -16.698200 14.105800 11.959500
      vertex -12.688000 18.783701 12.974700
    endloop
  endfacet
  facet normal 0.365222 -0.112545 -0.924092
    outer loop
      vertex -15.815000 22.253099 11.316300
      vertex -12.688000 18.783701 12.974700
      vertex -16.698200 14.105800 11.959500
    endloop
  endfacet
  facet normal 0.256158 -0.219150 -0.941465
    outer loop
      vertex -12.688000 18.783701 12.974700
      vertex -15.815000 22.253099 11.316300
      vertex -10.724700 25.584600 11.925800
    endloop
  endfacet
  facet normal 0.130532 -0.046200 -0.990367
    outer loop
      vertex -8.609270 8.310620 15.053000
      vertex -14.445500 10.104300 14.200100
      vertex -11.606700 15.310300 14.331400
    endloop
  endfacet
  facet normal 0.170794 -0.081313 -0.981946
    outer loop
      vertex -15.643200 32.937801 10.461400
      vertex -10.724700 25.584600 11.925800
      vertex -15.815000 22.253099 11.316300
    endloop
  endfacet
  facet normal 0.227224 -0.229357 -0.946448
    outer loop
      vertex -9.355020 -9.925380 18.227900
      vertex -8.324150 -8.554580 18.143200
      vertex -6.443370 -10.028000 18.951799
    endloop
  endfacet
  facet normal 0.222902 -0.234717 -0.946162
    outer loop
      vertex -6.546150 -7.896020 18.398701
      vertex -6.443370 -10.028000 18.951799
      vertex -8.324150 -8.554580 18.143200
    endloop
  endfacet
  facet normal 0.345199 -0.681716 -0.645058
    outer loop
      vertex -8.324150 -8.554580 18.143200
      vertex -7.960660 -6.736670 16.416500
      vertex -6.546150 -7.896020 18.398701
    endloop
  endfacet
  facet normal 0.275008 -0.731405 -0.624032
    outer loop
      vertex -6.546150 -7.896020 18.398701
      vertex -7.960660 -6.736670 16.416500
      vertex -4.855180 -5.896380 16.800200
    endloop
  endfacet
  facet normal 0.150041 -0.105638 -0.983020
    outer loop
      vertex -4.568410 -1.834780 16.407499
      vertex -4.855180 -5.896380 16.800200
      vertex -7.960660 -6.736670 16.416500
    endloop
  endfacet
  facet normal 0.355648 -0.241903 -0.902772
    outer loop
      vertex -11.606700 15.310300 14.331400
      vertex -12.688000 18.783701 12.974700
      vertex -10.724700 25.584600 11.925800
    endloop
  endfacet
  facet normal 0.361112 -0.075421 -0.929467
    outer loop
      vertex -20.088900 47.565899 8.666530
      vertex -22.122499 53.718601 7.377190
      vertex -18.409100 58.292099 8.448790
    endloop
  endfacet
  facet normal 0.326326 -0.043714 -0.944246
    outer loop
      vertex -18.409100 58.292099 8.448790
      vertex -22.122499 53.718601 7.377190
      vertex -23.177500 58.303699 6.800320
    endloop
  endfacet
  facet normal 0.171890 -0.699699 -0.693452
    outer loop
      vertex -2.505360 -7.060530 18.557301
      vertex -6.546150 -7.896020 18.398701
      vertex -4.855180 -5.896380 16.800200
    endloop
  endfacet
  facet normal -0.086500 -0.089824 -0.992194
    outer loop
      vertex -4.855180 -5.896380 16.800200
      vertex -4.568410 -1.834780 16.407499
      vertex -1.404910 -5.222540 16.438400
    endloop
  endfacet
  facet normal 0.294115 0.006393 -0.955749
    outer loop
      vertex -10.724700 25.584600 11.925800
      vertex -15.643200 32.937801 10.461400
      vertex -12.438700 35.445202 11.464300
    endloop
  endfacet
  facet normal 0.318730 -0.028397 -0.947420
    outer loop
      vertex -15.643200 32.937801 10.461400
      vertex -17.334600 42.023499 9.620050
      vertex -12.438700 35.445202 11.464300
    endloop
  endfacet
  facet normal 0.361653 0.019362 -0.932112
    outer loop
      vertex -13.950000 47.692001 11.051000
      vertex -17.334600 42.023499 9.620050
      vertex -20.088900 47.565899 8.666530
    endloop
  endfacet
  facet normal 0.467940 -0.457840 -0.755919
    outer loop
      vertex -17.724501 70.660896 3.637490
      vertex -15.206500 75.883102 2.033270
      vertex -14.017200 71.277100 5.559220
    endloop
  endfacet
  facet normal 0.088770 -0.246113 -0.965167
    outer loop
      vertex -6.546150 -7.896020 18.398701
      vertex -2.505360 -7.060530 18.557301
      vertex -6.443370 -10.028000 18.951799
    endloop
  endfacet
  facet normal 0.085431 -0.774179 -0.627175
    outer loop
      vertex -1.404910 -5.222540 16.438400
      vertex -2.505360 -7.060530 18.557301
      vertex -4.855180 -5.896380 16.800200
    endloop
  endfacet
  facet normal 0.174753 -0.240999 -0.954663
    outer loop
      vertex -6.385930 15.012700 15.362200
      vertex -11.606700 15.310300 14.331400
      vertex -5.923660 19.777399 14.244000
    endloop
  endfacet
  facet normal 0.172840 -0.238583 -0.955617
    outer loop
      vertex -11.606700 15.310300 14.331400
      vertex -10.724700 25.584600 11.925800
      vertex -5.923660 19.777399 14.244000
    endloop
  endfacet
  facet normal 0.362379 -0.075609 -0.928959
    outer loop
      vertex -20.088900 47.565899 8.666530
      vertex -18.409100 58.292099 8.448790
      vertex -13.950000 47.692001 11.051000
    endloop
  endfacet
  facet normal -0.213918 -0.049165 -0.975614
    outer loop
      vertex 7.105480 -5.647060 14.892000
      vertex 9.645450 -10.423900 14.575800
      vertex 3.394200 -8.723750 15.860800
    endloop
  endfacet
  facet normal -0.237077 -0.669552 -0.703913
    outer loop
      vertex -2.505360 -7.060530 18.557301
      vertex -1.404910 -5.222540 16.438400
      vertex 0.756532 -7.891810 18.249399
    endloop
  endfacet
  facet normal -0.242153 -0.671333 -0.700481
    outer loop
      vertex 0.756532 -7.891810 18.249399
      vertex -1.404910 -5.222540 16.438400
      vertex 1.079840 -5.843130 16.174200
    endloop
  endfacet
  facet normal -0.205924 -0.059174 -0.976777
    outer loop
      vertex 3.394200 -8.723750 15.860800
      vertex 1.079840 -5.843130 16.174200
      vertex 7.105480 -5.647060 14.892000
    endloop
  endfacet
  facet normal -0.108166 -0.009874 -0.994084
    outer loop
      vertex 1.079840 -5.843130 16.174200
      vertex -1.404910 -5.222540 16.438400
      vertex 4.409550 0.992549 15.744000
    endloop
  endfacet
  facet normal -0.054707 -0.060177 -0.996687
    outer loop
      vertex -1.404910 -5.222540 16.438400
      vertex -4.568410 -1.834780 16.407499
      vertex 4.409550 0.992549 15.744000
    endloop
  endfacet
  facet normal 0.199572 -0.083868 -0.976287
    outer loop
      vertex -2.400880 12.153400 15.992000
      vertex -4.059820 2.059520 16.520000
      vertex -8.609270 8.310620 15.053000
    endloop
  endfacet
  facet normal 0.209032 -0.009432 -0.977863
    outer loop
      vertex -9.599840 36.590500 12.060100
      vertex -10.724700 25.584600 11.925800
      vertex -12.438700 35.445202 11.464300
    endloop
  endfacet
  facet normal 0.369116 0.014190 -0.929275
    outer loop
      vertex -12.438700 35.445202 11.464300
      vertex -17.334600 42.023499 9.620050
      vertex -13.950000 47.692001 11.051000
    endloop
  endfacet
  facet normal -0.438815 -0.049822 -0.897195
    outer loop
      vertex 9.645450 -10.423900 14.575800
      vertex 11.305700 -2.405340 13.318500
      vertex 14.541200 -10.785700 12.201400
    endloop
  endfacet
  facet normal -0.684429 -0.491278 -0.538705
    outer loop
      vertex 2.579300 -9.825400 17.900801
      vertex 1.079840 -5.843130 16.174200
      vertex 3.394200 -8.723750 15.860800
    endloop
  endfacet
  facet normal -0.638431 -0.495685 -0.588815
    outer loop
      vertex 2.579300 -9.825400 17.900801
      vertex 0.756532 -7.891810 18.249399
      vertex 1.079840 -5.843130 16.174200
    endloop
  endfacet
  facet normal -0.095416 -0.005709 -0.995421
    outer loop
      vertex -6.443370 -10.028000 18.951799
      vertex -2.505360 -7.060530 18.557301
      vertex 0.756532 -7.891810 18.249399
    endloop
  endfacet
  facet normal -0.556350 -0.019521 -0.830719
    outer loop
      vertex 18.111300 -10.026500 9.792590
      vertex 14.541200 -10.785700 12.201400
      vertex 15.465300 0.198529 11.324400
    endloop
  endfacet
  facet normal -0.412557 -0.037959 -0.910141
    outer loop
      vertex 14.541200 -10.785700 12.201400
      vertex 11.305700 -2.405340 13.318500
      vertex 15.465300 0.198529 11.324400
    endloop
  endfacet
  facet normal -0.287794 -0.089914 -0.953462
    outer loop
      vertex 9.645450 -10.423900 14.575800
      vertex 7.105480 -5.647060 14.892000
      vertex 11.305700 -2.405340 13.318500
    endloop
  endfacet
  facet normal -0.209219 0.040423 -0.977033
    outer loop
      vertex 1.079840 -5.843130 16.174200
      vertex 4.409550 0.992549 15.744000
      vertex 7.105480 -5.647060 14.892000
    endloop
  endfacet
  facet normal -0.086169 0.040012 -0.995477
    outer loop
      vertex -4.568410 -1.834780 16.407499
      vertex -4.059820 2.059520 16.520000
      vertex 4.409550 0.992549 15.744000
    endloop
  endfacet
  facet normal 0.167518 -0.029852 -0.985417
    outer loop
      vertex -8.609270 8.310620 15.053000
      vertex -11.606700 15.310300 14.331400
      vertex -2.400880 12.153400 15.992000
    endloop
  endfacet
  facet normal 0.196574 0.058386 -0.978749
    outer loop
      vertex -6.385930 15.012700 15.362200
      vertex -2.400880 12.153400 15.992000
      vertex -11.606700 15.310300 14.331400
    endloop
  endfacet
  facet normal 0.319386 -0.111604 -0.941030
    outer loop
      vertex -10.724700 25.584600 11.925800
      vertex -4.112740 29.900900 13.658000
      vertex -5.923660 19.777399 14.244000
    endloop
  endfacet
  facet normal 0.208217 -0.007312 -0.978055
    outer loop
      vertex -13.950000 47.692001 11.051000
      vertex -9.599840 36.590500 12.060100
      vertex -12.438700 35.445202 11.464300
    endloop
  endfacet
  facet normal 0.425059 -0.043148 -0.904137
    outer loop
      vertex -13.950000 47.692001 11.051000
      vertex -18.409100 58.292099 8.448790
      vertex -14.890600 56.006599 10.212000
    endloop
  endfacet
  facet normal 0.343996 -0.210024 -0.915181
    outer loop
      vertex -18.251400 62.413200 7.562320
      vertex -13.014500 61.292301 9.787990
      vertex -18.409100 58.292099 8.448790
    endloop
  endfacet
  facet normal 0.472371 -0.412073 -0.779141
    outer loop
      vertex -17.724501 70.660896 3.637490
      vertex -14.017200 71.277100 5.559220
      vertex -18.023800 65.941299 5.952140
    endloop
  endfacet
  facet normal -0.339206 -0.017037 -0.940558
    outer loop
      vertex 7.105480 -5.647060 14.892000
      vertex 4.409550 0.992549 15.744000
      vertex 11.305700 -2.405340 13.318500
    endloop
  endfacet
  facet normal -0.095716 -0.036303 -0.994746
    outer loop
      vertex -4.059820 2.059520 16.520000
      vertex -2.400880 12.153400 15.992000
      vertex 4.409550 0.992549 15.744000
    endloop
  endfacet
  facet normal 0.106945 -0.236989 -0.965608
    outer loop
      vertex -1.046770 14.785900 16.009199
      vertex -6.385930 15.012700 15.362200
      vertex -5.923660 19.777399 14.244000
    endloop
  endfacet
  facet normal 0.262590 -0.015065 -0.964790
    outer loop
      vertex -9.599840 36.590500 12.060100
      vertex -4.112740 29.900900 13.658000
      vertex -10.724700 25.584600 11.925800
    endloop
  endfacet
  facet normal 0.175906 -0.020532 -0.984193
    outer loop
      vertex -10.973200 48.681702 11.562400
      vertex -9.599840 36.590500 12.060100
      vertex -13.950000 47.692001 11.051000
    endloop
  endfacet
  facet normal 0.336318 -0.193309 -0.921695
    outer loop
      vertex -13.014500 61.292301 9.787990
      vertex -14.890600 56.006599 10.212000
      vertex -18.409100 58.292099 8.448790
    endloop
  endfacet
  facet normal 0.463812 -0.406247 -0.787300
    outer loop
      vertex -18.023800 65.941299 5.952140
      vertex -14.017200 71.277100 5.559220
      vertex -13.054300 67.101402 8.281140
    endloop
  endfacet
  facet normal -0.424105 -0.015937 -0.905473
    outer loop
      vertex 15.465300 0.198529 11.324400
      vertex 11.305700 -2.405340 13.318500
      vertex 8.996510 9.553050 14.189600
    endloop
  endfacet
  facet normal 0.117856 -0.054145 -0.991553
    outer loop
      vertex -6.385930 15.012700 15.362200
      vertex -1.046770 14.785900 16.009199
      vertex -2.400880 12.153400 15.992000
    endloop
  endfacet
  facet normal 0.148204 -0.197863 -0.968961
    outer loop
      vertex -5.923660 19.777399 14.244000
      vertex -2.611890 20.862801 14.528900
      vertex -1.046770 14.785900 16.009199
    endloop
  endfacet
  facet normal 0.110519 -0.077127 -0.990877
    outer loop
      vertex -5.923660 19.777399 14.244000
      vertex -4.112740 29.900900 13.658000
      vertex -2.611890 20.862801 14.528900
    endloop
  endfacet
  facet normal 0.277290 -0.174216 -0.944859
    outer loop
      vertex -7.846260 57.613701 11.983000
      vertex -14.890600 56.006599 10.212000
      vertex -13.014500 61.292301 9.787990
    endloop
  endfacet
  facet normal 0.345212 -0.205484 -0.915754
    outer loop
      vertex -13.014500 61.292301 9.787990
      vertex -18.251400 62.413200 7.562320
      vertex -12.716800 64.881104 9.094930
    endloop
  endfacet
  facet normal 0.406172 -0.400957 -0.821132
    outer loop
      vertex -18.251400 62.413200 7.562320
      vertex -18.023800 65.941299 5.952140
      vertex -12.716800 64.881104 9.094930
    endloop
  endfacet
  facet normal -0.329535 0.005141 -0.944129
    outer loop
      vertex 11.305700 -2.405340 13.318500
      vertex 4.409550 0.992549 15.744000
      vertex 8.996510 9.553050 14.189600
    endloop
  endfacet
  facet normal -0.114550 -0.047850 -0.992264
    outer loop
      vertex 6.489100 13.207200 14.914900
      vertex 4.409550 0.992549 15.744000
      vertex -2.400880 12.153400 15.992000
    endloop
  endfacet
  facet normal 0.300029 0.018280 -0.953755
    outer loop
      vertex -9.599840 36.590500 12.060100
      vertex -5.620310 39.258301 13.363100
      vertex -4.112740 29.900900 13.658000
    endloop
  endfacet
  facet normal 0.265224 -0.009561 -0.964139
    outer loop
      vertex -10.973200 48.681702 11.562400
      vertex -5.884770 48.517200 12.963800
      vertex -9.599840 36.590500 12.060100
    endloop
  endfacet
  facet normal 0.193562 -0.076798 -0.978078
    outer loop
      vertex -14.890600 56.006599 10.212000
      vertex -10.973200 48.681702 11.562400
      vertex -13.950000 47.692001 11.051000
    endloop
  endfacet
  facet normal 0.252808 -0.042989 -0.966561
    outer loop
      vertex -14.890600 56.006599 10.212000
      vertex -7.846260 57.613701 11.983000
      vertex -10.973200 48.681702 11.562400
    endloop
  endfacet
  facet normal 0.457646 -0.243829 -0.855048
    outer loop
      vertex -13.054300 67.101402 8.281140
      vertex -12.716800 64.881104 9.094930
      vertex -18.023800 65.941299 5.952140
    endloop
  endfacet
  facet normal -0.296954 -0.014252 -0.954786
    outer loop
      vertex 4.409550 0.992549 15.744000
      vertex 6.489100 13.207200 14.914900
      vertex 8.996510 9.553050 14.189600
    endloop
  endfacet
  facet normal -0.442427 -0.031431 -0.896254
    outer loop
      vertex 8.996510 9.553050 14.189600
      vertex 18.913500 12.905900 9.176590
      vertex 15.465300 0.198529 11.324400
    endloop
  endfacet
  facet normal -0.128431 0.072524 -0.989063
    outer loop
      vertex -2.400880 12.153400 15.992000
      vertex -1.046770 14.785900 16.009199
      vertex 6.489100 13.207200 14.914900
    endloop
  endfacet
  facet normal -0.005218 -0.237939 -0.971266
    outer loop
      vertex 2.900710 20.144300 14.675300
      vertex -1.046770 14.785900 16.009199
      vertex -2.611890 20.862801 14.528900
    endloop
  endfacet
  facet normal 0.329888 -0.031267 -0.943502
    outer loop
      vertex -9.599840 36.590500 12.060100
      vertex -5.884770 48.517200 12.963800
      vertex -5.620310 39.258301 13.363100
    endloop
  endfacet
  facet normal -0.167305 -0.120340 -0.978533
    outer loop
      vertex -1.046770 14.785900 16.009199
      vertex 2.900710 20.144300 14.675300
      vertex 6.489100 13.207200 14.914900
    endloop
  endfacet
  facet normal 0.011318 -0.115544 -0.993238
    outer loop
      vertex 2.900710 20.144300 14.675300
      vertex -2.611890 20.862801 14.528900
      vertex 1.003100 29.072100 13.615100
    endloop
  endfacet
  facet normal -0.024529 -0.099921 -0.994693
    outer loop
      vertex -4.112740 29.900900 13.658000
      vertex 1.003100 29.072100 13.615100
      vertex -2.611890 20.862801 14.528900
    endloop
  endfacet
  facet normal 0.091588 -0.016623 -0.995658
    outer loop
      vertex -2.370540 35.876400 13.718500
      vertex -4.112740 29.900900 13.658000
      vertex -5.620310 39.258301 13.363100
    endloop
  endfacet
  facet normal -0.445240 -0.021465 -0.895154
    outer loop
      vertex 8.996510 9.553050 14.189600
      vertex 11.377700 21.534901 12.717900
      vertex 18.913500 12.905900 9.176590
    endloop
  endfacet
  facet normal -0.340913 -0.047571 -0.938891
    outer loop
      vertex 6.489100 13.207200 14.914900
      vertex 11.377700 21.534901 12.717900
      vertex 8.996510 9.553050 14.189600
    endloop
  endfacet
  facet normal 0.030142 -0.111550 -0.993302
    outer loop
      vertex 1.003100 29.072100 13.615100
      vertex 4.176180 27.085400 13.934500
      vertex 2.900710 20.144300 14.675300
    endloop
  endfacet
  facet normal 0.263818 -0.046991 -0.963427
    outer loop
      vertex -5.884770 48.517200 12.963800
      vertex -10.973200 48.681702 11.562400
      vertex -7.846260 57.613701 11.983000
    endloop
  endfacet
  facet normal 0.711832 -0.260916 -0.652087
    outer loop
      vertex -13.054300 67.101402 8.281140
      vertex -14.017200 71.277100 5.559220
      vertex -9.808650 72.537498 9.649050
    endloop
  endfacet
  facet normal -0.305588 -0.071107 -0.949505
    outer loop
      vertex 6.489100 13.207200 14.914900
      vertex 8.010710 25.505199 13.504200
      vertex 11.377700 21.534901 12.717900
    endloop
  endfacet
  facet normal -0.123507 -0.097994 -0.987494
    outer loop
      vertex 6.489100 13.207200 14.914900
      vertex 2.900710 20.144300 14.675300
      vertex 8.010710 25.505199 13.504200
    endloop
  endfacet
  facet normal -0.419564 0.006109 -0.907705
    outer loop
      vertex 11.377700 21.534901 12.717900
      vertex 12.738700 30.522699 12.149300
      vertex 18.913500 12.905900 9.176590
    endloop
  endfacet
  facet normal -0.143248 -0.078967 -0.986531
    outer loop
      vertex 2.900710 20.144300 14.675300
      vertex 4.176180 27.085400 13.934500
      vertex 8.010710 25.505199 13.504200
    endloop
  endfacet
  facet normal -0.014354 -0.036879 -0.999217
    outer loop
      vertex -4.112740 29.900900 13.658000
      vertex 2.987100 38.517200 13.238000
      vertex 1.003100 29.072100 13.615100
    endloop
  endfacet
  facet normal -0.109798 0.042067 -0.993063
    outer loop
      vertex -2.370540 35.876400 13.718500
      vertex 2.987100 38.517200 13.238000
      vertex -4.112740 29.900900 13.658000
    endloop
  endfacet
  facet normal 0.366836 -0.039221 -0.929459
    outer loop
      vertex -9.824130 63.978600 10.933800
      vertex -7.846260 57.613701 11.983000
      vertex -13.014500 61.292301 9.787990
    endloop
  endfacet
  facet normal 0.478873 -0.204590 -0.853712
    outer loop
      vertex -12.716800 64.881104 9.094930
      vertex -9.824130 63.978600 10.933800
      vertex -13.014500 61.292301 9.787990
    endloop
  endfacet
  facet normal 0.065873 -0.054967 -0.996313
    outer loop
      vertex 6.217050 32.982300 13.744100
      vertex 4.176180 27.085400 13.934500
      vertex 1.003100 29.072100 13.615100
    endloop
  endfacet
  facet normal 0.064680 -0.053371 -0.996478
    outer loop
      vertex 6.217050 32.982300 13.744100
      vertex 1.003100 29.072100 13.615100
      vertex 2.987100 38.517200 13.238000
    endloop
  endfacet
  facet normal -0.070350 -0.038639 -0.996774
    outer loop
      vertex -1.897440 48.844898 13.182400
      vertex 2.987100 38.517200 13.238000
      vertex -2.370540 35.876400 13.718500
    endloop
  endfacet
  facet normal 0.063725 -0.043540 -0.997017
    outer loop
      vertex -1.897440 48.844898 13.182400
      vertex -2.370540 35.876400 13.718500
      vertex -5.620310 39.258301 13.363100
    endloop
  endfacet
  facet normal 0.058083 -0.041357 -0.997455
    outer loop
      vertex -5.884770 48.517200 12.963800
      vertex -1.897440 48.844898 13.182400
      vertex -5.620310 39.258301 13.363100
    endloop
  endfacet
  facet normal 0.488897 0.008131 -0.872303
    outer loop
      vertex -7.413980 68.365097 12.325500
      vertex -7.846260 57.613701 11.983000
      vertex -9.824130 63.978600 10.933800
    endloop
  endfacet
  facet normal 0.537563 0.004918 -0.843209
    outer loop
      vertex -9.824130 63.978600 10.933800
      vertex -12.716800 64.881104 9.094930
      vertex -9.419920 68.866402 11.220000
    endloop
  endfacet
  facet normal 0.676755 -0.227905 -0.700045
    outer loop
      vertex -9.808650 72.537498 9.649050
      vertex -9.419920 68.866402 11.220000
      vertex -13.054300 67.101402 8.281140
    endloop
  endfacet
  facet normal -0.109196 0.005697 -0.994004
    outer loop
      vertex 6.217050 32.982300 13.744100
      vertex 8.010710 25.505199 13.504200
      vertex 4.176180 27.085400 13.934500
    endloop
  endfacet
  facet normal -0.193301 -0.096679 -0.976365
    outer loop
      vertex 3.077920 50.777599 12.006000
      vertex 2.987100 38.517200 13.238000
      vertex -1.897440 48.844898 13.182400
    endloop
  endfacet
  facet normal 0.055273 -0.006509 -0.998450
    outer loop
      vertex -4.172570 58.960800 12.990500
      vertex -1.897440 48.844898 13.182400
      vertex -5.884770 48.517200 12.963800
    endloop
  endfacet
  facet normal 0.278964 -0.043283 -0.959326
    outer loop
      vertex -4.172570 58.960800 12.990500
      vertex -5.884770 48.517200 12.963800
      vertex -7.846260 57.613701 11.983000
    endloop
  endfacet
  facet normal 0.257454 0.020424 -0.966075
    outer loop
      vertex -4.172570 58.960800 12.990500
      vertex -7.846260 57.613701 11.983000
      vertex -7.413980 68.365097 12.325500
    endloop
  endfacet
  facet normal 0.667330 -0.164769 -0.726307
    outer loop
      vertex -12.716800 64.881104 9.094930
      vertex -13.054300 67.101402 8.281140
      vertex -9.419920 68.866402 11.220000
    endloop
  endfacet
  facet normal -0.252879 -0.022897 -0.967227
    outer loop
      vertex 11.377700 21.534901 12.717900
      vertex 8.010710 25.505199 13.504200
      vertex 12.738700 30.522699 12.149300
    endloop
  endfacet
  facet normal 0.484767 0.011121 -0.874573
    outer loop
      vertex -9.824130 63.978600 10.933800
      vertex -9.419920 68.866402 11.220000
      vertex -7.413980 68.365097 12.325500
    endloop
  endfacet
  facet normal 0.553110 -0.277570 -0.785509
    outer loop
      vertex -9.419920 68.866402 11.220000
      vertex -9.808650 72.537498 9.649050
      vertex -7.745370 71.912903 11.322600
    endloop
  endfacet
  facet normal -0.247503 -0.028300 -0.968474
    outer loop
      vertex 6.217050 32.982300 13.744100
      vertex 12.738700 30.522699 12.149300
      vertex 8.010710 25.505199 13.504200
    endloop
  endfacet
  facet normal 0.010725 -0.084844 -0.996337
    outer loop
      vertex 6.217050 32.982300 13.744100
      vertex 2.987100 38.517200 13.238000
      vertex 7.857480 40.159199 13.150600
    endloop
  endfacet
  facet normal -0.064770 -0.099298 -0.992948
    outer loop
      vertex 6.524240 52.168499 11.642100
      vertex 2.987100 38.517200 13.238000
      vertex 3.077920 50.777599 12.006000
    endloop
  endfacet
  facet normal 0.040216 -0.009909 -0.999142
    outer loop
      vertex -1.897440 48.844898 13.182400
      vertex -4.172570 58.960800 12.990500
      vertex -1.821780 58.166401 13.093000
    endloop
  endfacet
  facet normal 0.431793 -0.207781 -0.877714
    outer loop
      vertex -9.419920 68.866402 11.220000
      vertex -7.745370 71.912903 11.322600
      vertex -7.413980 68.365097 12.325500
    endloop
  endfacet
  facet normal 0.478755 -0.445507 -0.756516
    outer loop
      vertex -7.745370 71.912903 11.322600
      vertex -9.808650 72.537498 9.649050
      vertex -6.044970 76.441101 9.732060
    endloop
  endfacet
  facet normal 0.487137 -0.453808 -0.746161
    outer loop
      vertex -9.808650 72.537498 9.649050
      vertex -7.855730 79.280296 6.823120
      vertex -6.044970 76.441101 9.732060
    endloop
  endfacet
  facet normal 0.576490 -0.375743 -0.725588
    outer loop
      vertex -4.958580 81.461304 7.995520
      vertex -6.044970 76.441101 9.732060
      vertex -7.855730 79.280296 6.823120
    endloop
  endfacet
  facet normal -0.229521 0.022345 -0.973047
    outer loop
      vertex 6.217050 32.982300 13.744100
      vertex 11.631200 48.231400 12.817200
      vertex 12.738700 30.522699 12.149300
    endloop
  endfacet
  facet normal 0.169480 -0.119635 -0.978245
    outer loop
      vertex 6.217050 32.982300 13.744100
      vertex 7.857480 40.159199 13.150600
      vertex 11.631200 48.231400 12.817200
    endloop
  endfacet
  facet normal 0.023341 -0.122046 -0.992250
    outer loop
      vertex 2.987100 38.517200 13.238000
      vertex 6.524240 52.168499 11.642100
      vertex 7.857480 40.159199 13.150600
    endloop
  endfacet
  facet normal -0.206839 -0.061861 -0.976417
    outer loop
      vertex 3.077920 50.777599 12.006000
      vertex -1.897440 48.844898 13.182400
      vertex 1.950510 59.795399 11.673500
    endloop
  endfacet
  facet normal -0.349855 -0.006145 -0.936784
    outer loop
      vertex -1.897440 48.844898 13.182400
      vertex -1.821780 58.166401 13.093000
      vertex 1.950510 59.795399 11.673500
    endloop
  endfacet
  facet normal 0.161920 -0.013963 -0.986705
    outer loop
      vertex -4.172570 58.960800 12.990500
      vertex -7.413980 68.365097 12.325500
      vertex -3.640010 67.730103 12.953800
    endloop
  endfacet
  facet normal -0.063270 -0.511857 -0.856738
    outer loop
      vertex 14.349900 77.375702 3.034180
      vertex 11.872300 75.960197 4.062840
      vertex 11.697600 79.123100 2.186070
    endloop
  endfacet
  facet normal -0.319566 0.054975 -0.945968
    outer loop
      vertex 12.738700 30.522699 12.149300
      vertex 17.159700 42.775902 11.367900
      vertex 22.018101 37.249699 9.405480
    endloop
  endfacet
  facet normal -0.233065 0.022092 -0.972210
    outer loop
      vertex 11.631200 48.231400 12.817200
      vertex 17.159700 42.775902 11.367900
      vertex 12.738700 30.522699 12.149300
    endloop
  endfacet
  facet normal 0.143372 -0.107659 -0.983796
    outer loop
      vertex 11.631200 48.231400 12.817200
      vertex 7.857480 40.159199 13.150600
      vertex 6.524240 52.168499 11.642100
    endloop
  endfacet
  facet normal -0.085936 -0.047437 -0.995171
    outer loop
      vertex 3.077920 50.777599 12.006000
      vertex 1.950510 59.795399 11.673500
      vertex 6.524240 52.168499 11.642100
    endloop
  endfacet
  facet normal -0.366061 0.037437 -0.929837
    outer loop
      vertex -1.821780 58.166401 13.093000
      vertex -0.200087 64.262299 12.700000
      vertex 1.950510 59.795399 11.673500
    endloop
  endfacet
  facet normal -0.108710 -0.035127 -0.993453
    outer loop
      vertex -1.821780 58.166401 13.093000
      vertex -3.640010 67.730103 12.953800
      vertex -0.200087 64.262299 12.700000
    endloop
  endfacet
  facet normal 0.041303 -0.006690 -0.999124
    outer loop
      vertex -4.172570 58.960800 12.990500
      vertex -3.640010 67.730103 12.953800
      vertex -1.821780 58.166401 13.093000
    endloop
  endfacet
  facet normal 0.219423 -0.246359 -0.944013
    outer loop
      vertex -7.413980 68.365097 12.325500
      vertex -7.745370 71.912903 11.322600
      vertex -3.203920 72.650902 12.185600
    endloop
  endfacet
  facet normal -0.281346 -0.501130 -0.818360
    outer loop
      vertex 11.872300 75.960197 4.062840
      vertex 9.812770 74.155502 5.876010
      vertex 11.697600 79.123100 2.186070
    endloop
  endfacet
  facet normal 0.033703 -0.099842 -0.994432
    outer loop
      vertex 11.552200 57.895599 11.237500
      vertex 6.524240 52.168499 11.642100
      vertex 7.579600 61.543598 10.736600
    endloop
  endfacet
  facet normal -0.139549 -0.079622 -0.987009
    outer loop
      vertex 1.950510 59.795399 11.673500
      vertex 7.579600 61.543598 10.736600
      vertex 6.524240 52.168499 11.642100
    endloop
  endfacet
  facet normal -0.169601 0.018034 -0.985348
    outer loop
      vertex 1.950510 59.795399 11.673500
      vertex 4.453360 62.456200 11.291400
      vertex 7.579600 61.543598 10.736600
    endloop
  endfacet
  facet normal -0.252705 0.099498 -0.962414
    outer loop
      vertex 4.453360 62.456200 11.291400
      vertex 1.950510 59.795399 11.673500
      vertex -0.200087 64.262299 12.700000
    endloop
  endfacet
  facet normal 0.134991 -0.164500 -0.977096
    outer loop
      vertex -3.640010 67.730103 12.953800
      vertex -7.413980 68.365097 12.325500
      vertex -3.203920 72.650902 12.185600
    endloop
  endfacet
  facet normal 0.231038 -0.369014 -0.900250
    outer loop
      vertex -7.745370 71.912903 11.322600
      vertex -2.314130 77.011101 10.626700
      vertex -3.203920 72.650902 12.185600
    endloop
  endfacet
  facet normal -0.541652 -0.411592 -0.732942
    outer loop
      vertex 9.812770 74.155502 5.876010
      vertex 4.460490 74.395302 9.696740
      vertex 5.545220 80.328598 5.563200
    endloop
  endfacet
  facet normal -0.081729 0.177704 -0.980684
    outer loop
      vertex 17.159700 42.775902 11.367900
      vertex 11.631200 48.231400 12.817200
      vertex 16.419901 45.898602 11.995400
    endloop
  endfacet
  facet normal -0.185817 -0.159988 -0.969472
    outer loop
      vertex 12.965900 53.758900 11.649200
      vertex 11.631200 48.231400 12.817200
      vertex 11.552200 57.895599 11.237500
    endloop
  endfacet
  facet normal 0.102837 -0.159644 -0.981804
    outer loop
      vertex 11.631200 48.231400 12.817200
      vertex 6.524240 52.168499 11.642100
      vertex 11.552200 57.895599 11.237500
    endloop
  endfacet
  facet normal -0.206054 -0.115109 -0.971747
    outer loop
      vertex 4.453360 62.456200 11.291400
      vertex 6.771250 65.806000 10.403100
      vertex 7.579600 61.543598 10.736600
    endloop
  endfacet
  facet normal -0.229328 0.158170 -0.960412
    outer loop
      vertex -0.200087 64.262299 12.700000
      vertex 2.380760 66.890602 12.516600
      vertex 4.453360 62.456200 11.291400
    endloop
  endfacet
  facet normal -0.422591 0.052476 -0.904800
    outer loop
      vertex 2.380760 66.890602 12.516600
      vertex 6.771250 65.806000 10.403100
      vertex 4.453360 62.456200 11.291400
    endloop
  endfacet
  facet normal -0.072239 0.001338 -0.997386
    outer loop
      vertex -3.640010 67.730103 12.953800
      vertex 2.380760 66.890602 12.516600
      vertex -0.200087 64.262299 12.700000
    endloop
  endfacet
  facet normal -0.091838 -0.145642 -0.985065
    outer loop
      vertex 2.380760 66.890602 12.516600
      vertex -3.640010 67.730103 12.953800
      vertex -3.203920 72.650902 12.185600
    endloop
  endfacet
  facet normal -0.431315 -0.378567 -0.818935
    outer loop
      vertex 9.812770 74.155502 5.876010
      vertex 11.189600 66.427399 8.723310
      vertex 8.630450 71.003601 7.955730
    endloop
  endfacet
  facet normal -0.563537 -0.297194 -0.770780
    outer loop
      vertex 8.630450 71.003601 7.955730
      vertex 4.460490 74.395302 9.696740
      vertex 9.812770 74.155502 5.876010
    endloop
  endfacet
  facet normal 0.108533 -0.457707 -0.882454
    outer loop
      vertex 12.791200 71.680397 6.395680
      vertex 11.872300 75.960197 4.062840
      vertex 14.647800 73.166496 5.853220
    endloop
  endfacet
  facet normal -0.277078 -0.505045 -0.817409
    outer loop
      vertex 9.812770 74.155502 5.876010
      vertex 11.872300 75.960197 4.062840
      vertex 12.791200 71.680397 6.395680
    endloop
  endfacet
  facet normal -0.095109 -0.317867 -0.943353
    outer loop
      vertex -3.203920 72.650902 12.185600
      vertex -2.314130 77.011101 10.626700
      vertex 0.511426 74.662498 11.133200
    endloop
  endfacet
  facet normal -0.025960 -0.557542 -0.829742
    outer loop
      vertex 14.349900 77.375702 3.034180
      vertex 14.647800 73.166496 5.853220
      vertex 11.872300 75.960197 4.062840
    endloop
  endfacet
  facet normal -0.338732 -0.380725 -0.860412
    outer loop
      vertex 4.460490 74.395302 9.696740
      vertex 0.511426 74.662498 11.133200
      vertex 0.961819 80.222603 8.495590
    endloop
  endfacet
  facet normal -0.476019 -0.442458 -0.760024
    outer loop
      vertex 4.460490 74.395302 9.696740
      vertex 0.961819 80.222603 8.495590
      vertex 5.545220 80.328598 5.563200
    endloop
  endfacet
  facet normal -0.180182 -0.409634 -0.894279
    outer loop
      vertex 0.511426 74.662498 11.133200
      vertex -2.314130 77.011101 10.626700
      vertex 0.961819 80.222603 8.495590
    endloop
  endfacet
  facet normal -0.244975 -0.166399 -0.955143
    outer loop
      vertex 16.419901 45.898602 11.995400
      vertex 11.631200 48.231400 12.817200
      vertex 16.057100 49.745899 11.418200
    endloop
  endfacet
  facet normal -0.254272 -0.140787 -0.956831
    outer loop
      vertex 11.631200 48.231400 12.817200
      vertex 12.965900 53.758900 11.649200
      vertex 16.057100 49.745899 11.418200
    endloop
  endfacet
  facet normal -0.335210 -0.136509 -0.932201
    outer loop
      vertex 7.579600 61.543598 10.736600
      vertex 6.771250 65.806000 10.403100
      vertex 11.189600 66.427399 8.723310
    endloop
  endfacet
  facet normal -0.448120 -0.078738 -0.890499
    outer loop
      vertex 2.380760 66.890602 12.516600
      vertex 4.099270 69.229500 11.445000
      vertex 6.771250 65.806000 10.403100
    endloop
  endfacet
  facet normal -0.297648 -0.317471 -0.900343
    outer loop
      vertex 6.771250 65.806000 10.403100
      vertex 8.630450 71.003601 7.955730
      vertex 11.189600 66.427399 8.723310
    endloop
  endfacet
  facet normal -0.553251 -0.184587 -0.812306
    outer loop
      vertex 4.099270 69.229500 11.445000
      vertex 8.630450 71.003601 7.955730
      vertex 6.771250 65.806000 10.403100
    endloop
  endfacet
  facet normal -0.142262 -0.364417 -0.920305
    outer loop
      vertex 11.189600 66.427399 8.723310
      vertex 9.812770 74.155502 5.876010
      vertex 12.791200 71.680397 6.395680
    endloop
  endfacet
  facet normal -0.532505 -0.237693 -0.812367
    outer loop
      vertex 4.099270 69.229500 11.445000
      vertex 4.460490 74.395302 9.696740
      vertex 8.630450 71.003601 7.955730
    endloop
  endfacet
  facet normal -0.268628 -0.231063 -0.935120
    outer loop
      vertex 2.380760 66.890602 12.516600
      vertex 0.511426 74.662498 11.133200
      vertex 4.099270 69.229500 11.445000
    endloop
  endfacet
  facet normal -0.159495 -0.210060 -0.964591
    outer loop
      vertex 2.380760 66.890602 12.516600
      vertex -3.203920 72.650902 12.185600
      vertex 0.511426 74.662498 11.133200
    endloop
  endfacet
  facet normal -0.234593 -0.125215 -0.963996
    outer loop
      vertex 16.057100 49.745899 11.418200
      vertex 12.965900 53.758900 11.649200
      vertex 19.507900 54.470299 9.964770
    endloop
  endfacet
  facet normal -0.090513 -0.231563 -0.968600
    outer loop
      vertex 16.549200 63.180599 9.507060
      vertex 11.552200 57.895599 11.237500
      vertex 7.579600 61.543598 10.736600
    endloop
  endfacet
  facet normal -0.067122 -0.337454 -0.938946
    outer loop
      vertex 7.579600 61.543598 10.736600
      vertex 11.189600 66.427399 8.723310
      vertex 16.549200 63.180599 9.507060
    endloop
  endfacet
  facet normal -0.040551 -0.297215 -0.953949
    outer loop
      vertex 16.549200 63.180599 9.507060
      vertex 11.189600 66.427399 8.723310
      vertex 15.257100 68.776001 7.818670
    endloop
  endfacet
  facet normal 0.036914 -0.414226 -0.909425
    outer loop
      vertex 11.189600 66.427399 8.723310
      vertex 12.791200 71.680397 6.395680
      vertex 15.257100 68.776001 7.818670
    endloop
  endfacet
  facet normal 0.054423 -0.401681 -0.914161
    outer loop
      vertex 15.257100 68.776001 7.818670
      vertex 12.791200 71.680397 6.395680
      vertex 14.647800 73.166496 5.853220
    endloop
  endfacet
  facet normal -0.344869 -0.279176 -0.896173
    outer loop
      vertex 4.099270 69.229500 11.445000
      vertex 0.511426 74.662498 11.133200
      vertex 4.460490 74.395302 9.696740
    endloop
  endfacet
  facet normal -0.172209 -0.155657 -0.972685
    outer loop
      vertex 12.965900 53.758900 11.649200
      vertex 11.552200 57.895599 11.237500
      vertex 16.549200 63.180599 9.507060
    endloop
  endfacet
  facet normal 0.130421 -0.258689 -0.957116
    outer loop
      vertex 16.549200 63.180599 9.507060
      vertex 15.257100 68.776001 7.818670
      vertex 19.765800 68.461098 8.518160
    endloop
  endfacet
  facet normal -0.116946 0.068380 -0.990781
    outer loop
      vertex -6.443370 -10.028000 18.951799
      vertex 0.756532 -7.891810 18.249399
      vertex 2.579300 -9.825400 17.900801
    endloop
  endfacet
  facet normal -0.322529 -0.773013 -0.546284
    outer loop
      vertex 9.645450 -10.423900 14.575800
      vertex 2.579300 -9.825400 17.900801
      vertex 3.394200 -8.723750 15.860800
    endloop
  endfacet
endsolid MYSOLID
