solid MYSOLID created by IVCON, original data in bone_0_3.iv
  facet normal 0.902872 0.078365 -0.422708
    outer loop
      vertex 7.437420 29.986401 -5.354620
      vertex 8.666100 32.450298 -2.273480
      vertex 8.824320 26.100201 -3.112760
    endloop
  endfacet
  facet normal 0.618721 0.115753 -0.777036
    outer loop
      vertex 7.437420 29.986401 -5.354620
      vertex 7.315170 25.407301 -6.134100
      vertex 4.151510 30.524099 -7.890950
    endloop
  endfacet
  facet normal 0.888308 0.053920 -0.456073
    outer loop
      vertex 7.437420 29.986401 -5.354620
      vertex 8.824320 26.100201 -3.112760
      vertex 7.315170 25.407301 -6.134100
    endloop
  endfacet
  facet normal 0.998182 0.031650 -0.051290
    outer loop
      vertex 8.887570 27.898701 -0.771997
      vertex 8.824320 26.100201 -3.112760
      vertex 8.666100 32.450298 -2.273480
    endloop
  endfacet
  facet normal 0.894986 -0.004225 -0.446074
    outer loop
      vertex 7.315170 25.407301 -6.134100
      vertex 8.824320 26.100201 -3.112760
      vertex 8.734050 20.575899 -3.241550
    endloop
  endfacet
  facet normal 0.929740 -0.003792 0.368197
    outer loop
      vertex 8.887570 27.898701 -0.771997
      vertex 8.174580 29.953699 1.049550
      vertex 8.487090 19.554399 0.153334
    endloop
  endfacet
  facet normal 0.998857 -0.046934 0.009071
    outer loop
      vertex 8.887570 27.898701 -0.771997
      vertex 8.487090 19.554399 0.153334
      vertex 8.824320 26.100201 -3.112760
    endloop
  endfacet
  facet normal 0.722933 0.075779 0.686750
    outer loop
      vertex 6.046390 24.506701 3.890910
      vertex 8.174580 29.953699 1.049550
      vertex 6.044040 31.642500 3.105990
    endloop
  endfacet
  facet normal 0.997580 -0.017867 0.067192
    outer loop
      vertex 8.824320 26.100201 -3.112760
      vertex 8.487090 19.554399 0.153334
      vertex 8.734050 20.575899 -3.241550
    endloop
  endfacet
  facet normal 0.629982 0.304610 -0.714377
    outer loop
      vertex 5.903020 22.216900 -6.313210
      vertex 7.464590 21.470301 -5.254470
      vertex 7.342770 18.412201 -6.665870
    endloop
  endfacet
  facet normal 0.316416 0.416485 -0.852303
    outer loop
      vertex 1.453320 21.724501 -8.205770
      vertex 5.903020 22.216900 -6.313210
      vertex 4.967870 18.524099 -8.464900
    endloop
  endfacet
  facet normal 0.586234 0.291888 -0.755732
    outer loop
      vertex 7.342770 18.412201 -6.665870
      vertex 4.967870 18.524099 -8.464900
      vertex 5.903020 22.216900 -6.313210
    endloop
  endfacet
  facet normal 0.866156 0.180574 -0.466012
    outer loop
      vertex 7.464590 21.470301 -5.254470
      vertex 8.734050 20.575899 -3.241550
      vertex 7.342770 18.412201 -6.665870
    endloop
  endfacet
  facet normal 0.899459 -0.010620 0.436876
    outer loop
      vertex 8.487090 19.554399 0.153334
      vertex 8.174580 29.953699 1.049550
      vertex 7.169150 16.453199 2.791380
    endloop
  endfacet
  facet normal 0.778588 0.022926 0.627116
    outer loop
      vertex 7.169150 16.453199 2.791380
      vertex 8.174580 29.953699 1.049550
      vertex 6.046390 24.506701 3.890910
    endloop
  endfacet
  facet normal 0.892224 0.116711 -0.436250
    outer loop
      vertex 7.342770 18.412201 -6.665870
      vertex 8.734050 20.575899 -3.241550
      vertex 8.240680 13.518500 -6.138680
    endloop
  endfacet
  facet normal -0.555557 -0.078625 -0.827753
    outer loop
      vertex -6.054340 26.141001 -6.576470
      vertex -6.982650 30.541000 -6.371360
      vertex -3.499410 29.498199 -8.610130
    endloop
  endfacet
  facet normal -0.110899 0.218777 -0.969452
    outer loop
      vertex 1.453320 21.724501 -8.205770
      vertex -3.178390 21.801399 -7.658580
      vertex 1.291020 24.622101 -7.533300
    endloop
  endfacet
  facet normal 0.603051 0.120010 -0.788623
    outer loop
      vertex 7.342770 18.412201 -6.665870
      vertex 6.182190 5.995580 -9.442870
      vertex 4.967870 18.524099 -8.464900
    endloop
  endfacet
  facet normal 0.275642 0.374385 -0.885357
    outer loop
      vertex 4.967870 18.524099 -8.464900
      vertex 1.884710 16.092800 -10.452900
      vertex 1.453320 21.724501 -8.205770
    endloop
  endfacet
  facet normal 0.148022 0.376279 -0.914606
    outer loop
      vertex -0.229944 18.191500 -9.931710
      vertex 1.453320 21.724501 -8.205770
      vertex 1.884710 16.092800 -10.452900
    endloop
  endfacet
  facet normal -0.095594 0.473333 -0.875681
    outer loop
      vertex -3.178390 21.801399 -7.658580
      vertex 1.453320 21.724501 -8.205770
      vertex -0.229944 18.191500 -9.931710
    endloop
  endfacet
  facet normal 0.730042 0.008481 0.683349
    outer loop
      vertex 7.169150 16.453199 2.791380
      vertex 6.046390 24.506701 3.890910
      vertex 5.786070 16.276300 4.271160
    endloop
  endfacet
  facet normal 0.464988 0.026177 0.884930
    outer loop
      vertex 6.046390 24.506701 3.890910
      vertex 3.800970 24.663900 5.066120
      vertex 5.786070 16.276300 4.271160
    endloop
  endfacet
  facet normal 0.131110 0.021580 0.991133
    outer loop
      vertex -0.342232 30.430799 5.488630
      vertex -0.923950 25.030199 5.683170
      vertex 3.800970 24.663900 5.066120
    endloop
  endfacet
  facet normal -0.034608 0.207890 -0.977540
    outer loop
      vertex -0.347800 13.928200 -10.834200
      vertex -0.229944 18.191500 -9.931710
      vertex 1.884710 16.092800 -10.452900
    endloop
  endfacet
  facet normal -0.661562 -0.104963 -0.742508
    outer loop
      vertex -6.982650 30.541000 -6.371360
      vertex -6.054340 26.141001 -6.576470
      vertex -7.247550 22.494499 -4.997860
    endloop
  endfacet
  facet normal 0.317263 -0.014784 0.948222
    outer loop
      vertex 3.800970 24.663900 5.066120
      vertex 2.613880 21.105101 5.407820
      vertex 5.786070 16.276300 4.271160
    endloop
  endfacet
  facet normal 0.961504 0.044124 -0.271226
    outer loop
      vertex 8.240680 13.518500 -6.138680
      vertex 8.734050 20.575899 -3.241550
      vertex 8.914250 6.353710 -4.916440
    endloop
  endfacet
  facet normal -0.112253 0.208759 -0.971503
    outer loop
      vertex -0.229944 18.191500 -9.931710
      vertex -0.347800 13.928200 -10.834200
      vertex -2.612460 17.021099 -9.907920
    endloop
  endfacet
  facet normal -0.203934 0.396946 -0.894899
    outer loop
      vertex -2.612460 17.021099 -9.907920
      vertex -3.178390 21.801399 -7.658580
      vertex -0.229944 18.191500 -9.931710
    endloop
  endfacet
  facet normal 0.997058 0.011046 0.075854
    outer loop
      vertex 8.487090 19.554399 0.153334
      vertex 8.636780 10.195500 -0.451420
      vertex 8.734050 20.575899 -3.241550
    endloop
  endfacet
  facet normal 0.133186 0.050610 0.989798
    outer loop
      vertex 3.800970 24.663900 5.066120
      vertex -0.923950 25.030199 5.683170
      vertex 2.613880 21.105101 5.407820
    endloop
  endfacet
  facet normal 0.994641 0.018042 0.101799
    outer loop
      vertex 8.636780 10.195500 -0.451420
      vertex 8.929500 5.205020 -2.427010
      vertex 8.734050 20.575899 -3.241550
    endloop
  endfacet
  facet normal -0.317615 0.354205 -0.879579
    outer loop
      vertex -5.863100 18.671400 -7.949580
      vertex -5.376500 22.247900 -6.685040
      vertex -3.178390 21.801399 -7.658580
    endloop
  endfacet
  facet normal -0.673536 -0.096836 -0.732784
    outer loop
      vertex -7.247550 22.494499 -4.997860
      vertex -6.054340 26.141001 -6.576470
      vertex -5.376500 22.247900 -6.685040
    endloop
  endfacet
  facet normal 0.450571 0.086847 0.888506
    outer loop
      vertex 5.786070 16.276300 4.271160
      vertex 2.613880 21.105101 5.407820
      vertex 2.375110 17.224001 5.908260
    endloop
  endfacet
  facet normal 0.062124 -0.014014 0.997970
    outer loop
      vertex -0.923950 25.030199 5.683170
      vertex -0.852677 21.146700 5.624200
      vertex 2.613880 21.105101 5.407820
    endloop
  endfacet
  facet normal 0.759249 0.069602 -0.647067
    outer loop
      vertex 7.342770 18.412201 -6.665870
      vertex 8.240680 13.518500 -6.138680
      vertex 8.129760 3.998000 -7.292900
    endloop
  endfacet
  facet normal 0.770668 0.069631 -0.633421
    outer loop
      vertex 7.342770 18.412201 -6.665870
      vertex 8.129760 3.998000 -7.292900
      vertex 6.182190 5.995580 -9.442870
    endloop
  endfacet
  facet normal 0.939833 0.030305 -0.340288
    outer loop
      vertex 8.240680 13.518500 -6.138680
      vertex 8.914250 6.353710 -4.916440
      vertex 8.129760 3.998000 -7.292900
    endloop
  endfacet
  facet normal 0.999919 0.012701 -0.000265
    outer loop
      vertex 8.734050 20.575899 -3.241550
      vertex 8.929500 5.205020 -2.427010
      vertex 8.914250 6.353710 -4.916440
    endloop
  endfacet
  facet normal -0.335401 0.368301 -0.867099
    outer loop
      vertex -5.863100 18.671400 -7.949580
      vertex -3.178390 21.801399 -7.658580
      vertex -2.612460 17.021099 -9.907920
    endloop
  endfacet
  facet normal 0.900808 -0.013637 0.434003
    outer loop
      vertex 8.487090 19.554399 0.153334
      vertex 7.169150 16.453199 2.791380
      vertex 8.636780 10.195500 -0.451420
    endloop
  endfacet
  facet normal -0.325212 0.044764 -0.944581
    outer loop
      vertex -6.124580 15.046300 -8.792310
      vertex -2.612460 17.021099 -9.907920
      vertex -0.347800 13.928200 -10.834200
    endloop
  endfacet
  facet normal -0.411568 0.234427 -0.880713
    outer loop
      vertex -2.612460 17.021099 -9.907920
      vertex -6.124580 15.046300 -8.792310
      vertex -5.863100 18.671400 -7.949580
    endloop
  endfacet
  facet normal -0.605539 0.337247 -0.720823
    outer loop
      vertex -7.247550 22.494499 -4.997860
      vertex -5.376500 22.247900 -6.685040
      vertex -5.863100 18.671400 -7.949580
    endloop
  endfacet
  facet normal -0.912004 -0.157763 -0.378629
    outer loop
      vertex -8.291400 21.864300 -2.220950
      vertex -8.663550 25.996500 -3.046310
      vertex -7.247550 22.494499 -4.997860
    endloop
  endfacet
  facet normal -0.996106 -0.085143 0.022868
    outer loop
      vertex -8.291400 21.864300 -2.220950
      vertex -8.333230 22.973000 0.084864
      vertex -8.663550 25.996500 -3.046310
    endloop
  endfacet
  facet normal -0.995561 -0.092856 0.015363
    outer loop
      vertex -8.663550 25.996500 -3.046310
      vertex -8.333230 22.973000 0.084864
      vertex -8.828310 28.292801 0.156117
    endloop
  endfacet
  facet normal -0.867167 -0.054932 0.494979
    outer loop
      vertex -8.828310 28.292801 0.156117
      vertex -7.336960 21.237801 1.985900
      vertex -7.188650 29.415300 3.153250
    endloop
  endfacet
  facet normal -0.681791 0.276132 -0.677430
    outer loop
      vertex -7.664000 16.775200 -6.910010
      vertex -7.247550 22.494499 -4.997860
      vertex -5.863100 18.671400 -7.949580
    endloop
  endfacet
  facet normal 0.732650 -0.110781 0.671530
    outer loop
      vertex 4.544140 9.202770 4.459220
      vertex 7.169150 16.453199 2.791380
      vertex 5.786070 16.276300 4.271160
    endloop
  endfacet
  facet normal 0.063298 0.123796 0.990287
    outer loop
      vertex 2.613880 21.105101 5.407820
      vertex -0.852677 21.146700 5.624200
      vertex 2.375110 17.224001 5.908260
    endloop
  endfacet
  facet normal -0.913642 -0.090336 0.396355
    outer loop
      vertex -8.333230 22.973000 0.084864
      vertex -7.336960 21.237801 1.985900
      vertex -8.828310 28.292801 0.156117
    endloop
  endfacet
  facet normal -0.720255 -0.085215 0.688455
    outer loop
      vertex -7.336960 21.237801 1.985900
      vertex -5.454280 22.418699 4.101710
      vertex -7.188650 29.415300 3.153250
    endloop
  endfacet
  facet normal -0.188247 -0.018366 0.981950
    outer loop
      vertex -0.852677 21.146700 5.624200
      vertex -0.923950 25.030199 5.683170
      vertex -3.672840 21.898199 5.097610
    endloop
  endfacet
  facet normal 0.961473 -0.046938 -0.270862
    outer loop
      vertex 8.129760 3.998000 -7.292900
      vertex 8.914250 6.353710 -4.916440
      vertex 8.616490 -0.030823 -4.867000
    endloop
  endfacet
  facet normal 0.998521 -0.046783 -0.027704
    outer loop
      vertex 8.929500 5.205020 -2.427010
      vertex 8.616490 -0.030823 -4.867000
      vertex 8.914250 6.353710 -4.916440
    endloop
  endfacet
  facet normal -0.329717 0.020183 -0.943864
    outer loop
      vertex -6.124580 15.046300 -8.792310
      vertex -0.347800 13.928200 -10.834200
      vertex -5.356840 10.684600 -9.153770
    endloop
  endfacet
  facet normal -0.875184 0.209518 -0.436068
    outer loop
      vertex -7.664000 16.775200 -6.910010
      vertex -8.787430 17.292101 -4.406940
      vertex -7.247550 22.494499 -4.997860
    endloop
  endfacet
  facet normal -0.925282 0.240572 -0.293220
    outer loop
      vertex -7.247550 22.494499 -4.997860
      vertex -8.787430 17.292101 -4.406940
      vertex -8.291400 21.864300 -2.220950
    endloop
  endfacet
  facet normal 0.883118 -0.035310 0.467821
    outer loop
      vertex 8.636780 10.195500 -0.451420
      vertex 7.169150 16.453199 2.791380
      vertex 7.032210 5.585570 2.229620
    endloop
  endfacet
  facet normal -0.648908 0.216382 -0.729450
    outer loop
      vertex -5.863100 18.671400 -7.949580
      vertex -6.124580 15.046300 -8.792310
      vertex -7.664000 16.775200 -6.910010
    endloop
  endfacet
  facet normal 0.420876 -0.049814 0.905749
    outer loop
      vertex 5.786070 16.276300 4.271160
      vertex 2.375110 17.224001 5.908260
      vertex 4.544140 9.202770 4.459220
    endloop
  endfacet
  facet normal -0.152888 0.114104 0.981634
    outer loop
      vertex -0.852677 21.146700 5.624200
      vertex -3.672840 21.898199 5.097610
      vertex -2.699600 15.234100 6.023820
    endloop
  endfacet
  facet normal 0.936912 -0.090172 -0.337734
    outer loop
      vertex 8.129760 3.998000 -7.292900
      vertex 8.616490 -0.030823 -4.867000
      vertex 7.874560 -0.725751 -6.739660
    endloop
  endfacet
  facet normal 0.948246 -0.067233 0.310337
    outer loop
      vertex 8.929500 5.205020 -2.427010
      vertex 8.636780 10.195500 -0.451420
      vertex 7.656000 1.427830 0.645904
    endloop
  endfacet
  facet normal 0.626906 -0.048095 0.777609
    outer loop
      vertex 7.169150 16.453199 2.791380
      vertex 4.544140 9.202770 4.459220
      vertex 7.032210 5.585570 2.229620
    endloop
  endfacet
  facet normal 0.355828 -0.072104 0.931766
    outer loop
      vertex 1.309490 9.152150 5.690570
      vertex 4.544140 9.202770 4.459220
      vertex 2.375110 17.224001 5.908260
    endloop
  endfacet
  facet normal -0.999347 -0.036120 -0.000762
    outer loop
      vertex -8.333230 22.973000 0.084864
      vertex -8.291400 21.864300 -2.220950
      vertex -8.211500 19.597900 0.424454
    endloop
  endfacet
  facet normal -0.879491 0.016137 0.475641
    outer loop
      vertex -8.333230 22.973000 0.084864
      vertex -8.211500 19.597900 0.424454
      vertex -7.336960 21.237801 1.985900
    endloop
  endfacet
  facet normal -0.004242 0.068752 0.997625
    outer loop
      vertex 2.375110 17.224001 5.908260
      vertex -0.852677 21.146700 5.624200
      vertex -2.699600 15.234100 6.023820
    endloop
  endfacet
  facet normal 0.672967 -0.144503 -0.725420
    outer loop
      vertex 6.188790 1.398960 -8.726780
      vertex 7.874560 -0.725751 -6.739660
      vertex 5.143640 -0.370919 -9.343800
    endloop
  endfacet
  facet normal 0.178321 0.128187 -0.975587
    outer loop
      vertex 2.950560 -0.201665 -10.700100
      vertex 0.866242 0.594999 -10.976400
      vertex 2.517570 4.365060 -10.179200
    endloop
  endfacet
  facet normal 0.689461 -0.120890 -0.714164
    outer loop
      vertex 8.129760 3.998000 -7.292900
      vertex 7.874560 -0.725751 -6.739660
      vertex 6.188790 1.398960 -8.726780
    endloop
  endfacet
  facet normal 0.887343 -0.041788 0.459211
    outer loop
      vertex 7.032210 5.585570 2.229620
      vertex 7.656000 1.427830 0.645904
      vertex 8.636780 10.195500 -0.451420
    endloop
  endfacet
  facet normal -0.723194 0.100056 -0.683359
    outer loop
      vertex -6.124580 15.046300 -8.792310
      vertex -7.968730 10.541300 -7.500270
      vertex -7.664000 16.775200 -6.910010
    endloop
  endfacet
  facet normal -0.991352 0.125651 -0.037861
    outer loop
      vertex -8.787430 17.292101 -4.406940
      vertex -8.775330 17.941401 -2.568900
      vertex -8.291400 21.864300 -2.220950
    endloop
  endfacet
  facet normal -0.986033 0.110592 0.124529
    outer loop
      vertex -8.291400 21.864300 -2.220950
      vertex -8.775330 17.941401 -2.568900
      vertex -8.211500 19.597900 0.424454
    endloop
  endfacet
  facet normal 0.521596 0.268265 -0.809921
    outer loop
      vertex 4.442970 -5.294370 -11.425800
      vertex 2.950560 -0.201665 -10.700100
      vertex 5.143640 -0.370919 -9.343800
    endloop
  endfacet
  facet normal 0.717848 0.182007 -0.671987
    outer loop
      vertex 4.442970 -5.294370 -11.425800
      vertex 5.143640 -0.370919 -9.343800
      vertex 7.102570 -3.733130 -8.161830
    endloop
  endfacet
  facet normal 0.692219 0.155567 -0.704722
    outer loop
      vertex 7.874560 -0.725751 -6.739660
      vertex 7.102570 -3.733130 -8.161830
      vertex 5.143640 -0.370919 -9.343800
    endloop
  endfacet
  facet normal -0.165255 0.150679 -0.974673
    outer loop
      vertex 0.866242 0.594999 -10.976400
      vertex -5.210220 5.381910 -9.206110
      vertex 1.052520 6.223810 -10.137800
    endloop
  endfacet
  facet normal 0.996198 -0.077813 0.039180
    outer loop
      vertex 8.616490 -0.030823 -4.867000
      vertex 8.929500 5.205020 -2.427010
      vertex 8.101620 -5.470390 -2.579080
    endloop
  endfacet
  facet normal 0.951269 -0.078021 0.298330
    outer loop
      vertex 8.929500 5.205020 -2.427010
      vertex 7.656000 1.427830 0.645904
      vertex 8.101620 -5.470390 -2.579080
    endloop
  endfacet
  facet normal -0.533801 -0.023910 -0.845272
    outer loop
      vertex -6.124580 15.046300 -8.792310
      vertex -5.356840 10.684600 -9.153770
      vertex -7.968730 10.541300 -7.500270
    endloop
  endfacet
  facet normal -0.463603 0.098170 0.880588
    outer loop
      vertex -5.463990 11.755000 5.285410
      vertex -3.672840 21.898199 5.097610
      vertex -5.454280 22.418699 4.101710
    endloop
  endfacet
  facet normal -0.348721 0.078870 0.933902
    outer loop
      vertex -2.699600 15.234100 6.023820
      vertex -3.672840 21.898199 5.097610
      vertex -5.463990 11.755000 5.285410
    endloop
  endfacet
  facet normal 0.324034 0.225869 -0.918687
    outer loop
      vertex 2.950560 -0.201665 -10.700100
      vertex 4.442970 -5.294370 -11.425800
      vertex 0.594523 -4.476830 -12.582200
    endloop
  endfacet
  facet normal 0.231341 0.282369 -0.930994
    outer loop
      vertex 0.866242 0.594999 -10.976400
      vertex 2.950560 -0.201665 -10.700100
      vertex 0.594523 -4.476830 -12.582200
    endloop
  endfacet
  facet normal 0.900500 -0.025881 -0.434085
    outer loop
      vertex 7.102570 -3.733130 -8.161830
      vertex 7.874560 -0.725751 -6.739660
      vertex 7.804170 -5.759180 -6.585580
    endloop
  endfacet
  facet normal 0.932451 -0.024075 -0.360494
    outer loop
      vertex 7.804170 -5.759180 -6.585580
      vertex 7.874560 -0.725751 -6.739660
      vertex 8.616490 -0.030823 -4.867000
    endloop
  endfacet
  facet normal -0.840680 0.091631 -0.533723
    outer loop
      vertex -7.968730 10.541300 -7.500270
      vertex -9.273420 9.817340 -5.569510
      vertex -7.664000 16.775200 -6.910010
    endloop
  endfacet
  facet normal -0.895325 0.124717 -0.427596
    outer loop
      vertex -7.664000 16.775200 -6.910010
      vertex -9.273420 9.817340 -5.569510
      vertex -8.787430 17.292101 -4.406940
    endloop
  endfacet
  facet normal -0.985120 0.127941 0.114756
    outer loop
      vertex -8.682520 15.832300 0.579256
      vertex -8.211500 19.597900 0.424454
      vertex -8.775330 17.941401 -2.568900
    endloop
  endfacet
  facet normal 0.026709 -0.010066 0.999593
    outer loop
      vertex -2.699600 15.234100 6.023820
      vertex -3.616630 9.218770 5.987750
      vertex 2.375110 17.224001 5.908260
    endloop
  endfacet
  facet normal -0.770960 0.103061 0.628490
    outer loop
      vertex -7.336960 21.237801 1.985900
      vertex -7.216060 14.667400 3.211630
      vertex -5.454280 22.418699 4.101710
    endloop
  endfacet
  facet normal -0.107807 0.221567 -0.969167
    outer loop
      vertex -4.077400 0.073097 -10.545800
      vertex -5.210220 5.381910 -9.206110
      vertex 0.866242 0.594999 -10.976400
    endloop
  endfacet
  facet normal -0.536306 0.065636 -0.841468
    outer loop
      vertex -5.356840 10.684600 -9.153770
      vertex -6.676180 5.119380 -8.746990
      vertex -7.968730 10.541300 -7.500270
    endloop
  endfacet
  facet normal -0.969284 0.098099 -0.225535
    outer loop
      vertex -9.549060 11.951300 -3.456710
      vertex -8.787430 17.292101 -4.406940
      vertex -9.273420 9.817340 -5.569510
    endloop
  endfacet
  facet normal -0.990253 0.138343 -0.016147
    outer loop
      vertex -9.339410 13.645000 -1.802780
      vertex -8.787430 17.292101 -4.406940
      vertex -9.549060 11.951300 -3.456710
    endloop
  endfacet
  facet normal -0.980496 0.187252 -0.059693
    outer loop
      vertex -8.775330 17.941401 -2.568900
      vertex -8.787430 17.292101 -4.406940
      vertex -9.395580 15.128900 -1.203490
    endloop
  endfacet
  facet normal -0.916651 0.319037 0.240762
    outer loop
      vertex -8.775330 17.941401 -2.568900
      vertex -9.395580 15.128900 -1.203490
      vertex -8.682520 15.832300 0.579256
    endloop
  endfacet
  facet normal -0.917063 0.130204 0.376885
    outer loop
      vertex -8.682520 15.832300 0.579256
      vertex -7.336960 21.237801 1.985900
      vertex -8.211500 19.597900 0.424454
    endloop
  endfacet
  facet normal -0.069244 0.304489 -0.949996
    outer loop
      vertex 0.866242 0.594999 -10.976400
      vertex 0.594523 -4.476830 -12.582200
      vertex -4.617610 -2.593330 -11.598600
    endloop
  endfacet
  facet normal 0.665684 -0.002081 0.746231
    outer loop
      vertex 5.067250 2.116550 3.972810
      vertex 7.032210 5.585570 2.229620
      vertex 4.544140 9.202770 4.459220
    endloop
  endfacet
  facet normal -0.985533 0.030058 -0.166799
    outer loop
      vertex -9.395580 15.128900 -1.203490
      vertex -8.787430 17.292101 -4.406940
      vertex -9.339410 13.645000 -1.802780
    endloop
  endfacet
  facet normal -0.855388 0.079741 0.511813
    outer loop
      vertex -7.336960 21.237801 1.985900
      vertex -8.682520 15.832300 0.579256
      vertex -7.216060 14.667400 3.211630
    endloop
  endfacet
  facet normal -0.120385 0.385580 -0.914787
    outer loop
      vertex -4.077400 0.073097 -10.545800
      vertex 0.866242 0.594999 -10.976400
      vertex -4.617610 -2.593330 -11.598600
    endloop
  endfacet
  facet normal 0.906611 -0.129228 0.401692
    outer loop
      vertex 6.890920 -4.737220 0.389317
      vertex 8.101620 -5.470390 -2.579080
      vertex 7.656000 1.427830 0.645904
    endloop
  endfacet
  facet normal -0.299060 0.001150 -0.954234
    outer loop
      vertex -5.356840 10.684600 -9.153770
      vertex -5.210220 5.381910 -9.206110
      vertex -6.676180 5.119380 -8.746990
    endloop
  endfacet
  facet normal 0.165371 -0.048397 0.985043
    outer loop
      vertex 1.309490 9.152150 5.690570
      vertex 2.375110 17.224001 5.908260
      vertex -1.790600 8.476250 6.177810
    endloop
  endfacet
  facet normal -0.076305 0.066991 0.994832
    outer loop
      vertex -3.616630 9.218770 5.987750
      vertex -1.790600 8.476250 6.177810
      vertex 2.375110 17.224001 5.908260
    endloop
  endfacet
  facet normal -0.704047 0.078981 0.705747
    outer loop
      vertex -5.463990 11.755000 5.285410
      vertex -5.454280 22.418699 4.101710
      vertex -7.216060 14.667400 3.211630
    endloop
  endfacet
  facet normal -0.321738 0.166555 -0.932065
    outer loop
      vertex -4.077400 0.073097 -10.545800
      vertex -6.676180 5.119380 -8.746990
      vertex -5.210220 5.381910 -9.206110
    endloop
  endfacet
  facet normal -0.877105 -0.208035 0.432906
    outer loop
      vertex -9.395580 15.128900 -1.203490
      vertex -9.339410 13.645000 -1.802780
      vertex -8.682520 15.832300 0.579256
    endloop
  endfacet
  facet normal -0.979974 0.138526 0.143044
    outer loop
      vertex -9.119400 11.796800 1.494300
      vertex -8.682520 15.832300 0.579256
      vertex -9.339410 13.645000 -1.802780
    endloop
  endfacet
  facet normal -0.811053 0.211475 0.545410
    outer loop
      vertex -9.119400 11.796800 1.494300
      vertex -7.216060 14.667400 3.211630
      vertex -8.682520 15.832300 0.579256
    endloop
  endfacet
  facet normal -0.305551 0.040877 0.951298
    outer loop
      vertex -3.616630 9.218770 5.987750
      vertex -2.699600 15.234100 6.023820
      vertex -5.463990 11.755000 5.285410
    endloop
  endfacet
  facet normal 0.770829 -0.122479 0.625157
    outer loop
      vertex 5.067250 2.116550 3.972810
      vertex 7.656000 1.427830 0.645904
      vertex 7.032210 5.585570 2.229620
    endloop
  endfacet
  facet normal 0.559724 -0.015553 0.828533
    outer loop
      vertex 2.182630 1.191970 5.904190
      vertex 5.067250 2.116550 3.972810
      vertex 4.544140 9.202770 4.459220
    endloop
  endfacet
  facet normal -0.168028 0.391288 -0.904798
    outer loop
      vertex -4.617610 -2.593330 -11.598600
      vertex -6.844770 0.396476 -9.892030
      vertex -4.077400 0.073097 -10.545800
    endloop
  endfacet
  facet normal -0.196940 0.237638 -0.951180
    outer loop
      vertex -4.077400 0.073097 -10.545800
      vertex -6.844770 0.396476 -9.892030
      vertex -6.676180 5.119380 -8.746990
    endloop
  endfacet
  facet normal -0.688361 0.002690 -0.725363
    outer loop
      vertex -6.676180 5.119380 -8.746990
      vertex -8.987550 4.975840 -6.554060
      vertex -7.968730 10.541300 -7.500270
    endloop
  endfacet
  facet normal -0.797014 0.184390 0.575124
    outer loop
      vertex -7.216060 14.667400 3.211630
      vertex -9.119400 11.796800 1.494300
      vertex -7.882180 10.311300 3.685120
    endloop
  endfacet
  facet normal -0.619366 0.205797 -0.757650
    outer loop
      vertex -7.846800 2.522300 -8.495460
      vertex -6.676180 5.119380 -8.746990
      vertex -6.844770 0.396476 -9.892030
    endloop
  endfacet
  facet normal 0.799486 -0.123680 0.587814
    outer loop
      vertex 6.890920 -4.737220 0.389317
      vertex 7.656000 1.427830 0.645904
      vertex 5.514130 -3.026970 2.621740
    endloop
  endfacet
  facet normal -0.676329 0.237315 -0.697324
    outer loop
      vertex -6.676180 5.119380 -8.746990
      vertex -7.846800 2.522300 -8.495460
      vertex -8.987550 4.975840 -6.554060
    endloop
  endfacet
  facet normal 0.749870 -0.210746 0.627121
    outer loop
      vertex 7.656000 1.427830 0.645904
      vertex 5.067250 2.116550 3.972810
      vertex 2.837200 -1.134630 5.546790
    endloop
  endfacet
  facet normal -0.986411 0.159717 -0.038521
    outer loop
      vertex -10.785100 4.642650 -2.108570
      vertex -9.339410 13.645000 -1.802780
      vertex -9.549060 11.951300 -3.456710
    endloop
  endfacet
  facet normal 0.354169 0.063886 0.932997
    outer loop
      vertex 2.182630 1.191970 5.904190
      vertex 4.544140 9.202770 4.459220
      vertex 1.309490 9.152150 5.690570
    endloop
  endfacet
  facet normal -0.614618 0.177528 0.768589
    outer loop
      vertex -5.463990 11.755000 5.285410
      vertex -7.216060 14.667400 3.211630
      vertex -7.882180 10.311300 3.685120
    endloop
  endfacet
  facet normal -0.417489 0.195527 -0.887396
    outer loop
      vertex -4.617610 -2.593330 -11.598600
      vertex -6.568860 -8.860030 -12.061400
      vertex -6.844770 0.396476 -9.892030
    endloop
  endfacet
  facet normal 0.723336 -0.042095 0.689212
    outer loop
      vertex 7.656000 1.427830 0.645904
      vertex 2.837200 -1.134630 5.546790
      vertex 5.514130 -3.026970 2.621740
    endloop
  endfacet
  facet normal -0.837481 0.060983 -0.543053
    outer loop
      vertex -9.273420 9.817340 -5.569510
      vertex -7.968730 10.541300 -7.500270
      vertex -8.987550 4.975840 -6.554060
    endloop
  endfacet
  facet normal -0.976925 0.151780 0.150270
    outer loop
      vertex -9.119400 11.796800 1.494300
      vertex -9.339410 13.645000 -1.802780
      vertex -10.785100 4.642650 -2.108570
    endloop
  endfacet
  facet normal -0.857457 0.008429 -0.514487
    outer loop
      vertex -8.987550 4.975840 -6.554060
      vertex -7.846800 2.522300 -8.495460
      vertex -9.969310 3.845690 -4.936350
    endloop
  endfacet
  facet normal -0.868665 0.048958 -0.492975
    outer loop
      vertex -8.987550 4.975840 -6.554060
      vertex -9.969310 3.845690 -4.936350
      vertex -9.273420 9.817340 -5.569510
    endloop
  endfacet
  facet normal 0.550255 0.026607 0.834573
    outer loop
      vertex 5.067250 2.116550 3.972810
      vertex 2.182630 1.191970 5.904190
      vertex 2.837200 -1.134630 5.546790
    endloop
  endfacet
  facet normal -0.962497 0.117689 -0.244437
    outer loop
      vertex -9.273420 9.817340 -5.569510
      vertex -10.785100 4.642650 -2.108570
      vertex -9.549060 11.951300 -3.456710
    endloop
  endfacet
  facet normal -0.458654 0.189781 -0.868113
    outer loop
      vertex -6.844770 0.396476 -9.892030
      vertex -6.568860 -8.860030 -12.061400
      vertex -8.990860 -7.377160 -10.457600
    endloop
  endfacet
  facet normal 0.198670 0.048061 0.978887
    outer loop
      vertex 2.182630 1.191970 5.904190
      vertex 1.309490 9.152150 5.690570
      vertex -1.182480 2.621500 6.516970
    endloop
  endfacet
  facet normal 0.139588 0.071710 0.987610
    outer loop
      vertex 1.309490 9.152150 5.690570
      vertex -1.790600 8.476250 6.177810
      vertex -1.182480 2.621500 6.516970
    endloop
  endfacet
  facet normal -0.600498 0.221678 -0.768285
    outer loop
      vertex -8.990860 -7.377160 -10.457600
      vertex -7.846800 2.522300 -8.495460
      vertex -6.844770 0.396476 -9.892030
    endloop
  endfacet
  facet normal 0.695948 -0.111917 0.709317
    outer loop
      vertex 5.514130 -3.026970 2.621740
      vertex 2.837200 -1.134630 5.546790
      vertex 3.377340 -4.017050 4.562040
    endloop
  endfacet
  facet normal -0.951598 0.079411 -0.296909
    outer loop
      vertex -9.273420 9.817340 -5.569510
      vertex -9.969310 3.845690 -4.936350
      vertex -10.785100 4.642650 -2.108570
    endloop
  endfacet
  facet normal -0.802615 0.173301 0.570768
    outer loop
      vertex -9.119400 11.796800 1.494300
      vertex -10.162200 6.520650 1.629900
      vertex -7.882180 10.311300 3.685120
    endloop
  endfacet
  facet normal -0.809037 0.183964 0.558226
    outer loop
      vertex -7.882180 10.311300 3.685120
      vertex -10.162200 6.520650 1.629900
      vertex -9.597580 4.647560 3.065480
    endloop
  endfacet
  facet normal -0.765577 0.301118 -0.568524
    outer loop
      vertex -7.846800 2.522300 -8.495460
      vertex -10.688000 -1.373720 -6.733010
      vertex -9.969310 3.845690 -4.936350
    endloop
  endfacet
  facet normal -0.978625 0.195091 0.065054
    outer loop
      vertex -9.119400 11.796800 1.494300
      vertex -10.785100 4.642650 -2.108570
      vertex -10.162200 6.520650 1.629900
    endloop
  endfacet
  facet normal -0.064121 0.096552 0.993260
    outer loop
      vertex -1.790600 8.476250 6.177810
      vertex -3.616630 9.218770 5.987750
      vertex -4.245050 3.341420 6.518500
    endloop
  endfacet
  facet normal -0.601950 0.136059 0.786857
    outer loop
      vertex -6.769650 4.308170 5.574240
      vertex -5.463990 11.755000 5.285410
      vertex -7.882180 10.311300 3.685120
    endloop
  endfacet
  facet normal -0.253954 0.081905 0.963742
    outer loop
      vertex -3.616630 9.218770 5.987750
      vertex -5.463990 11.755000 5.285410
      vertex -6.769650 4.308170 5.574240
    endloop
  endfacet
  facet normal 0.356845 -0.042954 0.933175
    outer loop
      vertex 2.837200 -1.134630 5.546790
      vertex 2.182630 1.191970 5.904190
      vertex 1.084670 -1.151930 6.216160
    endloop
  endfacet
  facet normal -0.651432 0.115259 0.749901
    outer loop
      vertex -7.882180 10.311300 3.685120
      vertex -9.597580 4.647560 3.065480
      vertex -6.769650 4.308170 5.574240
    endloop
  endfacet
  facet normal -0.307852 0.118170 0.944067
    outer loop
      vertex -4.245050 3.341420 6.518500
      vertex -3.616630 9.218770 5.987750
      vertex -6.769650 4.308170 5.574240
    endloop
  endfacet
  facet normal -0.710429 0.214930 -0.670146
    outer loop
      vertex -7.846800 2.522300 -8.495460
      vertex -8.990860 -7.377160 -10.457600
      vertex -10.688000 -1.373720 -6.733010
    endloop
  endfacet
  facet normal -0.912769 0.239570 -0.330845
    outer loop
      vertex -10.785100 4.642650 -2.108570
      vertex -9.969310 3.845690 -4.936350
      vertex -10.688000 -1.373720 -6.733010
    endloop
  endfacet
  facet normal 0.098247 0.085938 0.991445
    outer loop
      vertex -3.468110 0.600575 6.515410
      vertex 1.084670 -1.151930 6.216160
      vertex 2.182630 1.191970 5.904190
    endloop
  endfacet
  facet normal -0.981745 0.174363 0.075987
    outer loop
      vertex -10.785100 4.642650 -2.108570
      vertex -10.768200 3.292880 1.207000
      vertex -10.162200 6.520650 1.629900
    endloop
  endfacet
  facet normal 0.120711 -0.137281 0.983149
    outer loop
      vertex -1.182480 2.621500 6.516970
      vertex -3.468110 0.600575 6.515410
      vertex 2.182630 1.191970 5.904190
    endloop
  endfacet
  facet normal 0.014443 0.059321 0.998134
    outer loop
      vertex -1.182480 2.621500 6.516970
      vertex -1.790600 8.476250 6.177810
      vertex -4.245050 3.341420 6.518500
    endloop
  endfacet
  facet normal 0.000251 -0.001056 0.999999
    outer loop
      vertex -4.245050 3.341420 6.518500
      vertex -3.468110 0.600575 6.515410
      vertex -1.182480 2.621500 6.516970
    endloop
  endfacet
  facet normal -0.726481 0.202108 -0.656793
    outer loop
      vertex -8.990860 -7.377160 -10.457600
      vertex -11.574200 -7.161160 -7.533690
      vertex -10.688000 -1.373720 -6.733010
    endloop
  endfacet
  facet normal -0.873487 0.101612 0.476126
    outer loop
      vertex -10.162200 6.520650 1.629900
      vertex -10.768200 3.292880 1.207000
      vertex -9.597580 4.647560 3.065480
    endloop
  endfacet
  facet normal -0.327337 0.065862 0.942609
    outer loop
      vertex -4.245050 3.341420 6.518500
      vertex -6.769650 4.308170 5.574240
      vertex -6.145740 1.570650 5.982180
    endloop
  endfacet
  facet normal -0.967330 0.144502 -0.208307
    outer loop
      vertex -11.485000 -1.508350 -3.125320
      vertex -10.785100 4.642650 -2.108570
      vertex -10.688000 -1.373720 -6.733010
    endloop
  endfacet
  facet normal -0.989790 0.130183 0.058043
    outer loop
      vertex -11.308200 -0.636996 0.812785
      vertex -10.768200 3.292880 1.207000
      vertex -10.785100 4.642650 -2.108570
    endloop
  endfacet
  facet normal -0.216662 -0.062515 0.974243
    outer loop
      vertex -3.468110 0.600575 6.515410
      vertex -4.245050 3.341420 6.518500
      vertex -6.145740 1.570650 5.982180
    endloop
  endfacet
  facet normal -0.993755 0.109714 0.020339
    outer loop
      vertex -11.308200 -0.636996 0.812785
      vertex -10.785100 4.642650 -2.108570
      vertex -11.485000 -1.508350 -3.125320
    endloop
  endfacet
  facet normal 0.011725 -0.138635 0.990274
    outer loop
      vertex 1.084670 -1.151930 6.216160
      vertex -3.468110 0.600575 6.515410
      vertex -5.573270 -1.600800 6.232150
    endloop
  endfacet
  facet normal -0.487327 0.019027 0.873012
    outer loop
      vertex -6.769650 4.308170 5.574240
      vertex -8.420260 0.139181 4.743710
      vertex -6.145740 1.570650 5.982180
    endloop
  endfacet
  facet normal -0.179375 0.045081 0.982747
    outer loop
      vertex -3.468110 0.600575 6.515410
      vertex -6.145740 1.570650 5.982180
      vertex -5.573270 -1.600800 6.232150
    endloop
  endfacet
  facet normal -0.652345 0.108855 0.750064
    outer loop
      vertex -6.769650 4.308170 5.574240
      vertex -9.597580 4.647560 3.065480
      vertex -8.420260 0.139181 4.743710
    endloop
  endfacet
  facet normal -0.470644 -0.015422 0.882189
    outer loop
      vertex -6.145740 1.570650 5.982180
      vertex -8.420260 0.139181 4.743710
      vertex -5.573270 -1.600800 6.232150
    endloop
  endfacet
  facet normal -0.991241 0.131157 0.015481
    outer loop
      vertex -11.308200 -0.636996 0.812785
      vertex -11.485000 -1.508350 -3.125320
      vertex -12.230100 -7.421540 -0.736316
    endloop
  endfacet
  facet normal -0.899605 0.080559 0.429209
    outer loop
      vertex -11.308200 -0.636996 0.812785
      vertex -10.166000 -2.439740 3.545150
      vertex -10.768200 3.292880 1.207000
    endloop
  endfacet
  facet normal -0.873623 0.102265 0.475735
    outer loop
      vertex -9.597580 4.647560 3.065480
      vertex -10.768200 3.292880 1.207000
      vertex -10.166000 -2.439740 3.545150
    endloop
  endfacet
  facet normal -0.662203 0.103340 0.742164
    outer loop
      vertex -9.597580 4.647560 3.065480
      vertex -10.166000 -2.439740 3.545150
      vertex -8.420260 0.139181 4.743710
    endloop
  endfacet
  facet normal -0.376599 0.163773 0.911785
    outer loop
      vertex -8.420260 0.139181 4.743710
      vertex -7.940710 -3.161650 5.534670
      vertex -5.573270 -1.600800 6.232150
    endloop
  endfacet
  facet normal -0.648119 0.087125 0.756539
    outer loop
      vertex -7.940710 -3.161650 5.534670
      vertex -8.420260 0.139181 4.743710
      vertex -10.166000 -2.439740 3.545150
    endloop
  endfacet
  facet normal -0.663190 0.017794 0.748239
    outer loop
      vertex -9.781760 -7.357170 4.002660
      vertex -7.940710 -3.161650 5.534670
      vertex -10.166000 -2.439740 3.545150
    endloop
  endfacet
  facet normal 0.990532 -0.121019 -0.064816
    outer loop
      vertex 8.616490 -0.030823 -4.867000
      vertex 8.101620 -5.470390 -2.579080
      vertex 7.804170 -5.759180 -6.585580
    endloop
  endfacet
  facet normal 0.303032 -0.146267 -0.941689
    outer loop
      vertex 4.622470 6.568040 -10.033700
      vertex 6.182190 5.995580 -9.442870
      vertex 6.188790 1.398960 -8.726780
    endloop
  endfacet
  facet normal 0.473282 0.114057 -0.873496
    outer loop
      vertex 6.182190 5.995580 -9.442870
      vertex 1.884710 16.092800 -10.452900
      vertex 4.967870 18.524099 -8.464900
    endloop
  endfacet
  facet normal -0.318380 0.000553 -0.947963
    outer loop
      vertex -5.356840 10.684600 -9.153770
      vertex -0.347800 13.928200 -10.834200
      vertex -5.210220 5.381910 -9.206110
    endloop
  endfacet
  facet normal -0.131342 -0.112896 -0.984888
    outer loop
      vertex -0.347800 13.928200 -10.834200
      vertex 1.052520 6.223810 -10.137800
      vertex -5.210220 5.381910 -9.206110
    endloop
  endfacet
  facet normal 0.528485 0.145509 -0.836380
    outer loop
      vertex 2.950560 -0.201665 -10.700100
      vertex 2.517570 4.365060 -10.179200
      vertex 5.143640 -0.370919 -9.343800
    endloop
  endfacet
  facet normal 0.415758 0.070593 -0.906731
    outer loop
      vertex 6.188790 1.398960 -8.726780
      vertex 5.143640 -0.370919 -9.343800
      vertex 2.517570 4.365060 -10.179200
    endloop
  endfacet
  facet normal 0.150961 0.140779 -0.978464
    outer loop
      vertex 2.517570 4.365060 -10.179200
      vertex 0.866242 0.594999 -10.976400
      vertex 1.052520 6.223810 -10.137800
    endloop
  endfacet
  facet normal 0.037069 -0.083276 -0.995837
    outer loop
      vertex 1.052520 6.223810 -10.137800
      vertex -0.347800 13.928200 -10.834200
      vertex 4.622470 6.568040 -10.033700
    endloop
  endfacet
  facet normal 0.164662 0.003919 -0.986342
    outer loop
      vertex 1.884710 16.092800 -10.452900
      vertex 4.622470 6.568040 -10.033700
      vertex -0.347800 13.928200 -10.834200
    endloop
  endfacet
  facet normal 0.242120 -0.168229 -0.955550
    outer loop
      vertex 6.188790 1.398960 -8.726780
      vertex 2.517570 4.365060 -10.179200
      vertex 4.622470 6.568040 -10.033700
    endloop
  endfacet
  facet normal 0.682756 -0.111511 -0.722087
    outer loop
      vertex 6.188790 1.398960 -8.726780
      vertex 6.182190 5.995580 -9.442870
      vertex 8.129760 3.998000 -7.292900
    endloop
  endfacet
  facet normal 0.374873 0.067057 -0.924648
    outer loop
      vertex 6.182190 5.995580 -9.442870
      vertex 4.622470 6.568040 -10.033700
      vertex 1.884710 16.092800 -10.452900
    endloop
  endfacet
  facet normal 0.025074 0.042010 -0.998802
    outer loop
      vertex 4.622470 6.568040 -10.033700
      vertex 2.517570 4.365060 -10.179200
      vertex 1.052520 6.223810 -10.137800
    endloop
  endfacet
  facet normal 0.287922 0.231770 -0.929184
    outer loop
      vertex 1.453320 21.724501 -8.205770
      vertex 1.291020 24.622101 -7.533300
      vertex 3.211560 23.451300 -7.230230
    endloop
  endfacet
  facet normal 0.822710 -0.094035 -0.560630
    outer loop
      vertex 7.315170 25.407301 -6.134100
      vertex 8.734050 20.575899 -3.241550
      vertex 7.464590 21.470301 -5.254470
    endloop
  endfacet
  facet normal 0.479450 -0.163815 -0.862144
    outer loop
      vertex 5.903020 22.216900 -6.313210
      vertex 5.351680 26.156200 -7.368320
      vertex 7.315170 25.407301 -6.134100
    endloop
  endfacet
  facet normal 0.545019 0.049612 -0.836954
    outer loop
      vertex 4.151510 30.524099 -7.890950
      vertex 7.315170 25.407301 -6.134100
      vertex 5.351680 26.156200 -7.368320
    endloop
  endfacet
  facet normal -0.354479 -0.035662 -0.934384
    outer loop
      vertex -5.376500 22.247900 -6.685040
      vertex -6.054340 26.141001 -6.576470
      vertex -3.731750 25.142300 -7.419480
    endloop
  endfacet
  facet normal -0.015476 0.068826 -0.997509
    outer loop
      vertex 1.291020 24.622101 -7.533300
      vertex -3.178390 21.801399 -7.658580
      vertex -3.731750 25.142300 -7.419480
    endloop
  endfacet
  facet normal -0.405245 -0.001694 -0.914207
    outer loop
      vertex -3.178390 21.801399 -7.658580
      vertex -5.376500 22.247900 -6.685040
      vertex -3.731750 25.142300 -7.419480
    endloop
  endfacet
  facet normal 0.358488 -0.013187 -0.933441
    outer loop
      vertex 5.351680 26.156200 -7.368320
      vertex 1.505340 29.832500 -8.897440
      vertex 4.151510 30.524099 -7.890950
    endloop
  endfacet
  facet normal 0.221025 -0.223341 -0.949351
    outer loop
      vertex 5.351680 26.156200 -7.368320
      vertex 5.903020 22.216900 -6.313210
      vertex 3.211560 23.451300 -7.230230
    endloop
  endfacet
  facet normal 0.374932 0.136281 -0.916981
    outer loop
      vertex 1.453320 21.724501 -8.205770
      vertex 3.211560 23.451300 -7.230230
      vertex 5.903020 22.216900 -6.313210
    endloop
  endfacet
  facet normal -0.037892 -0.261599 -0.964433
    outer loop
      vertex -3.499410 29.498199 -8.610130
      vertex 1.505340 29.832500 -8.897440
      vertex -3.731750 25.142300 -7.419480
    endloop
  endfacet
  facet normal -0.047918 -0.251139 -0.966764
    outer loop
      vertex 1.505340 29.832500 -8.897440
      vertex 1.291020 24.622101 -7.533300
      vertex -3.731750 25.142300 -7.419480
    endloop
  endfacet
  facet normal 0.190842 -0.200056 -0.961019
    outer loop
      vertex 5.351680 26.156200 -7.368320
      vertex 3.211560 23.451300 -7.230230
      vertex 1.505340 29.832500 -8.897440
    endloop
  endfacet
  facet normal -0.001700 -0.253209 -0.967410
    outer loop
      vertex 1.505340 29.832500 -8.897440
      vertex 3.211560 23.451300 -7.230230
      vertex 1.291020 24.622101 -7.533300
    endloop
  endfacet
  facet normal -0.414810 -0.219261 -0.883095
    outer loop
      vertex -3.499410 29.498199 -8.610130
      vertex -3.731750 25.142300 -7.419480
      vertex -6.054340 26.141001 -6.576470
    endloop
  endfacet
  facet normal 0.495390 -0.171464 -0.851580
    outer loop
      vertex 5.903020 22.216900 -6.313210
      vertex 7.315170 25.407301 -6.134100
      vertex 7.464590 21.470301 -5.254470
    endloop
  endfacet
  facet normal -0.054672 -0.039014 -0.997742
    outer loop
      vertex -3.499410 29.498199 -8.610130
      vertex -1.657820 31.478600 -8.788480
      vertex 1.505340 29.832500 -8.897440
    endloop
  endfacet
endsolid MYSOLID
