solid MYSOLID created by IVCON, original data in bone_1_4.iv
  facet normal 0.585942 -0.626181 0.514363
    outer loop
      vertex -4.176850 19.912701 -2.836760
      vertex -6.765720 19.252899 -0.690860
      vertex -5.784340 18.402901 -2.843590
    endloop
  endfacet
  facet normal 0.590432 -0.614347 0.523420
    outer loop
      vertex -4.176850 19.912701 -2.836760
      vertex -4.073390 21.712000 -0.841597
      vertex -6.765720 19.252899 -0.690860
    endloop
  endfacet
  facet normal 0.667648 -0.719174 0.192443
    outer loop
      vertex -6.765720 19.252899 -0.690860
      vertex -4.073390 21.712000 -0.841597
      vertex -6.159180 20.337200 1.256970
    endloop
  endfacet
  facet normal 0.781437 -0.370105 0.502374
    outer loop
      vertex -5.784340 18.402901 -2.843590
      vertex -6.765720 19.252899 -0.690860
      vertex -7.731040 14.908100 -2.390180
    endloop
  endfacet
  facet normal 0.827828 -0.354101 0.435101
    outer loop
      vertex -7.731040 14.908100 -2.390180
      vertex -6.765720 19.252899 -0.690860
      vertex -8.459830 15.312600 -0.674380
    endloop
  endfacet
  facet normal 0.919442 -0.371970 -0.127535
    outer loop
      vertex -8.459830 15.312600 -0.674380
      vertex -6.159180 20.337200 1.256970
      vertex -7.643070 16.605000 1.444490
    endloop
  endfacet
  facet normal 0.916591 -0.394359 -0.065891
    outer loop
      vertex -8.459830 15.312600 -0.674380
      vertex -6.765720 19.252899 -0.690860
      vertex -6.159180 20.337200 1.256970
    endloop
  endfacet
  facet normal 0.375431 -0.921920 0.095468
    outer loop
      vertex -4.073390 21.712000 -0.841597
      vertex -1.171470 23.143400 1.569310
      vertex -2.618380 22.625000 2.253220
    endloop
  endfacet
  facet normal 0.544359 -0.838809 -0.008471
    outer loop
      vertex -6.159180 20.337200 1.256970
      vertex -4.073390 21.712000 -0.841597
      vertex -2.618380 22.625000 2.253220
    endloop
  endfacet
  facet normal 0.693149 -0.301141 0.654872
    outer loop
      vertex -6.034740 13.493800 -4.835990
      vertex -5.784340 18.402901 -2.843590
      vertex -7.731040 14.908100 -2.390180
    endloop
  endfacet
  facet normal 0.295457 -0.717034 0.631322
    outer loop
      vertex -4.073390 21.712000 -0.841597
      vertex -4.176850 19.912701 -2.836760
      vertex -0.986437 21.877501 -2.098310
    endloop
  endfacet
  facet normal 0.201917 -0.903962 0.376938
    outer loop
      vertex -0.986437 21.877501 -2.098310
      vertex -0.049766 23.041800 0.192127
      vertex -4.073390 21.712000 -0.841597
    endloop
  endfacet
  facet normal 0.240578 -0.933800 0.264839
    outer loop
      vertex -4.073390 21.712000 -0.841597
      vertex -0.049766 23.041800 0.192127
      vertex -1.171470 23.143400 1.569310
    endloop
  endfacet
  facet normal 0.723892 -0.398776 -0.562990
    outer loop
      vertex -4.094890 20.255400 3.969170
      vertex -6.159180 20.337200 1.256970
      vertex -4.312750 21.262300 2.975840
    endloop
  endfacet
  facet normal 0.747428 -0.326248 -0.578717
    outer loop
      vertex -4.094890 20.255400 3.969170
      vertex -7.643070 16.605000 1.444490
      vertex -6.159180 20.337200 1.256970
    endloop
  endfacet
  facet normal 0.568997 -0.802558 -0.179284
    outer loop
      vertex -6.159180 20.337200 1.256970
      vertex -2.618380 22.625000 2.253220
      vertex -4.312750 21.262300 2.975840
    endloop
  endfacet
  facet normal 0.536343 -0.340745 0.772159
    outer loop
      vertex -3.739380 13.462300 -6.444250
      vertex -5.784340 18.402901 -2.843590
      vertex -6.034740 13.493800 -4.835990
    endloop
  endfacet
  facet normal 0.941632 -0.273668 -0.196048
    outer loop
      vertex -7.643070 16.605000 1.444490
      vertex -8.707760 13.664600 0.435278
      vertex -8.459830 15.312600 -0.674380
    endloop
  endfacet
  facet normal 0.680217 -0.167644 -0.713582
    outer loop
      vertex -7.330580 13.481200 2.476250
      vertex -7.643070 16.605000 1.444490
      vertex -4.094890 20.255400 3.969170
    endloop
  endfacet
  facet normal 0.432594 -0.778779 -0.454274
    outer loop
      vertex -4.312750 21.262300 2.975840
      vertex -2.618380 22.625000 2.253220
      vertex -1.642540 22.055700 4.158460
    endloop
  endfacet
  facet normal 0.468529 -0.566991 -0.677496
    outer loop
      vertex -1.642540 22.055700 4.158460
      vertex -4.094890 20.255400 3.969170
      vertex -4.312750 21.262300 2.975840
    endloop
  endfacet
  facet normal 0.734795 -0.225169 0.639824
    outer loop
      vertex -6.034740 13.493800 -4.835990
      vertex -7.731040 14.908100 -2.390180
      vertex -7.876830 11.460500 -3.436040
    endloop
  endfacet
  facet normal 0.893287 -0.164652 0.418243
    outer loop
      vertex -7.876830 11.460500 -3.436040
      vertex -7.731040 14.908100 -2.390180
      vertex -8.459830 15.312600 -0.674380
    endloop
  endfacet
  facet normal 0.419136 -0.449824 0.788659
    outer loop
      vertex 0.033315 16.600100 -6.963660
      vertex -4.176850 19.912701 -2.836760
      vertex -5.784340 18.402901 -2.843590
    endloop
  endfacet
  facet normal 0.221767 -0.637434 0.737900
    outer loop
      vertex -0.986437 21.877501 -2.098310
      vertex -4.176850 19.912701 -2.836760
      vertex 0.033315 16.600100 -6.963660
    endloop
  endfacet
  facet normal 0.110138 -0.662110 0.741269
    outer loop
      vertex 0.033315 16.600100 -6.963660
      vertex 1.769350 19.681700 -4.469080
      vertex -0.986437 21.877501 -2.098310
    endloop
  endfacet
  facet normal 0.176972 -0.914474 -0.363894
    outer loop
      vertex 0.221328 22.609699 3.672700
      vertex -1.642540 22.055700 4.158460
      vertex -2.618380 22.625000 2.253220
    endloop
  endfacet
  facet normal 0.167627 -0.923403 -0.345296
    outer loop
      vertex 0.221328 22.609699 3.672700
      vertex -2.618380 22.625000 2.253220
      vertex -1.171470 23.143400 1.569310
    endloop
  endfacet
  facet normal 0.443599 -0.400650 0.801685
    outer loop
      vertex 0.033315 16.600100 -6.963660
      vertex -5.784340 18.402901 -2.843590
      vertex -3.739380 13.462300 -6.444250
    endloop
  endfacet
  facet normal 0.904927 -0.148866 0.398681
    outer loop
      vertex -9.342390 6.328850 -2.025650
      vertex -7.876830 11.460500 -3.436040
      vertex -8.459830 15.312600 -0.674380
    endloop
  endfacet
  facet normal 0.820109 -0.103818 -0.562711
    outer loop
      vertex -7.330580 13.481200 2.476250
      vertex -8.707760 13.664600 0.435278
      vertex -7.643070 16.605000 1.444490
    endloop
  endfacet
  facet normal -0.063106 -0.767703 0.637690
    outer loop
      vertex 2.225040 21.955500 -1.686600
      vertex -0.986437 21.877501 -2.098310
      vertex 1.769350 19.681700 -4.469080
    endloop
  endfacet
  facet normal 0.335132 0.047302 -0.940983
    outer loop
      vertex -5.311830 15.795800 3.311580
      vertex -7.330580 13.481200 2.476250
      vertex -4.094890 20.255400 3.969170
    endloop
  endfacet
  facet normal -0.038155 -0.884399 0.465170
    outer loop
      vertex -0.049766 23.041800 0.192127
      vertex -0.986437 21.877501 -2.098310
      vertex 2.225040 21.955500 -1.686600
    endloop
  endfacet
  facet normal -0.154383 -0.924777 0.347785
    outer loop
      vertex 2.225040 21.955500 -1.686600
      vertex 2.683790 22.618601 0.280261
      vertex -0.049766 23.041800 0.192127
    endloop
  endfacet
  facet normal -0.155474 -0.982098 0.106359
    outer loop
      vertex -0.049766 23.041800 0.192127
      vertex 2.683790 22.618601 0.280261
      vertex 1.603080 23.006800 2.285040
    endloop
  endfacet
  facet normal -0.056301 -0.998028 0.027772
    outer loop
      vertex -1.171470 23.143400 1.569310
      vertex -0.049766 23.041800 0.192127
      vertex 1.603080 23.006800 2.285040
    endloop
  endfacet
  facet normal 0.018898 -0.966058 -0.257635
    outer loop
      vertex 0.221328 22.609699 3.672700
      vertex -1.171470 23.143400 1.569310
      vertex 1.603080 23.006800 2.285040
    endloop
  endfacet
  facet normal 0.408597 -0.474616 -0.779607
    outer loop
      vertex -4.094890 20.255400 3.969170
      vertex -1.642540 22.055700 4.158460
      vertex -1.958520 19.945400 5.277580
    endloop
  endfacet
  facet normal 0.255759 -0.482539 -0.837701
    outer loop
      vertex -1.958520 19.945400 5.277580
      vertex -1.642540 22.055700 4.158460
      vertex 0.320308 21.415800 5.126340
    endloop
  endfacet
  facet normal 0.988898 -0.111861 0.097814
    outer loop
      vertex -9.351340 7.612880 -0.466728
      vertex -9.342390 6.328850 -2.025650
      vertex -8.459830 15.312600 -0.674380
    endloop
  endfacet
  facet normal 0.992120 -0.113438 0.053197
    outer loop
      vertex -8.707760 13.664600 0.435278
      vertex -9.351340 7.612880 -0.466728
      vertex -8.459830 15.312600 -0.674380
    endloop
  endfacet
  facet normal 0.933297 -0.046173 -0.356124
    outer loop
      vertex -8.498900 9.447830 1.529360
      vertex -9.351340 7.612880 -0.466728
      vertex -8.707760 13.664600 0.435278
    endloop
  endfacet
  facet normal 0.634271 -0.059419 -0.770824
    outer loop
      vertex -3.097690 17.457899 5.005360
      vertex -5.311830 15.795800 3.311580
      vertex -4.094890 20.255400 3.969170
    endloop
  endfacet
  facet normal 0.062861 -0.769137 -0.635985
    outer loop
      vertex -1.642540 22.055700 4.158460
      vertex 0.221328 22.609699 3.672700
      vertex 0.320308 21.415800 5.126340
    endloop
  endfacet
  facet normal 0.755967 -0.036261 0.653605
    outer loop
      vertex -7.876830 11.460500 -3.436040
      vertex -9.342390 6.328850 -2.025650
      vertex -6.501970 8.297760 -5.201680
    endloop
  endfacet
  facet normal 0.819905 -0.105391 -0.562715
    outer loop
      vertex -7.330580 13.481200 2.476250
      vertex -8.498900 9.447830 1.529360
      vertex -8.707760 13.664600 0.435278
    endloop
  endfacet
  facet normal -0.304577 -0.712498 0.632123
    outer loop
      vertex 1.769350 19.681700 -4.469080
      vertex 4.096720 20.216499 -2.744880
      vertex 2.225040 21.955500 -1.686600
    endloop
  endfacet
  facet normal -0.357754 -0.933738 -0.012047
    outer loop
      vertex 2.683790 22.618601 0.280261
      vertex 3.273470 22.363501 2.541110
      vertex 1.603080 23.006800 2.285040
    endloop
  endfacet
  facet normal 0.502842 -0.136881 -0.853471
    outer loop
      vertex -4.094890 20.255400 3.969170
      vertex -1.958520 19.945400 5.277580
      vertex -3.097690 17.457899 5.005360
    endloop
  endfacet
  facet normal -0.231401 -0.849799 -0.473599
    outer loop
      vertex 0.221328 22.609699 3.672700
      vertex 1.603080 23.006800 2.285040
      vertex 2.351120 21.682100 4.296510
    endloop
  endfacet
  facet normal -0.255641 -0.848349 -0.463630
    outer loop
      vertex 2.351120 21.682100 4.296510
      vertex 1.603080 23.006800 2.285040
      vertex 3.273470 22.363501 2.541110
    endloop
  endfacet
  facet normal -0.152938 -0.768760 -0.620982
    outer loop
      vertex 0.221328 22.609699 3.672700
      vertex 2.351120 21.682100 4.296510
      vertex 0.320308 21.415800 5.126340
    endloop
  endfacet
  facet normal 0.569433 -0.108551 0.814839
    outer loop
      vertex -6.501970 8.297760 -5.201680
      vertex -3.739380 13.462300 -6.444250
      vertex -6.034740 13.493800 -4.835990
    endloop
  endfacet
  facet normal 0.676710 -0.112063 0.727672
    outer loop
      vertex -6.034740 13.493800 -4.835990
      vertex -7.876830 11.460500 -3.436040
      vertex -6.501970 8.297760 -5.201680
    endloop
  endfacet
  facet normal -0.452968 -0.765562 0.456875
    outer loop
      vertex 2.225040 21.955500 -1.686600
      vertex 4.096720 20.216499 -2.744880
      vertex 4.744800 21.496401 0.042321
    endloop
  endfacet
  facet normal -0.409317 -0.831418 0.375771
    outer loop
      vertex 2.225040 21.955500 -1.686600
      vertex 4.744800 21.496401 0.042321
      vertex 2.683790 22.618601 0.280261
    endloop
  endfacet
  facet normal -0.475832 -0.879184 0.024906
    outer loop
      vertex 2.683790 22.618601 0.280261
      vertex 4.744800 21.496401 0.042321
      vertex 3.273470 22.363501 2.541110
    endloop
  endfacet
  facet normal 0.069750 -0.208439 -0.975545
    outer loop
      vertex 0.320308 21.415800 5.126340
      vertex 0.495448 17.591400 5.956000
      vertex -1.958520 19.945400 5.277580
    endloop
  endfacet
  facet normal 0.667741 -0.183620 0.721391
    outer loop
      vertex -3.739380 13.462300 -6.444250
      vertex -6.501970 8.297760 -5.201680
      vertex -4.688060 5.037630 -7.710510
    endloop
  endfacet
  facet normal -0.213738 -0.453482 0.865258
    outer loop
      vertex 3.311050 15.751400 -6.598790
      vertex 0.033315 16.600100 -6.963660
      vertex 1.036000 14.725200 -7.698610
    endloop
  endfacet
  facet normal -0.228433 -0.531570 0.815630
    outer loop
      vertex 0.033315 16.600100 -6.963660
      vertex 3.311050 15.751400 -6.598790
      vertex 1.769350 19.681700 -4.469080
    endloop
  endfacet
  facet normal -0.357797 -0.549474 0.755023
    outer loop
      vertex 1.769350 19.681700 -4.469080
      vertex 3.311050 15.751400 -6.598790
      vertex 4.539060 17.479900 -4.758920
    endloop
  endfacet
  facet normal -0.391299 -0.585669 0.709843
    outer loop
      vertex 4.539060 17.479900 -4.758920
      vertex 4.096720 20.216499 -2.744880
      vertex 1.769350 19.681700 -4.469080
    endloop
  endfacet
  facet normal 0.435691 -0.055784 -0.898366
    outer loop
      vertex -2.748070 11.249500 4.837260
      vertex -7.330580 13.481200 2.476250
      vertex -5.311830 15.795800 3.311580
    endloop
  endfacet
  facet normal -0.557776 -0.697438 0.449962
    outer loop
      vertex 4.096720 20.216499 -2.744880
      vertex 5.977530 19.519699 -1.493450
      vertex 4.744800 21.496401 0.042321
    endloop
  endfacet
  facet normal 0.256154 -0.011531 -0.966567
    outer loop
      vertex -1.958520 19.945400 5.277580
      vertex 0.495448 17.591400 5.956000
      vertex -3.097690 17.457899 5.005360
    endloop
  endfacet
  facet normal -0.011646 -0.212502 -0.977091
    outer loop
      vertex 0.320308 21.415800 5.126340
      vertex 1.916350 19.906799 5.435500
      vertex 0.495448 17.591400 5.956000
    endloop
  endfacet
  facet normal 0.642290 -0.209914 0.737157
    outer loop
      vertex -4.688060 5.037630 -7.710510
      vertex -6.501970 8.297760 -5.201680
      vertex -7.892020 4.097500 -5.186590
    endloop
  endfacet
  facet normal 0.794310 -0.260901 0.548636
    outer loop
      vertex -9.342390 6.328850 -2.025650
      vertex -7.892020 4.097500 -5.186590
      vertex -6.501970 8.297760 -5.201680
    endloop
  endfacet
  facet normal 0.917155 0.007384 -0.398463
    outer loop
      vertex -9.351340 7.612880 -0.466728
      vertex -8.498900 9.447830 1.529360
      vertex -8.590090 3.788770 1.214600
    endloop
  endfacet
  facet normal -0.596222 -0.536148 0.597550
    outer loop
      vertex 4.539060 17.479900 -4.758920
      vertex 5.977530 19.519699 -1.493450
      vertex 4.096720 20.216499 -2.744880
    endloop
  endfacet
  facet normal 0.580460 0.054686 -0.812451
    outer loop
      vertex -5.311830 15.795800 3.311580
      vertex -3.097690 17.457899 5.005360
      vertex -2.748070 11.249500 4.837260
    endloop
  endfacet
  facet normal -0.641670 -0.758361 -0.114669
    outer loop
      vertex 3.273470 22.363501 2.541110
      vertex 4.744800 21.496401 0.042321
      vertex 5.744530 20.288900 2.433770
    endloop
  endfacet
  facet normal 0.254155 0.040477 -0.966316
    outer loop
      vertex -3.097690 17.457899 5.005360
      vertex 0.495448 17.591400 5.956000
      vertex -2.748070 11.249500 4.837260
    endloop
  endfacet
  facet normal -0.280807 -0.468607 -0.837589
    outer loop
      vertex 2.351120 21.682100 4.296510
      vertex 1.916350 19.906799 5.435500
      vertex 0.320308 21.415800 5.126340
    endloop
  endfacet
  facet normal 0.908314 -0.002142 0.418284
    outer loop
      vertex -7.892020 4.097500 -5.186590
      vertex -9.342390 6.328850 -2.025650
      vertex -8.877230 0.024106 -3.068040
    endloop
  endfacet
  facet normal 0.998654 0.042699 -0.029436
    outer loop
      vertex -9.351340 7.612880 -0.466728
      vertex -9.105920 1.732310 -0.670633
      vertex -9.342390 6.328850 -2.025650
    endloop
  endfacet
  facet normal 0.947942 0.050464 -0.314419
    outer loop
      vertex -9.105920 1.732310 -0.670633
      vertex -9.351340 7.612880 -0.466728
      vertex -8.590090 3.788770 1.214600
    endloop
  endfacet
  facet normal 0.669672 -0.019692 -0.742395
    outer loop
      vertex -8.498900 9.447830 1.529360
      vertex -7.330580 13.481200 2.476250
      vertex -6.626340 5.613710 3.320190
    endloop
  endfacet
  facet normal 0.411100 -0.112850 -0.904578
    outer loop
      vertex -7.330580 13.481200 2.476250
      vertex -2.748070 11.249500 4.837260
      vertex -4.105050 7.363210 4.705390
    endloop
  endfacet
  facet normal -0.743383 -0.632535 0.217443
    outer loop
      vertex 4.744800 21.496401 0.042321
      vertex 5.977530 19.519699 -1.493450
      vertex 6.552560 19.640200 0.822960
    endloop
  endfacet
  facet normal -0.700923 -0.710215 -0.065588
    outer loop
      vertex 4.744800 21.496401 0.042321
      vertex 6.552560 19.640200 0.822960
      vertex 5.744530 20.288900 2.433770
    endloop
  endfacet
  facet normal -0.562817 -0.643532 -0.518751
    outer loop
      vertex 3.273470 22.363501 2.541110
      vertex 5.744530 20.288900 2.433770
      vertex 4.789510 19.927700 3.918000
    endloop
  endfacet
  facet normal -0.546116 -0.643251 -0.536642
    outer loop
      vertex 3.273470 22.363501 2.541110
      vertex 4.789510 19.927700 3.918000
      vertex 2.351120 21.682100 4.296510
    endloop
  endfacet
  facet normal -0.422826 -0.413725 -0.806257
    outer loop
      vertex 1.916350 19.906799 5.435500
      vertex 2.351120 21.682100 4.296510
      vertex 4.789510 19.927700 3.918000
    endloop
  endfacet
  facet normal 0.101998 -0.174985 0.979273
    outer loop
      vertex -1.677040 10.537800 -7.723100
      vertex -1.991640 4.643150 -8.743640
      vertex 1.051280 10.973100 -7.929490
    endloop
  endfacet
  facet normal 0.719253 0.027023 -0.694223
    outer loop
      vertex -6.626340 5.613710 3.320190
      vertex -8.590090 3.788770 1.214600
      vertex -8.498900 9.447830 1.529360
    endloop
  endfacet
  facet normal -0.452479 -0.236098 -0.859954
    outer loop
      vertex 1.916350 19.906799 5.435500
      vertex 4.789510 19.927700 3.918000
      vertex 3.455250 18.258200 5.078400
    endloop
  endfacet
  facet normal -0.274046 -0.047752 -0.960531
    outer loop
      vertex 0.495448 17.591400 5.956000
      vertex 1.916350 19.906799 5.435500
      vertex 3.455250 18.258200 5.078400
    endloop
  endfacet
  facet normal 0.045541 -0.148942 0.987797
    outer loop
      vertex -1.991640 4.643150 -8.743640
      vertex 0.994085 6.589500 -8.587820
      vertex 1.051280 10.973100 -7.929490
    endloop
  endfacet
  facet normal -0.364261 -0.173150 0.915059
    outer loop
      vertex 4.517920 10.380200 -7.134720
      vertex 3.311050 15.751400 -6.598790
      vertex 1.036000 14.725200 -7.698610
    endloop
  endfacet
  facet normal -0.718829 -0.401555 0.567485
    outer loop
      vertex 6.980380 15.613900 -2.986910
      vertex 5.977530 19.519699 -1.493450
      vertex 4.539060 17.479900 -4.758920
    endloop
  endfacet
  facet normal 0.505892 -0.047108 -0.861309
    outer loop
      vertex -7.330580 13.481200 2.476250
      vertex -4.105050 7.363210 4.705390
      vertex -6.626340 5.613710 3.320190
    endloop
  endfacet
  facet normal 0.231139 0.053157 -0.971467
    outer loop
      vertex -0.504725 10.966700 5.355540
      vertex -2.748070 11.249500 4.837260
      vertex 0.495448 17.591400 5.956000
    endloop
  endfacet
  facet normal 0.631033 -0.078662 0.771757
    outer loop
      vertex -7.892020 4.097500 -5.186590
      vertex -7.322290 -0.419976 -6.112880
      vertex -4.688060 5.037630 -7.710510
    endloop
  endfacet
  facet normal 0.891577 0.019672 0.452442
    outer loop
      vertex -7.892020 4.097500 -5.186590
      vertex -8.877230 0.024106 -3.068040
      vertex -7.322290 -0.419976 -6.112880
    endloop
  endfacet
  facet normal 0.996677 0.065536 0.048378
    outer loop
      vertex -9.105920 1.732310 -0.670633
      vertex -8.877230 0.024106 -3.068040
      vertex -9.342390 6.328850 -2.025650
    endloop
  endfacet
  facet normal -0.617200 -0.214221 0.757082
    outer loop
      vertex 3.311050 15.751400 -6.598790
      vertex 4.517920 10.380200 -7.134720
      vertex 6.549850 11.922200 -5.041900
    endloop
  endfacet
  facet normal -0.246931 -0.163422 0.955154
    outer loop
      vertex 1.051280 10.973100 -7.929490
      vertex 3.023040 4.796200 -8.476580
      vertex 4.517920 10.380200 -7.134720
    endloop
  endfacet
  facet normal -0.660524 -0.274560 0.698803
    outer loop
      vertex 3.311050 15.751400 -6.598790
      vertex 6.549850 11.922200 -5.041900
      vertex 4.539060 17.479900 -4.758920
    endloop
  endfacet
  facet normal -0.696229 -0.285433 0.658630
    outer loop
      vertex 4.539060 17.479900 -4.758920
      vertex 6.549850 11.922200 -5.041900
      vertex 6.980380 15.613900 -2.986910
    endloop
  endfacet
  facet normal -0.831407 -0.371481 0.413237
    outer loop
      vertex 5.977530 19.519699 -1.493450
      vertex 6.980380 15.613900 -2.986910
      vertex 7.682450 16.271200 -0.983508
    endloop
  endfacet
  facet normal 0.219662 -0.043629 -0.974600
    outer loop
      vertex -0.504725 10.966700 5.355540
      vertex -4.105050 7.363210 4.705390
      vertex -2.748070 11.249500 4.837260
    endloop
  endfacet
  facet normal -0.874721 -0.421554 0.239072
    outer loop
      vertex 5.977530 19.519699 -1.493450
      vertex 7.682450 16.271200 -0.983508
      vertex 6.552560 19.640200 0.822960
    endloop
  endfacet
  facet normal -0.889873 -0.332316 -0.312557
    outer loop
      vertex 6.552560 19.640200 0.822960
      vertex 7.548750 16.000999 1.855990
      vertex 5.744530 20.288900 2.433770
    endloop
  endfacet
  facet normal -0.784188 -0.253654 -0.566311
    outer loop
      vertex 7.548750 16.000999 1.855990
      vertex 4.789510 19.927700 3.918000
      vertex 5.744530 20.288900 2.433770
    endloop
  endfacet
  facet normal -0.694350 0.056264 -0.717435
    outer loop
      vertex 3.455250 18.258200 5.078400
      vertex 4.789510 19.927700 3.918000
      vertex 3.024490 11.647300 4.976850
    endloop
  endfacet
  facet normal -0.291074 0.033653 -0.956109
    outer loop
      vertex 0.495448 17.591400 5.956000
      vertex 3.455250 18.258200 5.078400
      vertex 3.024490 11.647300 4.976850
    endloop
  endfacet
  facet normal 0.892433 0.078481 0.444302
    outer loop
      vertex -7.322290 -0.419976 -6.112880
      vertex -8.877230 0.024106 -3.068040
      vertex -8.242730 -5.457420 -3.374260
    endloop
  endfacet
  facet normal -0.180423 -0.143775 0.973024
    outer loop
      vertex 3.023040 4.796200 -8.476580
      vertex 1.051280 10.973100 -7.929490
      vertex 0.994085 6.589500 -8.587820
    endloop
  endfacet
  facet normal -0.956634 -0.282279 -0.071905
    outer loop
      vertex 6.552560 19.640200 0.822960
      vertex 7.682450 16.271200 -0.983508
      vertex 7.548750 16.000999 1.855990
    endloop
  endfacet
  facet normal -0.126722 0.108501 -0.985986
    outer loop
      vertex -0.504725 10.966700 5.355540
      vertex 0.495448 17.591400 5.956000
      vertex 3.024490 11.647300 4.976850
    endloop
  endfacet
  facet normal 0.922958 0.107343 -0.369629
    outer loop
      vertex -9.105920 1.732310 -0.670633
      vertex -8.590090 3.788770 1.214600
      vertex -7.879050 -6.556800 -0.014380
    endloop
  endfacet
  facet normal 0.491610 -0.019166 -0.870604
    outer loop
      vertex -4.105050 7.363210 4.705390
      vertex -5.920340 -1.508710 3.875650
      vertex -6.626340 5.613710 3.320190
    endloop
  endfacet
  facet normal -0.722253 -0.153368 -0.674410
    outer loop
      vertex 6.836390 14.151500 3.039480
      vertex 4.789510 19.927700 3.918000
      vertex 7.548750 16.000999 1.855990
    endloop
  endfacet
  facet normal 0.989287 0.145678 -0.009430
    outer loop
      vertex -9.105920 1.732310 -0.670633
      vertex -7.879050 -6.556800 -0.014380
      vertex -8.877230 0.024106 -3.068040
    endloop
  endfacet
  facet normal 0.723415 0.017882 -0.690182
    outer loop
      vertex -5.920340 -1.508710 3.875650
      vertex -8.590090 3.788770 1.214600
      vertex -6.626340 5.613710 3.320190
    endloop
  endfacet
  facet normal -0.902783 -0.198563 0.381517
    outer loop
      vertex 6.980380 15.613900 -2.986910
      vertex 8.135660 9.607730 -3.379120
      vertex 7.682450 16.271200 -0.983508
    endloop
  endfacet
  facet normal 0.211578 -0.035168 -0.976728
    outer loop
      vertex -0.139729 4.963980 5.650740
      vertex -4.105050 7.363210 4.705390
      vertex -0.504725 10.966700 5.355540
    endloop
  endfacet
  facet normal -0.987036 -0.148609 -0.060617
    outer loop
      vertex 7.548750 16.000999 1.855990
      vertex 7.682450 16.271200 -0.983508
      vertex 8.398930 11.438500 -0.802196
    endloop
  endfacet
  facet normal -0.442320 -0.020372 -0.896626
    outer loop
      vertex 3.024490 11.647300 4.976850
      vertex 4.789510 19.927700 3.918000
      vertex 6.836390 14.151500 3.039480
    endloop
  endfacet
  facet normal 0.990593 0.118488 -0.068454
    outer loop
      vertex -8.877230 0.024106 -3.068040
      vertex -7.879050 -6.556800 -0.014380
      vertex -8.242730 -5.457420 -3.374260
    endloop
  endfacet
  facet normal -0.661156 -0.131309 0.738669
    outer loop
      vertex 6.397570 6.106460 -6.212030
      vertex 6.549850 11.922200 -5.041900
      vertex 4.517920 10.380200 -7.134720
    endloop
  endfacet
  facet normal -0.830485 -0.193845 0.522224
    outer loop
      vertex 6.980380 15.613900 -2.986910
      vertex 6.549850 11.922200 -5.041900
      vertex 8.135660 9.607730 -3.379120
    endloop
  endfacet
  facet normal 0.660551 -0.263393 0.703062
    outer loop
      vertex -5.603020 -3.447960 -6.396950
      vertex -7.077920 -4.378400 -5.359810
      vertex -6.661920 -7.363190 -6.868870
    endloop
  endfacet
  facet normal -0.541031 -0.056797 0.839083
    outer loop
      vertex 6.397570 6.106460 -6.212030
      vertex 4.517920 10.380200 -7.134720
      vertex 3.023040 4.796200 -8.476580
    endloop
  endfacet
  facet normal 0.468687 -0.013292 -0.883264
    outer loop
      vertex -3.695500 -1.167840 5.051090
      vertex -5.920340 -1.508710 3.875650
      vertex -4.105050 7.363210 4.705390
    endloop
  endfacet
  facet normal -0.970995 -0.136594 0.196244
    outer loop
      vertex 8.135660 9.607730 -3.379120
      vertex 8.398930 11.438500 -0.802196
      vertex 7.682450 16.271200 -0.983508
    endloop
  endfacet
  facet normal -0.983681 -0.093876 -0.153487
    outer loop
      vertex 7.548750 16.000999 1.855990
      vertex 8.398930 11.438500 -0.802196
      vertex 7.850710 13.045600 1.728350
    endloop
  endfacet
  facet normal -0.812692 -0.057994 -0.579801
    outer loop
      vertex 7.548750 16.000999 1.855990
      vertex 7.850710 13.045600 1.728350
      vertex 6.836390 14.151500 3.039480
    endloop
  endfacet
  facet normal -0.100266 -0.033367 -0.994401
    outer loop
      vertex -0.504725 10.966700 5.355540
      vertex 3.024490 11.647300 4.976850
      vertex 4.340330 6.325450 5.022750
    endloop
  endfacet
  facet normal 0.360273 -0.410040 0.837896
    outer loop
      vertex -1.136030 -3.437850 -8.312690
      vertex -5.603020 -3.447960 -6.396950
      vertex -4.318770 -6.959990 -8.667820
    endloop
  endfacet
  facet normal 0.615988 -0.256380 0.744868
    outer loop
      vertex -6.661920 -7.363190 -6.868870
      vertex -4.318770 -6.959990 -8.667820
      vertex -5.603020 -3.447960 -6.396950
    endloop
  endfacet
  facet normal 0.882088 -0.108794 0.458349
    outer loop
      vertex -7.077920 -4.378400 -5.359810
      vertex -8.242730 -5.457420 -3.374260
      vertex -6.661920 -7.363190 -6.868870
    endloop
  endfacet
  facet normal 0.215035 -0.029234 -0.976169
    outer loop
      vertex -0.139729 4.963980 5.650740
      vertex -3.695500 -1.167840 5.051090
      vertex -4.105050 7.363210 4.705390
    endloop
  endfacet
  facet normal -0.121846 -0.056142 -0.990960
    outer loop
      vertex 4.340330 6.325450 5.022750
      vertex -0.139729 4.963980 5.650740
      vertex -0.504725 10.966700 5.355540
    endloop
  endfacet
  facet normal -0.805211 -0.036857 -0.591842
    outer loop
      vertex 7.850710 13.045600 1.728350
      vertex 7.433030 10.529000 2.453330
      vertex 6.836390 14.151500 3.039480
    endloop
  endfacet
  facet normal -0.786865 -0.101859 0.608660
    outer loop
      vertex 6.549850 11.922200 -5.041900
      vertex 6.397570 6.106460 -6.212030
      vertex 8.135660 9.607730 -3.379120
    endloop
  endfacet
  facet normal -0.651322 0.015479 -0.758644
    outer loop
      vertex 4.340330 6.325450 5.022750
      vertex 6.836390 14.151500 3.039480
      vertex 7.433030 10.529000 2.453330
    endloop
  endfacet
  facet normal -0.556427 -0.002988 0.830891
    outer loop
      vertex 5.907100 1.645020 -6.556530
      vertex 6.397570 6.106460 -6.212030
      vertex 3.023040 4.796200 -8.476580
    endloop
  endfacet
  facet normal -0.981546 -0.040577 -0.186873
    outer loop
      vertex 8.398930 11.438500 -0.802196
      vertex 8.072120 8.620660 1.526210
      vertex 7.850710 13.045600 1.728350
    endloop
  endfacet
  facet normal -0.839396 -0.017184 -0.543248
    outer loop
      vertex 8.072120 8.620660 1.526210
      vertex 7.433030 10.529000 2.453330
      vertex 7.850710 13.045600 1.728350
    endloop
  endfacet
  facet normal -0.394635 -0.105447 -0.912767
    outer loop
      vertex 3.024490 11.647300 4.976850
      vertex 6.836390 14.151500 3.039480
      vertex 4.340330 6.325450 5.022750
    endloop
  endfacet
  facet normal -0.083878 -0.259343 0.962136
    outer loop
      vertex -1.136030 -3.437850 -8.312690
      vertex 3.468160 -2.921020 -7.771990
      vertex -1.257170 -0.561225 -7.547860
    endloop
  endfacet
  facet normal -0.603965 -0.042133 -0.795896
    outer loop
      vertex 6.761650 4.704720 3.271130
      vertex 4.340330 6.325450 5.022750
      vertex 7.433030 10.529000 2.453330
    endloop
  endfacet
  facet normal -0.129558 -0.030827 -0.991093
    outer loop
      vertex -0.139729 4.963980 5.650740
      vertex 4.340330 6.325450 5.022750
      vertex 0.973227 -0.356150 5.670730
    endloop
  endfacet
  facet normal -0.043992 -0.508037 0.860211
    outer loop
      vertex 3.468160 -2.921020 -7.771990
      vertex -1.136030 -3.437850 -8.312690
      vertex 0.879040 -6.730560 -10.154300
    endloop
  endfacet
  facet normal 0.127608 0.022969 -0.991559
    outer loop
      vertex -0.139729 4.963980 5.650740
      vertex 0.973227 -0.356150 5.670730
      vertex -3.695500 -1.167840 5.051090
    endloop
  endfacet
  facet normal -0.982586 -0.036573 -0.182174
    outer loop
      vertex 8.488980 3.845530 0.236451
      vertex 8.072120 8.620660 1.526210
      vertex 8.398930 11.438500 -0.802196
    endloop
  endfacet
  facet normal -0.664942 0.015440 0.746736
    outer loop
      vertex 6.397570 6.106460 -6.212030
      vertex 5.907100 1.645020 -6.556530
      vertex 7.462380 -1.914020 -5.098020
    endloop
  endfacet
  facet normal -0.832719 -0.033790 0.552664
    outer loop
      vertex 8.135660 9.607730 -3.379120
      vertex 6.397570 6.106460 -6.212030
      vertex 7.462380 -1.914020 -5.098020
    endloop
  endfacet
  facet normal -0.811925 0.011642 -0.583645
    outer loop
      vertex 8.072120 8.620660 1.526210
      vertex 6.761650 4.704720 3.271130
      vertex 7.433030 10.529000 2.453330
    endloop
  endfacet
  facet normal -0.211205 0.011649 -0.977372
    outer loop
      vertex 4.340330 6.325450 5.022750
      vertex 4.014870 -3.181010 4.979780
      vertex 0.973227 -0.356150 5.670730
    endloop
  endfacet
  facet normal -0.276670 -0.411620 0.868345
    outer loop
      vertex 6.447230 -5.759530 -8.168340
      vertex 5.616340 -2.290650 -6.788730
      vertex 3.468160 -2.921020 -7.771990
    endloop
  endfacet
  facet normal -0.676105 0.006480 0.736777
    outer loop
      vertex 7.462380 -1.914020 -5.098020
      vertex 5.907100 1.645020 -6.556530
      vertex 5.616340 -2.290650 -6.788730
    endloop
  endfacet
  facet normal -0.870129 -0.022599 0.492306
    outer loop
      vertex 8.135660 9.607730 -3.379120
      vertex 7.462380 -1.914020 -5.098020
      vertex 8.535580 1.646990 -3.037720
    endloop
  endfacet
  facet normal -0.990207 -0.044064 0.132469
    outer loop
      vertex 8.535580 1.646990 -3.037720
      vertex 8.398930 11.438500 -0.802196
      vertex 8.135660 9.607730 -3.379120
    endloop
  endfacet
  facet normal -0.999904 -0.012644 -0.005741
    outer loop
      vertex 8.488980 3.845530 0.236451
      vertex 8.398930 11.438500 -0.802196
      vertex 8.535580 1.646990 -3.037720
    endloop
  endfacet
  facet normal -0.859783 0.061855 -0.506899
    outer loop
      vertex 6.761650 4.704720 3.271130
      vertex 8.072120 8.620660 1.526210
      vertex 8.488980 3.845530 0.236451
    endloop
  endfacet
  facet normal -0.585271 0.001943 -0.810836
    outer loop
      vertex 6.761650 4.704720 3.271130
      vertex 5.731190 -2.455640 3.997770
      vertex 4.340330 6.325450 5.022750
    endloop
  endfacet
  facet normal -0.503220 0.021133 -0.863900
    outer loop
      vertex 4.014870 -3.181010 4.979780
      vertex 4.340330 6.325450 5.022750
      vertex 5.731190 -2.455640 3.997770
    endloop
  endfacet
  facet normal -0.565644 -0.418165 0.710764
    outer loop
      vertex 7.462380 -1.914020 -5.098020
      vertex 5.616340 -2.290650 -6.788730
      vertex 6.447230 -5.759530 -8.168340
    endloop
  endfacet
  facet normal -0.921206 0.054761 0.385203
    outer loop
      vertex 8.577300 -2.525880 -2.344730
      vertex 8.535580 1.646990 -3.037720
      vertex 7.462380 -1.914020 -5.098020
    endloop
  endfacet
  facet normal -0.999748 -0.013027 -0.018255
    outer loop
      vertex 8.577300 -2.525880 -2.344730
      vertex 8.521100 -1.492210 -0.004600
      vertex 8.535580 1.646990 -3.037720
    endloop
  endfacet
  facet normal -0.999929 -0.005542 -0.010510
    outer loop
      vertex 8.535580 1.646990 -3.037720
      vertex 8.521100 -1.492210 -0.004600
      vertex 8.488980 3.845530 0.236451
    endloop
  endfacet
  facet normal -0.870836 -0.015342 -0.491334
    outer loop
      vertex 8.488980 3.845530 0.236451
      vertex 7.710570 -3.376910 1.841620
      vertex 6.761650 4.704720 3.271130
    endloop
  endfacet
  facet normal -0.920082 0.012145 -0.391537
    outer loop
      vertex 8.521100 -1.492210 -0.004600
      vertex 7.710570 -3.376910 1.841620
      vertex 8.488980 3.845530 0.236451
    endloop
  endfacet
  facet normal -0.728606 0.035441 -0.684015
    outer loop
      vertex 7.710570 -3.376910 1.841620
      vertex 5.731190 -2.455640 3.997770
      vertex 6.761650 4.704720 3.271130
    endloop
  endfacet
  facet normal -0.194086 0.030846 -0.980500
    outer loop
      vertex 1.285350 -4.223850 5.487270
      vertex 0.973227 -0.356150 5.670730
      vertex 4.014870 -3.181010 4.979780
    endloop
  endfacet
  facet normal -0.998015 -0.062857 0.003797
    outer loop
      vertex 8.521100 -1.492210 -0.004600
      vertex 8.577300 -2.525880 -2.344730
      vertex 8.734840 -4.871900 0.226704
    endloop
  endfacet
  facet normal -0.875987 -0.087858 -0.474266
    outer loop
      vertex 8.521100 -1.492210 -0.004600
      vertex 8.734840 -4.871900 0.226704
      vertex 7.710570 -3.376910 1.841620
    endloop
  endfacet
  facet normal -0.970915 -0.203487 -0.126165
    outer loop
      vertex 8.577300 -2.525880 -2.344730
      vertex 9.444350 -6.368660 -2.819330
      vertex 8.734840 -4.871900 0.226704
    endloop
  endfacet
  facet normal 0.297747 -0.198373 0.933807
    outer loop
      vertex 1.036000 14.725200 -7.698610
      vertex -3.739380 13.462300 -6.444250
      vertex -1.677040 10.537800 -7.723100
    endloop
  endfacet
  facet normal 0.299082 -0.205341 0.931872
    outer loop
      vertex 0.033315 16.600100 -6.963660
      vertex -3.739380 13.462300 -6.444250
      vertex 1.036000 14.725200 -7.698610
    endloop
  endfacet
  facet normal 0.084942 -0.060851 0.994526
    outer loop
      vertex 1.036000 14.725200 -7.698610
      vertex -1.677040 10.537800 -7.723100
      vertex 1.051280 10.973100 -7.929490
    endloop
  endfacet
  facet normal -0.232900 -0.060673 0.970606
    outer loop
      vertex 1.051280 10.973100 -7.929490
      vertex 4.517920 10.380200 -7.134720
      vertex 1.036000 14.725200 -7.698610
    endloop
  endfacet
  facet normal 0.325939 -0.176306 0.928806
    outer loop
      vertex -1.677040 10.537800 -7.723100
      vertex -3.739380 13.462300 -6.444250
      vertex -4.688060 5.037630 -7.710510
    endloop
  endfacet
  facet normal 0.314062 -0.231575 0.920727
    outer loop
      vertex -1.136030 -3.437850 -8.312690
      vertex -1.257170 -0.561225 -7.547860
      vertex -3.051220 -1.925070 -7.278930
    endloop
  endfacet
  facet normal 0.812222 0.157025 0.561818
    outer loop
      vertex -7.322290 -0.419976 -6.112880
      vertex -8.242730 -5.457420 -3.374260
      vertex -7.077920 -4.378400 -5.359810
    endloop
  endfacet
  facet normal 0.465273 0.182930 0.866058
    outer loop
      vertex -5.603020 -3.447960 -6.396950
      vertex -5.448550 0.558136 -7.326110
      vertex -7.322290 -0.419976 -6.112880
    endloop
  endfacet
  facet normal 0.551464 -0.022063 0.833907
    outer loop
      vertex -4.688060 5.037630 -7.710510
      vertex -7.322290 -0.419976 -6.112880
      vertex -5.448550 0.558136 -7.326110
    endloop
  endfacet
  facet normal -0.351560 -0.029233 0.935709
    outer loop
      vertex 5.616340 -2.290650 -6.788730
      vertex 5.907100 1.645020 -6.556530
      vertex 3.690230 0.448892 -7.426810
    endloop
  endfacet
  facet normal -0.003584 -0.101662 0.994812
    outer loop
      vertex -1.257170 -0.561225 -7.547860
      vertex 3.468160 -2.921020 -7.771990
      vertex 3.690230 0.448892 -7.426810
    endloop
  endfacet
  facet normal -0.398827 -0.067395 0.914546
    outer loop
      vertex 3.468160 -2.921020 -7.771990
      vertex 5.616340 -2.290650 -6.788730
      vertex 3.690230 0.448892 -7.426810
    endloop
  endfacet
  facet normal 0.360132 0.018899 0.932710
    outer loop
      vertex -5.448550 0.558136 -7.326110
      vertex -1.991640 4.643150 -8.743640
      vertex -4.688060 5.037630 -7.710510
    endloop
  endfacet
  facet normal 0.202680 0.213827 0.955615
    outer loop
      vertex -5.448550 0.558136 -7.326110
      vertex -5.603020 -3.447960 -6.396950
      vertex -3.051220 -1.925070 -7.278930
    endloop
  endfacet
  facet normal 0.391170 -0.127602 0.911429
    outer loop
      vertex -1.136030 -3.437850 -8.312690
      vertex -3.051220 -1.925070 -7.278930
      vertex -5.603020 -3.447960 -6.396950
    endloop
  endfacet
  facet normal -0.058678 0.225807 0.972403
    outer loop
      vertex 3.023040 4.796200 -8.476580
      vertex -1.991640 4.643150 -8.743640
      vertex 3.690230 0.448892 -7.426810
    endloop
  endfacet
  facet normal -0.067605 0.214345 0.974416
    outer loop
      vertex -1.991640 4.643150 -8.743640
      vertex -1.257170 -0.561225 -7.547860
      vertex 3.690230 0.448892 -7.426810
    endloop
  endfacet
  facet normal 0.175004 0.187316 0.966585
    outer loop
      vertex -5.448550 0.558136 -7.326110
      vertex -3.051220 -1.925070 -7.278930
      vertex -1.991640 4.643150 -8.743640
    endloop
  endfacet
  facet normal -0.021809 0.220952 0.975041
    outer loop
      vertex -1.991640 4.643150 -8.743640
      vertex -3.051220 -1.925070 -7.278930
      vertex -1.257170 -0.561225 -7.547860
    endloop
  endfacet
  facet normal 0.329235 -0.178114 0.927297
    outer loop
      vertex -4.688060 5.037630 -7.710510
      vertex -1.991640 4.643150 -8.743640
      vertex -1.677040 10.537800 -7.723100
    endloop
  endfacet
  facet normal -0.429979 0.149033 0.890454
    outer loop
      vertex 3.023040 4.796200 -8.476580
      vertex 3.690230 0.448892 -7.426810
      vertex 5.907100 1.645020 -6.556530
    endloop
  endfacet
  facet normal 0.480328 0.192448 0.855716
    outer loop
      vertex -5.603020 -3.447960 -6.396950
      vertex -7.322290 -0.419976 -6.112880
      vertex -7.077920 -4.378400 -5.359810
    endloop
  endfacet
  facet normal -0.053232 0.001715 0.998581
    outer loop
      vertex 3.023040 4.796200 -8.476580
      vertex 0.994085 6.589500 -8.587820
      vertex -1.991640 4.643150 -8.743640
    endloop
  endfacet
endsolid MYSOLID
